<?xml version="1.0" standalone="no"?>
<!DOCTYPE svg PUBLIC "-//W3C//DTD SVG 1.1//EN" "http://www.w3.org/Graphics/SVG/1.1/DTD/svg11.dtd" >
<svg xmlns="http://www.w3.org/2000/svg" xmlns:xlink="http://www.w3.org/1999/xlink" version="1.1">
<metadata>
Created by FontForge 20201107 at Thu Dec 24 04:17:01 2020
 By Jimmy Wärting
Copyright (c) 2009, ParaType, Inc. All rights reserved.
</metadata>
<defs>
<font id="FSMagistralMedium" horiz-adv-x="678" >
  <font-face 
    font-family="FS Magistral Medium"
    font-weight="500"
    font-stretch="normal"
    units-per-em="1000"
    panose-1="2 11 7 4 3 2 4 8 3 4"
    ascent="800"
    descent="-200"
    x-height="530"
    cap-height="700"
    bbox="-459 -289 2466 1111"
    underline-thickness="50"
    underline-position="-200"
    unicode-range="U+0020-FB02"
  />
<missing-glyph horiz-adv-x="233" 
 />
    <glyph glyph-name="afii10017.var.accented" unicode="&#x410;`" horiz-adv-x="726" 
d="M-16 0l264 629q19 45 43.5 62t71.5 17q45 0 70.5 -17.5t44.5 -61.5l264 -629h-139l-72 177h-337l-71 -177h-139zM343 556l-115 -285h269l-114 285q-11 29 -20 29t-20 -29zM413 947l64 -75l-166 -132l-63 74z" />
    <glyph glyph-name="afii10022.var.accented" unicode="&#x415;`" horiz-adv-x="651" 
d="M621 105v-105h-459q-102 0 -102 105v490q0 105 102 105h455v-105h-375q-30 0 -40 -10t-10 -40v-135h415v-105h-415v-150q0 -30 10 -40t40 -10h379zM426 947l64 -75l-166 -132l-63 74z" />
    <glyph glyph-name="afii10026.var.accented" unicode="&#x418;`" horiz-adv-x="786" 
d="M726 0h-133l5 532q0 23 -10 23q-2 0 -4.5 -1.5t-5 -5t-4.5 -6.5l-6 -9t-6 -10l-288 -465q-14 -21 -22 -31.5t-32 -22.5t-57 -12q-35 0 -58 12t-31.5 34t-11 37t-2.5 37v588h133l-4 -522q0 -32 12 -32q2 0 4 1t4 3.5t3.5 5t3.5 6.5t4 6l282 462q27 44 53.5 61t63.5 17
q107 0 107 -126v-582zM453 947l64 -75l-166 -132l-63 74z" />
    <glyph glyph-name="afii10032.var.accented" unicode="&#x41e;`" horiz-adv-x="799" 
d="M399 708q102 0 167 -16t110 -57t64 -109.5t19 -175.5t-19 -175.5t-64 -109.5t-110 -57t-167 -16q-101 0 -166 16t-110 57t-64 109.5t-19 175.5t19 175.5t64 109.5t110 57t166 16zM222 551q-46 -52 -46 -201t46.5 -201t176.5 -52t177 52t47 201t-47 201t-177 52t-177 -52z
M450 947l64 -75l-166 -132l-63 74z" />
    <glyph glyph-name="afii10037.var.accented" unicode="&#x423;`" horiz-adv-x="684" 
d="M337 0h-143l85 155l-299 545h146l221 -424l213 424h144zM412 947l64 -75l-166 -132l-63 74z" />
    <glyph glyph-name="afii10045.var.accented" unicode="&#x42b;`" horiz-adv-x="945" 
d="M885 0h-132v700h132v-700zM60 700h132v-280h323q91 0 125.5 -54.5t34.5 -154.5q0 -101 -34.5 -156t-123.5 -55h-355q-102 0 -102 105v595zM449 315h-257v-160q0 -30 10 -40t40 -10h207q48 0 69 26t21 80q0 55 -19.5 79.5t-70.5 24.5zM523 947l64 -75l-166 -132l-63 74z
" />
    <glyph glyph-name="afii10047.var.accented" unicode="&#x42d;`" horiz-adv-x="670" 
d="M333 0h-293v105h231q117 0 165.5 42.5t55.5 155.5h-428v105h428q-8 106 -57 146.5t-164 40.5h-220v105h282q87 0 147 -25.5t92 -75t45 -109.5t13 -140t-13 -140t-45 -109.5t-92 -75t-147 -25.5zM385 947l64 -75l-166 -132l-63 74z" />
    <glyph glyph-name="afii10048.var.accented" unicode="&#x42e;`" horiz-adv-x="1028" 
d="M633 708q101 0 166 -16t109 -57t62 -109.5t18 -175.5t-18 -175.5t-62 -109.5t-109 -57t-166 -16q-95 0 -157.5 14t-106.5 50t-64.5 96t-24.5 153h-88v-305h-132v700h131v-290h89q10 171 89 234.5t264 63.5zM459 551q-44 -51 -44 -201t44.5 -201.5t173.5 -51.5t174 51.5
t45 201.5t-45 201.5t-174 51.5t-174 -52zM564 947l64 -75l-166 -132l-63 74z" />
    <glyph glyph-name="afii10049.var.accented" unicode="&#x42f;`" horiz-adv-x="738" 
d="M678 0h-132v545q0 30 -10 40t-40 10h-213q-60 0 -79.5 -26t-19.5 -90q0 -67 16.5 -98t67.5 -31h136q29 0 44 -12.5t15 -34.5v-16q0 -24 -33 -59l-226 -228h-170l246 240v5h-70q-162 0 -162 234q0 110 40.5 165.5t134.5 55.5h353q102 0 102 -105v-595zM449 947l64 -75
l-166 -132l-63 74z" />
    <glyph glyph-name="afii10023.var.accented" unicode="&#x401;`" horiz-adv-x="651" 
d="M621 105v-105h-459q-102 0 -102 105v490q0 105 102 105h455v-105h-375q-30 0 -40 -10t-10 -40v-135h415v-105h-415v-150q0 -30 10 -40t40 -10h379zM568 760h-110v110h110v-110zM236 760h-110v110h110v-110zM375 947l77 -57l-121 -170l-76 56z" />
    <glyph glyph-name="afii10065.var.accented" unicode="&#x430;`" horiz-adv-x="565" 
d="M69 530h301q73 0 111 -43t38 -113v-284q0 -90 -90 -90h-267q-132 0 -132 165q0 77 33 121t99 44h240v34q0 76 -74 76h-259v90zM402 240h-195q-56 0 -56 -75t56 -75h165q30 0 30 30v120zM352 767l64 -75l-166 -132l-63 74z" />
    <glyph glyph-name="afii10070.var.accented" unicode="&#x435;`" horiz-adv-x="571" 
d="M524 0h-294q-62 0 -102.5 17t-61.5 53.5t-28.5 81.5t-7.5 114q0 154 58.5 212t197.5 58q124 0 189.5 -45.5t65.5 -164.5q0 -100 -82 -100h-308q0 -69 22.5 -102.5t91.5 -33.5h259v-90zM151 316h243q26 0 26 31q0 49 -38.5 74t-95.5 25q-74 0 -104.5 -30.5t-30.5 -99.5z
M356 767l64 -75l-166 -132l-63 74z" />
    <glyph glyph-name="afii10074.var.accented" unicode="&#x438;`" horiz-adv-x="611" 
d="M565 0h-117l4 377q0 14 -6 14q-5 0 -14 -14l-233 -341q-15 -23 -31.5 -32.5t-44.5 -9.5q-77 0 -77 75v461h117l-5 -377q0 -14 8 -14q6 0 14 14l236 347q24 36 72 36q10 0 19.5 -2t24.5 -8.5t24 -25t9 -45.5v-455zM376 767l64 -75l-166 -132l-63 74z" />
    <glyph glyph-name="afii10080.var.accented" unicode="&#x43e;`" horiz-adv-x="624" 
d="M594 266q0 -154 -66.5 -213t-215.5 -59t-215.5 59t-66.5 213q0 152 67 211t215 59t215 -59t67 -211zM151 266q0 -99 36 -140.5t125 -41.5t125 41.5t36 140.5q0 98 -36 139t-125 41t-125 -41t-36 -139zM362 767l64 -75l-166 -132l-63 74z" />
    <glyph glyph-name="afii10085.var.accented" unicode="&#x443;`" horiz-adv-x="570" 
d="M580 530l-316 -701h-119l81 173l-236 528h121l170 -407l180 407h119zM345 767l64 -75l-166 -132l-63 74z" />
    <glyph glyph-name="afii10093.var.accented" unicode="&#x44b;`" horiz-adv-x="752" 
d="M589 0v530h117v-530h-117zM392 0h-256q-90 0 -90 90v440h117v-201h229q74 0 104 -41.5t30 -122.5t-30 -123t-104 -42zM163 239v-119q0 -30 30 -30h150q36 0 49 17.5t13 57.5t-13 57t-49 17h-180zM426 767l64 -75l-166 -132l-63 74z" />
    <glyph glyph-name="afii10095.var.accented" unicode="&#x44d;`" horiz-adv-x="530" 
d="M246 440h-204v90h231q127 0 177 -67t50 -197q0 -131 -50 -198.5t-177 -67.5h-243v90h216q75 0 103 36t31 106h-331v90h330q-6 58 -35 88t-98 30zM315 767l64 -75l-166 -132l-63 74z" />
    <glyph glyph-name="afii10096.var.accented" unicode="&#x44e;`" horiz-adv-x="824" 
d="M517 536q148 0 212.5 -58.5t64.5 -211.5q0 -154 -64.5 -213t-212.5 -59q-138 0 -203 51t-73 183h-78v-228h-117v530h117v-212h79q11 122 75.5 170t199.5 48zM361 266q0 -100 34 -141t122 -41t122 41t34 141q0 99 -33.5 139.5t-122.5 40.5t-122.5 -40.5t-33.5 -139.5z
M463 767l64 -75l-166 -132l-63 74z" />
    <glyph glyph-name="afii10097.var.accented" unicode="&#x44f;`" horiz-adv-x="578" 
d="M24 0l170 183q7 8 7 12q0 6 -10 6h-20q-130 0 -130 165q0 164 130 164h271q90 0 90 -90v-440h-117v410q0 30 -30 30h-165q-31 0 -44.5 -17.5t-13.5 -56.5q0 -79 58 -79h75q51 0 51 -45q0 -37 -24 -64l-155 -178h-143zM368 767l64 -75l-166 -132l-63 74z" />
    <glyph glyph-name="afii10071.var.accented" unicode="&#x451;`" horiz-adv-x="571" 
d="M524 0h-294q-62 0 -102.5 17t-61.5 53.5t-28.5 81.5t-7.5 114q0 154 58.5 212t197.5 58q124 0 189.5 -45.5t65.5 -164.5q0 -100 -82 -100h-308q0 -69 22.5 -102.5t91.5 -33.5h259v-90zM151 316h243q26 0 26 31q0 49 -38.5 74t-95.5 25q-74 0 -104.5 -30.5t-30.5 -99.5z
M396 600v108h98v-108h-98zM168 600h-98v108h98v-108zM307 777l77 -57l-123 -170l-76 57z" />
    <glyph glyph-name="fi" unicode="fi" horiz-adv-x="547" 
d="M384 0v530h117v-530h-117zM501 607h-117v93h117v-93zM191 0h-117v440h-74v90h74q0 98 62 138t170 40q5 0 15 -0.5t15 -0.5v-86q-7 1 -20 1q-23 0 -38 -1t-33 -6.5t-28.5 -14.5t-18 -27t-7.5 -43h145v-90h-145v-440z" />
    <glyph glyph-name="fl" unicode="fl" horiz-adv-x="547" 
d="M384 0v700h117v-700h-117zM191 0h-117v440h-74v90h74q0 98 62 138t170 40q5 0 15 -0.5t15 -0.5v-86q-7 1 -20 1q-23 0 -38 -1t-33 -6.5t-28.5 -14.5t-18 -27t-7.5 -43h145v-90h-145v-440z" />
    <glyph glyph-name=".notdef" horiz-adv-x="233" 
 />
    <glyph glyph-name="NULL" horiz-adv-x="0" 
 />
    <glyph glyph-name="nonmarkingreturn" horiz-adv-x="333" 
 />
    <glyph glyph-name="space" unicode=" " horiz-adv-x="233" 
 />
    <glyph glyph-name="exclam" unicode="!" horiz-adv-x="258" 
d="M68 0v124h122v-124h-122zM189 195h-120l-9 505h138z" />
    <glyph glyph-name="quotedbl" unicode="&#x22;" horiz-adv-x="389" 
d="M66 451l-6 249h109l-5 -249h-98zM226 451l-6 249h109l-5 -249h-98z" />
    <glyph glyph-name="numbersign" unicode="#" horiz-adv-x="874" 
d="M101 0l71 180h-132l34 86h133l71 176h-133l35 86h133l69 172h100l-69 -172h188l69 172h100l-69 -172h133l-35 -86h-133l-71 -176h133l-35 -87h-133l-72 -179h-100l72 179h-187l-73 -179h-99zM495 266l71 176h-188l-71 -176h188z" />
    <glyph glyph-name="dollar" unicode="$" horiz-adv-x="659" 
d="M39 0v105h255v196l-145 46q-66 21 -92.5 64.5t-26.5 119.5q0 78 40 123.5t120 45.5h104v68h78v-68h221v-105h-221v-195l111 -35q79 -25 112 -65t33 -120q0 -83 -36 -131.5t-113 -48.5h-107v-68h-78v68h-255zM166 525q0 -29 11.5 -48t49.5 -31l67 -21v170h-69
q-27 0 -43 -17t-16 -53zM425 260l-53 17v-172h55q65 0 65 76q0 58 -67 79z" />
    <glyph glyph-name="percent" unicode="%" horiz-adv-x="817" 
d="M188 0l357 700h88l-357 -700h-88zM380 538q0 -88 -35.5 -128t-129.5 -40t-129.5 40t-35.5 128q0 87 36 127.5t129 40.5t129 -40.5t36 -127.5zM157 607q-15 -21 -15 -69t15 -69.5t58 -21.5t58 21.5t15 69.5t-15 69.5t-58 21.5t-58 -22zM767 162q0 -88 -35.5 -128
t-129.5 -40t-129.5 40t-35.5 128q0 87 36 127.5t129 40.5t129 -40.5t36 -127.5zM544 231q-15 -21 -15 -69t15 -69.5t58 -21.5t58 21.5t15 69.5t-15 69.5t-58 21.5t-58 -22z" />
    <glyph glyph-name="ampersand" unicode="&#x26;" horiz-adv-x="745" 
d="M620 303v-170q0 -74 -27 -103.5t-113 -29.5h-233q-98 0 -142.5 45.5t-44.5 154.5q0 128 106 149v4q-54 6 -79.5 52t-25.5 114q0 93 43.5 137t141.5 44h366v-104h-315q-57 0 -79.5 -18t-22.5 -73q0 -61 25 -84.5t86 -23.5h419v-94h-105zM444 104q30 0 38.5 8t8.5 29v161
h-218q-41 0 -60 -22.5t-19 -74.5q0 -53 20 -77t73 -24h157z" />
    <glyph glyph-name="quotesingle" unicode="'" horiz-adv-x="230" 
d="M66 451l-6 249h110l-6 -249h-98z" />
    <glyph glyph-name="parenleft" unicode="(" horiz-adv-x="372" 
d="M151 419v-291q0 -98 46.5 -150.5t134.5 -52.5v-84q-126 0 -199 71.5t-73 216.5v290q0 145 73 216t199 71v-84q-88 0 -134.5 -52.5t-46.5 -150.5z" />
    <glyph glyph-name="parenright" unicode=")" horiz-adv-x="372" 
d="M221 128v291q0 98 -46.5 150.5t-134.5 52.5v84q126 0 199 -71t73 -216v-290q0 -145 -73 -216.5t-199 -71.5v84q88 0 134.5 52.5t46.5 150.5z" />
    <glyph glyph-name="asterisk" unicode="*" horiz-adv-x="511" 
d="M40 450l142 82l-142 82l36 62l144 -82v164h72v-163l141 82l38 -66l-142 -82l141 -82l-36 -63l-142 82v-164h-72v164l-142 -82z" />
    <glyph glyph-name="plus" unicode="+" horiz-adv-x="579" 
d="M335 84h-91v184h-184v85h184v184h91v-184h184v-85h-184v-184z" />
    <glyph glyph-name="comma" unicode="," horiz-adv-x="278" 
d="M89 -116l-89 53l122 203l96 -57z" />
    <glyph glyph-name="hyphen" unicode="-" horiz-adv-x="437" 
d="M40 218v103h357v-103h-357z" />
    <glyph glyph-name="period" unicode="." horiz-adv-x="242" 
d="M182 0h-122v129h122v-129z" />
    <glyph glyph-name="slash" unicode="/" horiz-adv-x="507" 
d="M89 -166h-89l418 906h89z" />
    <glyph glyph-name="zero" unicode="0" horiz-adv-x="644" 
d="M40 253v201q0 146 63.5 199.5t218.5 53.5t218.5 -53.5t63.5 -199.5v-201q0 -147 -64 -202.5t-218 -55.5t-218 55.5t-64 202.5zM172 448v-190q0 -89 33.5 -123.5t116.5 -34.5q87 0 118.5 34t31.5 124v190q0 90 -31.5 122t-118.5 32q-83 0 -116.5 -33t-33.5 -121z" />
    <glyph glyph-name="one" unicode="1" horiz-adv-x="302" 
d="M110 0v547q0 18 -1.5 26.5t-9 15t-22.5 6.5h-77v105h151q91 0 91 -88v-612h-132z" />
    <glyph glyph-name="two" unicode="2" horiz-adv-x="626" 
d="M114 0q-9 0 -17.5 2t-23.5 8.5t-24 25.5t-9 48q0 61 43 92l324 222q29 20 37 42.5t8 58.5q0 53 -17.5 74.5t-68.5 21.5h-279v105h340q86 0 122.5 -44.5t36.5 -141.5q0 -75 -18 -115.5t-74 -79.5l-282 -196q-1 -1 -4 -3t-5 -4.5t-2 -4.5q0 -6 8 -6h348v-105h-443z" />
    <glyph glyph-name="three" unicode="3" horiz-adv-x="619" 
d="M40 0v105h281q37 0 54.5 2t36 10.5t25 28.5t6.5 54q0 51 -18.5 76t-76.5 25h-290v105h282q54 0 73.5 22t19.5 74q0 46 -16 69.5t-66 23.5h-299v105h351q90 0 128 -44.5t38 -139.5q0 -145 -105 -158v-4q115 -6 115 -161q0 -92 -35.5 -142.5t-129.5 -50.5h-374z" />
    <glyph glyph-name="four" unicode="4" horiz-adv-x="680" 
d="M440 0v118h-336q-86 0 -86 97q0 50 39 91l338 362q37 40 97 40q80 0 80 -76v-409h88v-105h-88v-118h-132zM440 223v332q0 4 -4 4q-3 0 -12 -10l-268 -297q-12 -12 -12 -17q0 -12 18 -12h278z" />
    <glyph glyph-name="five" unicode="5" horiz-adv-x="618" 
d="M44 0v105h322q42 0 59 26t17 81q0 49 -16.5 72.5t-59.5 23.5h-196q-64 0 -97 26t-33 99v177q0 42 23.5 66t69.5 24h422v-105h-350q-10 0 -16.5 -2t-11.5 -10t-5 -24v-87q0 -32 10.5 -45.5t41.5 -13.5h199q86 0 120.5 -51.5t34.5 -144.5q0 -37 -3 -66t-13 -58.5t-26.5 -49
t-45 -31.5t-67.5 -12h-379z" />
    <glyph glyph-name="six" unicode="6" horiz-adv-x="639" 
d="M192 429h225q98 0 140 -49.5t42 -152.5q0 -54 -7 -91.5t-26.5 -70.5t-57.5 -49t-96 -16h-175q-177 0 -177 193v325q0 86 45.5 134t137.5 48h321v-105h-274q-50 0 -74 -21.5t-24 -69.5v-75zM192 324v-125q0 -51 17.5 -72.5t73.5 -21.5h85q53 0 74 28.5t21 85.5
q0 55 -22.5 80t-83.5 25h-165z" />
    <glyph glyph-name="seven" unicode="7" horiz-adv-x="538" 
d="M32 0l351 556q11 17 11 26q0 13 -21 13h-373v105h461q45 0 61 -20t16 -53q0 -41 -24 -81l-335 -546h-147z" />
    <glyph glyph-name="eight" unicode="8" horiz-adv-x="644" 
d="M264 700h115q54 0 88.5 -6.5t64 -26t43 -59t13.5 -101.5q0 -132 -96 -149v-4q67 -11 89.5 -52t22.5 -117q0 -97 -46.5 -141t-144.5 -44h-182q-98 0 -144.5 44t-46.5 141q0 76 22.5 117t89.5 52v4q-48 6 -72 48.5t-24 100.5q0 62 13.5 101.5t43 59t63.5 26t88 6.5z
M274 407h96q45 0 63.5 20.5t18.5 72.5q0 53 -20.5 74t-72.5 21h-75q-52 0 -72 -21t-20 -74q0 -52 18.5 -72.5t63.5 -20.5zM264 105h116q49 0 68.5 23.5t19.5 77.5q0 51 -23 73.5t-69 22.5h-108q-46 0 -69 -22.5t-23 -73.5q0 -54 19.5 -77.5t68.5 -23.5z" />
    <glyph glyph-name="nine" unicode="9" horiz-adv-x="639" 
d="M447 271h-225q-98 0 -140 49.5t-42 152.5q0 54 7 91.5t26.5 70.5t57.5 49t96 16h175q177 0 177 -193v-325q0 -86 -45.5 -134t-137.5 -48h-321v105h274q50 0 74 21.5t24 69.5v75zM447 376v125q0 51 -17.5 72.5t-73.5 21.5h-85q-53 0 -74 -28.5t-21 -85.5q0 -55 22.5 -80
t83.5 -25h165z" />
    <glyph glyph-name="colon" unicode=":" horiz-adv-x="242" 
d="M182 404h-122v126h122v-126zM182 0h-122v126h122v-126z" />
    <glyph glyph-name="semicolon" unicode=";" horiz-adv-x="242" 
d="M182 404h-122v126h122v-126zM89 -116l-89 53l122 203l96 -57z" />
    <glyph glyph-name="less" unicode="&#x3c;" horiz-adv-x="581" 
d="M60 314l461 232v-104l-277 -128l277 -128v-104z" />
    <glyph glyph-name="equal" unicode="=" horiz-adv-x="580" 
d="M520 197h-460v85h460v-85zM520 348h-460v85h460v-85z" />
    <glyph glyph-name="greater" unicode="&#x3e;" horiz-adv-x="581" 
d="M521 314l-461 -232v104l277 128l-277 128v104z" />
    <glyph glyph-name="question" unicode="?" horiz-adv-x="484" 
d="M115 0v124h122v-124h-122zM237 195h-122v58q0 44 18.5 70t57.5 49l65 39q29 16 42.5 35.5t13.5 60.5q0 47 -18.5 67.5t-60.5 20.5h-213v105h263q84 0 122.5 -39.5t38.5 -132.5q0 -55 -16 -93.5t-70 -71.5l-77 -47q-44 -26 -44 -66v-55z" />
    <glyph glyph-name="at" unicode="@" horiz-adv-x="1015" 
d="M706 -194h-319q-100 0 -165.5 31.5t-100.5 97t-48 146t-13 199.5q0 229 79 325.5t274 96.5h214q176 0 252 -93t76 -294q0 -39 -0.5 -60.5t-3.5 -60.5t-9 -61.5t-18 -51.5t-29 -45t-44 -27.5t-61 -11.5q-48 0 -86.5 23.5t-49.5 69.5q-50 -93 -181 -93q-115 0 -161.5 65
t-46.5 193q0 58 9.5 103t32 83.5t65 59t103.5 20.5h145q44 0 67 -18t23 -71v-249q0 -59 24 -80.5t54 -21.5q16 0 28 8t19 26.5t11.5 36.5t6 49.5t2 53t0.5 60.5q0 170 -49 231.5t-185 61.5h-201q-57 0 -98.5 -7.5t-70.5 -25.5t-46.5 -41.5t-27.5 -63t-13.5 -83t-3.5 -107.5
q0 -54 0.5 -81.5t5 -75t13.5 -73t26.5 -59t43 -50t64.5 -29t90 -12.5h303v-94zM613 393q0 17 -11.5 26.5t-30.5 9.5h-75q-72 0 -101.5 -43.5t-29.5 -128.5q0 -31 1.5 -52t8 -44.5t18 -37.5t32.5 -23.5t50 -9.5q65 0 101.5 43t36.5 117v143z" />
    <glyph glyph-name="A" unicode="A" horiz-adv-x="726" 
d="M-16 0l264 629q19 45 43.5 62t71.5 17q45 0 70.5 -17.5t44.5 -61.5l264 -629h-139l-72 177h-337l-71 -177h-139zM343 556l-115 -285h269l-114 285q-11 29 -20 29t-20 -29z" />
    <glyph glyph-name="B" unicode="B" horiz-adv-x="732" 
d="M192 301v-146q0 -30 10 -40t40 -10h209q52 0 73.5 22t21.5 74t-20.5 76t-65.5 24h-268zM192 545v-139h266q44 0 60.5 21.5t16.5 74.5q0 47 -17.5 70t-60.5 23h-215q-30 0 -40 -10t-10 -40zM572 354q110 -9 110 -162q0 -91 -34.5 -141.5t-127.5 -50.5h-358
q-102 0 -102 105v490q0 105 102 105h358q151 0 151 -192q0 -136 -99 -150v-4z" />
    <glyph glyph-name="C" unicode="C" horiz-adv-x="659" 
d="M629 0h-292q-87 0 -147 25.5t-92 75t-45 109.5t-13 140t13 140t45 109.5t92 75t147 25.5h281v-105h-219q-128 0 -175.5 -51.5t-47.5 -193.5t47.5 -193.5t175.5 -51.5h230v-105z" />
    <glyph glyph-name="D" unicode="D" horiz-adv-x="749" 
d="M451 0h-289q-102 0 -102 105v490q0 105 102 105h271q69 0 120 -20.5t80.5 -53t47 -80.5t23 -93.5t5.5 -102.5q0 -56 -5.5 -102t-22 -94t-44 -80.5t-75 -53t-111.5 -20.5zM387 595h-145q-30 0 -40 -10t-10 -40v-390q0 -30 10 -40t40 -10h145q58 0 96 17.5t57 53.5t26 76
t7 98t-7 98t-26 76t-57 53.5t-96 17.5z" />
    <glyph glyph-name="E" unicode="E" horiz-adv-x="651" 
d="M621 105v-105h-459q-102 0 -102 105v490q0 105 102 105h455v-105h-375q-30 0 -40 -10t-10 -40v-135h415v-105h-415v-150q0 -30 10 -40t40 -10h379z" />
    <glyph glyph-name="F" unicode="F" horiz-adv-x="627" 
d="M192 0h-132v595q0 105 102 105h455v-105h-375q-30 0 -40 -10t-10 -40v-139h310v-105h-310v-301z" />
    <glyph glyph-name="G" unicode="G" horiz-adv-x="727" 
d="M671 595h-272q-128 0 -175.5 -51.5t-47.5 -193.5t47.5 -193.5t175.5 -51.5h106q30 0 40 10t10 40v188h132v-238q0 -105 -102 -105h-248q-87 0 -147 25.5t-92 75t-45 109.5t-13 140t13 140t45 109.5t92 75t147 25.5h334v-105z" />
    <glyph glyph-name="H" unicode="H" horiz-adv-x="748" 
d="M688 700v-700h-132v308h-364v-308h-132v700h132v-287h364v287h132z" />
    <glyph glyph-name="I" unicode="I" horiz-adv-x="252" 
d="M192 0h-132v700h132v-700z" />
    <glyph glyph-name="J" unicode="J" horiz-adv-x="465" 
d="M0 0v105h115q83 0 120.5 39.5t37.5 125.5v430h132v-465q0 -106 -58 -170.5t-168 -64.5h-179z" />
    <glyph glyph-name="K" unicode="K" horiz-adv-x="710" 
d="M730 0h-170l-293 267q-36 32 -36 93q0 44 34 78l265 262h164l-303 -287q-2 -2 -9.5 -9t-9.5 -9.5t-6.5 -9t-6 -12t-1.5 -12.5q0 -29 41 -64zM60 0v700h132v-700h-132z" />
    <glyph glyph-name="L" unicode="L" horiz-adv-x="618" 
d="M618 0h-456q-102 0 -102 105v595h132v-545q0 -30 10 -40t40 -10h376v-105z" />
    <glyph glyph-name="M" unicode="M" horiz-adv-x="992" 
d="M775 543l-179 -467q-18 -45 -38 -64.5t-62 -19.5t-62 19.5t-38 64.5l-179 467q-9 23 -17 23q-11 0 -11 -21l3 -545h-132v616q0 92 113 92q54 0 80 -23t43 -67l181 -467q12 -26 19 -26t19 26l181 467q17 44 43 67t80 23q113 0 113 -92v-616h-132l4 545q0 21 -12 21
q-8 0 -17 -23z" />
    <glyph glyph-name="N" unicode="N" horiz-adv-x="790" 
d="M730 700v-609q0 -50 -29 -74.5t-75 -24.5q-76 0 -113 59l-295 466q-12 17 -16 17q-14 0 -14 -20v-514h-128v613q0 45 28.5 70t78.5 25q77 0 111 -55l297 -469q1 -2 3 -5.5t3.5 -5.5t4 -4t5.5 -2q11 0 11 17v516h128z" />
    <glyph glyph-name="O" unicode="O" horiz-adv-x="799" 
d="M399 708q102 0 167 -16t110 -57t64 -109.5t19 -175.5t-19 -175.5t-64 -109.5t-110 -57t-167 -16q-101 0 -166 16t-110 57t-64 109.5t-19 175.5t19 175.5t64 109.5t110 57t166 16zM222 551q-46 -52 -46 -201t46.5 -201t176.5 -52t177 52t47 201t-47 201t-177 52t-177 -52z
" />
    <glyph glyph-name="P" unicode="P" horiz-adv-x="718" 
d="M60 0v595q0 105 102 105h348q54 0 90.5 -17.5t55 -51t25.5 -70t7 -86.5t-7 -87t-25.5 -70.5t-55 -51.5t-90.5 -18h-318v-248h-132zM192 353h253q64 0 85.5 28.5t21.5 93.5t-21.5 92.5t-85.5 27.5h-203q-30 0 -40 -10t-10 -40v-192z" />
    <glyph glyph-name="Q" unicode="Q" horiz-adv-x="806" 
d="M399 708q102 0 167 -16t110 -57t64 -109.5t19 -175.5q0 -97 -19 -152.5t-58 -88.5v-4l100 4v-109h-403q-94 0 -154.5 15t-104 54t-62 107t-18.5 174q0 107 19 175.5t64 109.5t110 57t166 16zM176 350q0 -148 46 -196.5t177 -48.5t177.5 48.5t46.5 196.5q0 149 -47 201
t-177 52t-176.5 -52t-46.5 -201z" />
    <glyph glyph-name="R" unicode="R" horiz-adv-x="734" 
d="M192 0h-132v595q0 105 102 105h353q94 0 134.5 -55.5t40.5 -165.5q0 -234 -162 -234h-70v-5l246 -240h-170l-226 227q-33 35 -33 59v16q0 22 15.5 35t43.5 13h136q51 0 67.5 31t16.5 98q0 64 -19.5 90t-79.5 26h-213q-30 0 -40 -10t-10 -40v-545z" />
    <glyph glyph-name="S" unicode="S" horiz-adv-x="659" 
d="M39 0v105h388q66 0 66 76q0 58 -68 79l-276 87q-66 21 -92.5 64.5t-26.5 119.5q0 78 40 123.5t120 45.5h403v-105h-368q-27 0 -43 -17t-16 -53q0 -29 11.5 -48t49.5 -31l256 -81q79 -25 112.5 -65t33.5 -120q0 -82 -36.5 -131t-113.5 -49h-440z" />
    <glyph glyph-name="T" unicode="T" horiz-adv-x="679" 
d="M405 0h-132v595h-273v105h679v-105h-274v-595z" />
    <glyph glyph-name="U" unicode="U" horiz-adv-x="728" 
d="M536 254v446h132v-446q0 -143 -76.5 -202.5t-227.5 -59.5t-227.5 59.5t-76.5 202.5v446h132v-446q0 -82 41 -119.5t131 -37.5t131 37.5t41 119.5z" />
    <glyph glyph-name="V" unicode="V" horiz-adv-x="702" 
d="M127 700l209 -565q0 -1 2 -4.5t3.5 -5t4 -3.5t5.5 -2t5.5 2t4 3.5t3.5 5t2 4.5l209 565h143l-254 -632q-30 -76 -113 -76t-113 76l-254 632h143z" />
    <glyph glyph-name="W" unicode="W" horiz-adv-x="1049" 
d="M297 157l130 479q3 13 7.5 23t15 22.5t29.5 19.5t45 7q78 0 97 -72l130 -479q5 -17 15 -17q11 0 16 21l139 539h134l-169 -610q-14 -50 -36 -74t-77 -24q-54 0 -77 23.5t-35 66.5l-123 453q-4 19 -13 19q-8 0 -14 -19l-124 -453q-12 -44 -34.5 -67t-76.5 -23
q-55 0 -78 24.5t-36 73.5l-168 610h134l139 -539q6 -21 15 -21q8 0 15 17z" />
    <glyph glyph-name="X" unicode="X" horiz-adv-x="648" 
d="M668 0h-157l-187 262l-187 -262h-157l269 355l-261 345h157l179 -252l179 252h157l-261 -345z" />
    <glyph glyph-name="Y" unicode="Y" horiz-adv-x="684" 
d="M342 333l220 367h142l-296 -486v-214h-132v214l-296 486h142z" />
    <glyph glyph-name="Z" unicode="Z" horiz-adv-x="629" 
d="M608 0h-502q-96 0 -96 72q0 49 43 94l382 395q12 12 12 21q0 13 -19 13h-391v105h503q79 0 79 -72q0 -21 -7 -38.5t-13 -25.5t-20 -22l-387 -408q-10 -10 -10 -18q0 -11 12 -11h414v-105z" />
    <glyph glyph-name="bracketleft" unicode="[" horiz-adv-x="372" 
d="M151 622v-697h181v-84h-272v865h272v-84h-181z" />
    <glyph glyph-name="backslash" unicode="\" horiz-adv-x="507" 
d="M418 -166l-418 906h89l418 -906h-89z" />
    <glyph glyph-name="bracketright" unicode="]" horiz-adv-x="372" 
d="M222 -75v697h-182v84h272v-865h-272v84h182z" />
    <glyph glyph-name="asciicircum" unicode="^" horiz-adv-x="590" 
d="M472 521l-148 145q-14 14 -28 14t-28 -14l-149 -145l-59 68l181 169q23 23 54 23t54 -23l181 -169z" />
    <glyph glyph-name="underscore" unicode="_" horiz-adv-x="572" 
d="M40 0v103h492v-103h-492z" />
    <glyph glyph-name="grave" unicode="`" horiz-adv-x="301" 
d="M100 767l165 -133l-63 -74l-166 132z" />
    <glyph glyph-name="a" unicode="a" horiz-adv-x="565" 
d="M69 530h301q73 0 111 -43t38 -113v-284q0 -90 -90 -90h-267q-132 0 -132 165q0 77 33 121t99 44h240v34q0 76 -74 76h-259v90zM402 240h-195q-56 0 -56 -75t56 -75h165q30 0 30 30v120z" />
    <glyph glyph-name="b" unicode="b" horiz-adv-x="568" 
d="M321 0h-185q-90 0 -90 90v610h117v-170h158q121 0 169 -67t48 -197t-48.5 -198t-168.5 -68zM163 440v-320q0 -30 30 -30h99q77 0 101 44t24 132q0 43 -4 70.5t-16 53.5t-38 38t-67 12h-129z" />
    <glyph glyph-name="c" unicode="c" horiz-adv-x="515" 
d="M479 440h-193q-36 0 -61 -9t-39.5 -23t-22.5 -38t-10 -47t-2 -57q0 -43 4 -70.5t17 -54t41.5 -39t72.5 -12.5h205v-90h-234q-127 0 -177 67.5t-50 198.5q0 130 50 197t177 67h222v-90z" />
    <glyph glyph-name="d" unicode="d" horiz-adv-x="568" 
d="M522 700v-610q0 -90 -90 -90h-185q-120 0 -168.5 68t-48.5 198t48 197t169 67h158v170h117zM405 440h-129q-41 0 -67 -12t-38 -38t-16 -53.5t-4 -70.5t4 -70.5t16 -54t38 -39t67 -12.5h99q30 0 30 30v320z" />
    <glyph glyph-name="e" unicode="e" horiz-adv-x="571" 
d="M524 0h-294q-62 0 -102.5 17t-61.5 53.5t-28.5 81.5t-7.5 114q0 154 58.5 212t197.5 58q124 0 189.5 -45.5t65.5 -164.5q0 -100 -82 -100h-308q0 -69 22.5 -102.5t91.5 -33.5h259v-90zM151 316h243q26 0 26 31q0 49 -38.5 74t-95.5 25q-74 0 -104.5 -30.5t-30.5 -99.5z
" />
    <glyph glyph-name="f" unicode="f" horiz-adv-x="336" 
d="M191 0h-117v440h-74v90h74q0 98 62 138t170 40q5 0 15 -0.5t15 -0.5v-86q-7 1 -20 1q-23 0 -38 -1t-33 -6.5t-28.5 -14.5t-18 -27t-7.5 -43h145v-90h-145v-440z" />
    <glyph glyph-name="g" unicode="g" horiz-adv-x="580" 
d="M417 0h-170q-120 0 -168.5 68t-48.5 198t48 197t169 67h197q90 0 90 -90v-399q0 -113 -54.5 -164.5t-174.5 -51.5h-238v90h238q100 0 112 85zM387 440h-111q-41 0 -67 -12t-38 -38t-16 -53.5t-4 -70.5t4 -70.5t16 -54t38 -39t67 -12.5h141v320q0 30 -30 30z" />
    <glyph glyph-name="h" unicode="h" horiz-adv-x="574" 
d="M46 0v700h117v-170h159q98 0 152 -41t54 -140v-349h-117v318q0 62 -26 92t-85 30h-137v-440h-117z" />
    <glyph glyph-name="i" unicode="i" horiz-adv-x="209" 
d="M46 0v530h117v-530h-117zM163 600h-117v108h117v-108z" />
    <glyph glyph-name="j" unicode="j" horiz-adv-x="281" 
d="M-40 -178v90q8 -1 17 -1q70 0 105.5 27.5t35.5 98.5v493h117v-507q0 -113 -62.5 -157.5t-177.5 -44.5q-23 0 -35 1zM235 607h-117v93h117v-93z" />
    <glyph glyph-name="k" unicode="k" horiz-adv-x="543" 
d="M557 0h-144l-178 190q-37 42 -37 84q0 41 37 80l160 176h136l-199 -214q-17 -17 -17 -38q0 -20 25 -47zM163 0h-117v700h117v-700z" />
    <glyph glyph-name="l" unicode="l" horiz-adv-x="209" 
d="M46 0v700h117v-700h-117z" />
    <glyph glyph-name="m" unicode="m" horiz-adv-x="847" 
d="M46 0v440q0 90 90 90h459q98 0 152 -41t54 -140v-349h-117v318q0 62 -26 92t-85 30h-91v-440h-117v440h-172q-30 0 -30 -30v-410h-117z" />
    <glyph glyph-name="n" unicode="n" horiz-adv-x="574" 
d="M46 0v440q0 90 90 90h186q98 0 152 -41t54 -140v-349h-117v318q0 62 -26 92t-85 30h-107q-30 0 -30 -30v-410h-117z" />
    <glyph glyph-name="o" unicode="o" horiz-adv-x="624" 
d="M594 266q0 -154 -66.5 -213t-215.5 -59t-215.5 59t-66.5 213q0 152 67 211t215 59t215 -59t67 -211zM151 266q0 -99 36 -140.5t125 -41.5t125 41.5t36 140.5q0 98 -36 139t-125 41t-125 -41t-36 -139z" />
    <glyph glyph-name="p" unicode="p" horiz-adv-x="568" 
d="M136 530h185q121 0 169 -67t48 -197t-48.5 -198t-168.5 -68h-158v-170h-117v610q0 90 90 90zM163 414v-324h129q77 0 101 44t24 132q0 43 -4 70.5t-16 53.5t-38 38t-67 12h-99q-30 0 -30 -26z" />
    <glyph glyph-name="q" unicode="q" horiz-adv-x="568" 
d="M247 530h185q90 0 90 -90v-610h-117v170h-158q-120 0 -168.5 68t-48.5 198t48 197t169 67zM405 90v324q0 26 -30 26h-99q-41 0 -67 -12t-38 -38t-16 -53.5t-4 -70.5t4 -70.5t16 -54t38 -39t67 -12.5h129z" />
    <glyph glyph-name="r" unicode="r" horiz-adv-x="339" 
d="M46 0v330q0 105 53 152.5t161 47.5h79v-90h-49q-69 0 -98 -34t-29 -107v-299h-117z" />
    <glyph glyph-name="s" unicode="s" horiz-adv-x="528" 
d="M33 0v90h298q20 0 34.5 12t14.5 36q0 16 -6 27.5t-20 19t-24 11t-32 9t-29 7.5l-102 28q-82 22 -111.5 57.5t-29.5 96.5q0 72 36 104t116 32h299v-90h-281q-30 0 -43 -10t-13 -38q0 -21 14.5 -35.5t28 -19.5t40.5 -13l114 -32q35 -10 54 -16.5t43.5 -19t37 -27.5
t21.5 -39t9 -55q0 -66 -29 -100.5t-101 -34.5h-339z" />
    <glyph glyph-name="t" unicode="t" horiz-adv-x="341" 
d="M341 0h-73q-95 0 -145 40t-50 133v267h-73v90h73v170h117v-170h151v-90h-151v-243q0 -58 30 -82.5t92 -24.5h29v-90z" />
    <glyph glyph-name="u" unicode="u" horiz-adv-x="582" 
d="M536 530v-440q0 -90 -90 -90h-194q-98 0 -152 41t-54 140v349h117v-318q0 -62 26 -92t85 -30h115q30 0 30 30v410h117z" />
    <glyph glyph-name="v" unicode="v" horiz-adv-x="539" 
d="M107 530l149 -393q8 -21 14 -21t14 21l148 393h121l-202 -489q-9 -22 -24 -33t-26 -12.5t-31 -1.5t-31 1.5t-26.5 12.5t-24.5 33l-202 489h121z" />
    <glyph glyph-name="w" unicode="w" horiz-adv-x="808" 
d="M108 529l102 -391q5 -16 10 -16q6 0 10 15l97 350q14 49 77 49t77 -49l98 -350q4 -15 10 -15t10 16l101 391h112l-126 -463q-10 -38 -31.5 -55t-59.5 -17q-74 0 -91 59l-92 332q-4 17 -8 17t-8 -17l-92 -332q-17 -59 -91 -59q-38 0 -59.5 17t-31.5 55l-126 463h112z" />
    <glyph glyph-name="x" unicode="x" horiz-adv-x="513" 
d="M527 0h-137l-134 196l-133 -196h-137l203 272l-190 258h133l124 -182l124 182h133l-189 -258z" />
    <glyph glyph-name="y" unicode="y" horiz-adv-x="570" 
d="M580 530l-316 -701h-119l81 173l-236 528h121l170 -407l180 407h119z" />
    <glyph glyph-name="z" unicode="z" horiz-adv-x="477" 
d="M83 0q-75 0 -75 71q0 19 6 34t12 22.5t18 19.5l272 273q8 8 8 12q0 8 -10 8h-289v90h375q31 0 50 -17.5t19 -49.5q0 -41 -31 -72l-275 -283q-8 -8 -8 -13t9 -5h302v-90h-383z" />
    <glyph glyph-name="braceleft" unicode="{" horiz-adv-x="317" 
d="M116 288v-8q47 -17 47 -94v-126q0 -112 114 -112v-84q-112 0 -158.5 51t-46.5 151v121q0 23 -13.5 38.5t-38.5 17.5v82q25 2 38.5 17.5t13.5 38.5v121q0 100 46.5 151t158.5 51v-84q-114 0 -114 -112v-126q0 -77 -47 -94z" />
    <glyph glyph-name="bar" unicode="|" horiz-adv-x="190" 
d="M50 -166v906h90v-906h-90z" />
    <glyph glyph-name="braceright" unicode="}" horiz-adv-x="317" 
d="M201 280v8q-47 17 -47 94v126q0 112 -114 112v84q112 0 158.5 -51t46.5 -151v-121q0 -23 13.5 -38.5t38.5 -17.5v-82q-25 -2 -38.5 -17.5t-13.5 -38.5v-121q0 -100 -46.5 -151t-158.5 -51v84q114 0 114 112v126q0 77 47 94z" />
    <glyph glyph-name="asciitilde" unicode="~" horiz-adv-x="633" 
d="M119 299l-59 53q71 102 157 102q43 0 74 -18l54 -30q37 -21 67 -21q22 0 43 13.5t30.5 25t27.5 35.5l60 -52q-45 -57 -79 -83.5t-82 -26.5q-44 0 -79 20l-46 26q-38 22 -69 22q-21 0 -41 -11.5t-29.5 -22t-28.5 -32.5z" />
    <glyph glyph-name="uni00A0" unicode="&#xa0;" horiz-adv-x="233" 
 />
    <glyph glyph-name="exclamdown" unicode="&#xa1;" horiz-adv-x="258" 
d="M68 700h122v-124h-122v124zM189 505l9 -505h-138l9 505h120z" />
    <glyph glyph-name="cent" unicode="&#xa2;" horiz-adv-x="513" 
d="M475 440h-127v-350h139v-90h-139v-68h-84v68h-11q-127 0 -177 67.5t-50 198.5q0 130 50 197t177 67h11v68h84v-68h127v-90zM264 90v349q-38 -3 -62.5 -16t-36 -38.5t-15 -51.5t-3.5 -67t3.5 -67.5t15 -52.5t36 -39.5t62.5 -16.5z" />
    <glyph glyph-name="sterling" unicode="&#xa3;" horiz-adv-x="637" 
d="M667 0h-465q-101 0 -101 105v276h-61v88h61q0 133 47.5 182t139.5 49h169v-105h-115q-68 0 -88.5 -26t-20.5 -100h226v-88h-226v-226q0 -30 9.5 -40t39.5 -10h385v-105z" />
    <glyph glyph-name="currency" unicode="&#xa4;" horiz-adv-x="602" 
d="M60 163l64 64q-30 47 -30 105q0 59 30 105l-63 62l71 71l62 -63q44 30 106 30q61 0 104 -30l65 65l73 -71l-66 -65q29 -54 29 -104q0 -56 -30 -104l64 -64l-71 -70l-64 63q-46 -30 -104 -30q-56 0 -105 29l-64 -65zM224 407q-30 -30 -30 -75t30.5 -75.5t75.5 -30.5
t75.5 30.5t30.5 75.5t-30.5 75.5t-75.5 30.5t-76 -31z" />
    <glyph glyph-name="yen" unicode="&#xa5;" horiz-adv-x="604" 
d="M568 268h-186l-14 -24v-51h200v-89h-200v-104h-132v104h-200v89h200v51l-14 24h-186v89h134l-200 343h142l190 -337l190 337h142l-200 -343h134v-89z" />
    <glyph glyph-name="brokenbar" unicode="&#xa6;" horiz-adv-x="190" 
d="M50 -63v300h90v-300h-90zM50 440v300h90v-300h-90z" />
    <glyph glyph-name="section" unicode="&#xa7;" horiz-adv-x="525" 
d="M111 -173v102h170q55 0 55 34q0 18 -36 49l-184 157q-56 49 -56 117q0 60 37.5 99t95.5 39l-70 60q-46 38 -46 100q0 57 36.5 86.5t92.5 29.5h208v-102h-180q-14 0 -21.5 -1t-16 -8t-8.5 -20q0 -20 30 -44l185 -157q62 -53 62 -128q0 -59 -39.5 -93t-100.5 -34l63 -54
q59 -52 59 -114q0 -56 -42 -87t-99 -31h-195zM237 189q24 0 38 1.5t35.5 7t32.5 20.5t11 39q0 33 -21 49l-51 40q-24 0 -37.5 -1.5t-33.5 -7t-30 -20.5t-10 -39q0 -34 24 -54z" />
    <glyph glyph-name="dieresis" unicode="&#xa8;" horiz-adv-x="444" 
d="M276 600v108h108v-108h-108zM168 600h-108v108h108v-108z" />
    <glyph glyph-name="copyright" unicode="&#xa9;" horiz-adv-x="863" 
d="M803 351q0 -198 -86.5 -278.5t-284.5 -80.5q-199 0 -285.5 81t-86.5 280q0 198 86 276.5t286 78.5t285.5 -78.5t85.5 -278.5zM154 353q0 -75 12.5 -124.5t43.5 -85.5t85 -52t137 -16q159 0 218 64.5t59 211.5q0 148 -60 211t-217 63q-158 0 -218 -62.5t-60 -209.5z
M577 162h-185q-84 0 -118.5 50.5t-34.5 140.5q0 92 34 141.5t119 49.5h172v-80h-136q-55 0 -71 -25.5t-16 -85.5t16 -85.5t71 -25.5h149v-80z" />
    <glyph glyph-name="ordfeminine" unicode="&#xaa;" horiz-adv-x="397" 
d="M83 700h156q96 0 96 -96v-157q0 -23 -13.5 -36.5t-36.5 -13.5h-145q-42 0 -61 27t-19 69t19 68.5t61 26.5h129v16q0 22 -9 31t-32 9h-145v56zM269 532h-110q-31 0 -31 -39t31 -39h88q15 0 18.5 3.5t3.5 18.5v56zM65 275v62h266v-62h-266z" />
    <glyph glyph-name="guillemotleft" unicode="&#xab;" horiz-adv-x="537" 
d="M298 473l-113 -162q-12 -21 -12 -30q0 -16 12 -30l113 -162l-80 -59l-137 190q-21 30 -21 61t21 61l137 191zM477 413l-83 -108q-12 -15 -12 -24q0 -3 12 -24l83 -120l-80 -59l-110 152q-21 29 -21 51t21 51l110 141z" />
    <glyph glyph-name="logicalnot" unicode="&#xac;" horiz-adv-x="534" 
d="M474 359v-227h-90v142h-324v85h414z" />
    <glyph glyph-name="uni00AD" unicode="&#xad;" horiz-adv-x="437" 
d="M40 218v103h357v-103h-357z" />
    <glyph glyph-name="registered" unicode="&#xae;" horiz-adv-x="569" 
d="M279 265q-116 0 -167.5 52.5t-51.5 173.5q0 120 48.5 172.5t177.5 52.5q118 0 170.5 -50t52.5 -175q0 -123 -51 -174.5t-179 -51.5zM278 319q88 0 129.5 39.5t41.5 132.5q0 91 -33 131t-128 40q-89 0 -128.5 -38t-39.5 -133q0 -88 33 -130t125 -42zM232 380h-61v199
q0 37 45 37h116q35 0 50 -19.5t15 -63.5q0 -72 -50 -72h-21l75 -81h-75l-60 69q-7 7 -7 25q0 26 22 26h22q19 0 25 8t6 25t-6 25t-25 8h-51q-11 0 -15.5 -3.5t-4.5 -16.5v-166z" />
    <glyph glyph-name="macron" unicode="&#xaf;" horiz-adv-x="420" 
d="M380 600h-340v84h340v-84z" />
    <glyph glyph-name="degree" unicode="&#xb0;" horiz-adv-x="340" 
d="M60 663q0 45 32.5 77.5t77.5 32.5q44 0 77 -33t33 -77q0 -45 -32.5 -77.5t-77.5 -32.5q-46 0 -78 32t-32 78zM127 705q-17 -17 -17 -42t17.5 -42.5t42.5 -17.5t42.5 17.5t17.5 42.5t-17.5 42.5t-42.5 17.5t-43 -18z" />
    <glyph glyph-name="plusminus" unicode="&#xb1;" horiz-adv-x="580" 
d="M336 198h-91v184h-185v85h185v184h91v-184h184v-85h-184v-184zM520 67h-460v85h460v-85z" />
    <glyph glyph-name="twosuperior" unicode="&#xb2;" horiz-adv-x="412" 
d="M83 297q-43 0 -43 53q0 40 27 58l184 122q17 12 21.5 19t4.5 28q0 23 -10 32.5t-39 9.5h-162v81h204q53 0 77.5 -24.5t24.5 -83.5q0 -41 -10.5 -67.5t-39.5 -44.5l-140 -92q-5 -5 -5 -7q0 -4 4 -4h176v-80h-274z" />
    <glyph glyph-name="threesuperior" unicode="&#xb3;" horiz-adv-x="394" 
d="M40 297v81h165q30 0 43 10t13 32t-13 32t-43 10h-156v79h152q53 0 53 40q0 39 -53 39h-155v80h204q100 0 100 -106q0 -40 -15 -62.5t-52 -27.5v-4q39 -3 55 -24t16 -67q0 -56 -22 -84t-78 -28h-214z" />
    <glyph glyph-name="acute" unicode="&#xb4;" horiz-adv-x="301" 
d="M201 767l64 -75l-166 -132l-63 74z" />
    <glyph glyph-name="mu" unicode="&#xb5;" horiz-adv-x="608" 
d="M60 -178v708h117v-327q0 -57 35 -88.5t90 -31.5q50 0 89.5 31t39.5 86v330h117v-530h-113v72q-43 -78 -134 -78q-88 0 -129 71v-243h-112z" />
    <glyph glyph-name="paragraph" unicode="&#xb6;" horiz-adv-x="727" 
d="M617 -170h-107v767h-67v-767h-108v459h-74q-104 0 -152.5 50t-48.5 156t48.5 155.5t152.5 49.5h426v-103h-70v-767zM335 392v205h-74q-47 0 -68.5 -22t-21.5 -80t21.5 -80.5t68.5 -22.5h74z" />
    <glyph glyph-name="periodcentered" unicode="&#xb7;" horiz-adv-x="242" 
d="M182 250h-122v129h122v-129z" />
    <glyph glyph-name="cedilla" unicode="&#xb8;" horiz-adv-x="258" 
d="M40 -190v56h78q28 0 28 17q0 16 -26 16h-37q-33 0 -33 24q0 8 7 24l26 53h60l-16 -32q0 -1 -2 -4l-1 -4q0 -5 8 -5h13q33 0 53 -17t20 -53q0 -75 -82 -75h-96z" />
    <glyph glyph-name="onesuperior" unicode="&#xb9;" horiz-adv-x="226" 
d="M76 296v293q0 30 -20 30h-46v81h106q22 0 36 -14t14 -36v-354h-90z" />
    <glyph glyph-name="ordmasculine" unicode="&#xba;" horiz-adv-x="440" 
d="M97 676q38 39 123 39t122.5 -38.5t37.5 -121.5t-37.5 -121t-122.5 -38t-122.5 38t-37.5 121t37 121zM146 631q-21 -23 -21 -76t21.5 -76t73.5 -23t73.5 23t21.5 76t-21.5 76.5t-73.5 23.5t-74 -24zM64 283v62h312v-62h-312z" />
    <glyph glyph-name="guillemotright" unicode="&#xbb;" horiz-adv-x="537" 
d="M239 473l80 60l137 -191q21 -30 21 -61t-21 -61l-137 -190l-80 59l113 162q12 14 12 30q0 9 -12 30zM60 413l80 60l110 -141q21 -29 21 -51t-21 -51l-110 -152l-80 59l83 120q12 21 12 24q0 9 -12 24z" />
    <glyph glyph-name="onequarter" unicode="&#xbc;" horiz-adv-x="793" 
d="M121 0l357 700h88l-357 -700h-88zM596 0v62h-201q-25 0 -37.5 18.5t-12.5 42.5q0 31 21 52l196 210q21 24 64 24q55 0 55 -44v-234h52v-69h-52v-62h-85zM596 131v177q0 6 -3 6q-2 0 -10 -8l-146 -158q-7 -7 -7 -10q0 -7 11 -7h155zM126 296v293q0 30 -20 30h-46v81h106
q22 0 36 -14t14 -36v-354h-90z" />
    <glyph glyph-name="onehalf" unicode="&#xbd;" horiz-adv-x="833" 
d="M121 0l357 700h88l-357 -700h-88zM126 296v293q0 30 -20 30h-46v81h106q22 0 36 -14t14 -36v-354h-90zM484 0q-43 0 -43 53q0 40 27 58l184 122q17 12 21.5 19t4.5 28q0 23 -10 32.5t-39 9.5h-162v81h204q53 0 77.5 -24.5t24.5 -83.5q0 -41 -10.5 -67.5t-39.5 -44.5
l-140 -92q-5 -5 -5 -7q0 -4 4 -4h176v-80h-274z" />
    <glyph glyph-name="threequarters" unicode="&#xbe;" horiz-adv-x="933" 
d="M261 0l357 700h88l-357 -700h-88zM60 297v81h165q30 0 43 10t13 32t-13 32t-43 10h-156v79h152q53 0 53 40q0 39 -53 39h-155v80h204q100 0 100 -106q0 -40 -15 -62.5t-52 -27.5v-4q39 -3 55 -24t16 -67q0 -56 -22 -84t-78 -28h-214zM736 0v62h-201q-25 0 -37.5 18.5
t-12.5 42.5q0 31 21 52l196 210q21 24 64 24q55 0 55 -44v-234h52v-69h-52v-62h-85zM736 131v177q0 6 -3 6q-2 0 -10 -8l-146 -158q-7 -7 -7 -10q0 -7 11 -7h155z" />
    <glyph glyph-name="questiondown" unicode="&#xbf;" horiz-adv-x="484" 
d="M369 700v-124h-122v124h122zM247 505h122v-58q0 -44 -18.5 -70t-57.5 -49l-65 -39q-29 -16 -42.5 -35.5t-13.5 -60.5q0 -47 18.5 -67.5t60.5 -20.5h213v-105h-263q-84 0 -122.5 39.5t-38.5 132.5q0 55 16 93.5t70 71.5l77 47q44 26 44 66v55z" />
    <glyph glyph-name="Agrave" unicode="&#xc0;" horiz-adv-x="726" 
d="M-16 0l264 629q19 45 43.5 62t71.5 17q45 0 70.5 -17.5t44.5 -61.5l264 -629h-139l-72 177h-337l-71 -177h-139zM343 556l-115 -285h269l-114 285q-11 29 -20 29t-20 -29zM292 947l165 -133l-63 -74l-166 132z" />
    <glyph glyph-name="Aacute" unicode="&#xc1;" horiz-adv-x="726" 
d="M-16 0l264 629q19 45 43.5 62t71.5 17q45 0 70.5 -17.5t44.5 -61.5l264 -629h-139l-72 177h-337l-71 -177h-139zM343 556l-115 -285h269l-114 285q-11 29 -20 29t-20 -29zM423 947l64 -75l-166 -132l-63 74z" />
    <glyph glyph-name="Acircumflex" unicode="&#xc2;" horiz-adv-x="726" 
d="M-16 0l264 629q19 45 43.5 62t71.5 17q45 0 70.5 -17.5t44.5 -61.5l264 -629h-139l-72 177h-337l-71 -177h-139zM343 556l-115 -285h269l-114 285q-11 29 -20 29t-20 -29zM506 740l-117 93q-16 12 -25 12q-11 0 -26 -12l-117 -93l-52 62l146 113q24 18 48 18q26 0 48 -18
l147 -113z" />
    <glyph glyph-name="Atilde" unicode="&#xc3;" horiz-adv-x="726" 
d="M-16 0l264 629q19 45 43.5 62t71.5 17q45 0 70.5 -17.5t44.5 -61.5l264 -629h-139l-72 177h-337l-71 -177h-139zM343 556l-115 -285h269l-114 285q-11 29 -20 29t-20 -29zM218 755l-51 36q19 37 49.5 60t66.5 23q31 0 65 -18l40 -20q41 -19 56 -19q23 0 37.5 13.5
t27.5 40.5l51 -33q-20 -38 -50.5 -63.5t-65.5 -25.5q-40 0 -72 17l-34 18q-36 19 -55 19q-39 0 -65 -48z" />
    <glyph glyph-name="Adieresis" unicode="&#xc4;" horiz-adv-x="726" 
d="M-16 0l264 629q19 45 43.5 62t71.5 17q45 0 70.5 -17.5t44.5 -61.5l264 -629h-139l-72 177h-337l-71 -177h-139zM343 556l-115 -285h269l-114 285q-11 29 -20 29t-20 -29zM534 760h-120v110h120v-110zM312 760h-120v110h120v-110z" />
    <glyph glyph-name="Aring" unicode="&#xc5;" horiz-adv-x="726" 
d="M-16 0l264 629q19 45 43.5 62t71.5 17q45 0 70.5 -17.5t44.5 -61.5l264 -629h-139l-72 177h-337l-71 -177h-139zM343 556l-115 -285h269l-114 285q-11 29 -20 29t-20 -29zM364 959q59 0 87 -28t28 -86t-28 -86t-87 -28q-116 0 -116 114t116 114zM364 786q55 0 55 59
t-55 59q-56 0 -56 -59t56 -59z" />
    <glyph glyph-name="AE" unicode="&#xc6;" horiz-adv-x="1074" 
d="M1044 105v-105h-459q-102 0 -102 105v71h-254l-101 -176h-148l391 646q33 54 113 54h556v-105h-375q-30 0 -40 -10t-10 -40v-135h415v-105h-415v-150q0 -30 10 -40t40 -10h379zM455 566l-169 -291h197v320q-9 -2 -14 -7.5t-14 -21.5z" />
    <glyph glyph-name="Ccedilla" unicode="&#xc7;" horiz-adv-x="659" 
d="M332 -190v56h78q28 0 28 17q0 16 -26 16h-37q-33 0 -33 24q0 8 7 24l26 53h-38q-87 0 -147 25.5t-92 75t-45 109.5t-13 140t13 140t45 109.5t92 75t147 25.5h281v-105h-219q-128 0 -175.5 -51.5t-47.5 -193.5t47.5 -193.5t175.5 -51.5h230v-105h-194l-16 -32q0 -1 -2 -4
q-1 -3 -1 -4q0 -5 8 -5h13q33 0 53 -17t20 -53q0 -75 -82 -75h-96z" />
    <glyph glyph-name="Egrave" unicode="&#xc8;" horiz-adv-x="651" 
d="M621 105v-105h-459q-102 0 -102 105v490q0 105 102 105h455v-105h-375q-30 0 -40 -10t-10 -40v-135h415v-105h-415v-150q0 -30 10 -40t40 -10h379zM275 947l165 -133l-63 -74l-166 132z" />
    <glyph glyph-name="Eacute" unicode="&#xc9;" horiz-adv-x="651" 
d="M621 105v-105h-459q-102 0 -102 105v490q0 105 102 105h455v-105h-375q-30 0 -40 -10t-10 -40v-135h415v-105h-415v-150q0 -30 10 -40t40 -10h379zM376 947l64 -75l-166 -132l-63 74z" />
    <glyph glyph-name="Ecircumflex" unicode="&#xca;" horiz-adv-x="651" 
d="M621 105v-105h-459q-102 0 -102 105v490q0 105 102 105h455v-105h-375q-30 0 -40 -10t-10 -40v-135h415v-105h-415v-150q0 -30 10 -40t40 -10h379zM486 740l-117 93q-16 12 -25 12q-11 0 -26 -12l-117 -93l-52 62l146 113q24 18 48 18q26 0 48 -18l147 -113z" />
    <glyph glyph-name="Edieresis" unicode="&#xcb;" horiz-adv-x="651" 
d="M621 105v-105h-459q-102 0 -102 105v490q0 105 102 105h455v-105h-375q-30 0 -40 -10t-10 -40v-135h415v-105h-415v-150q0 -30 10 -40t40 -10h379zM514 760h-120v110h120v-110zM292 760h-120v110h120v-110z" />
    <glyph glyph-name="Igrave" unicode="&#xcc;" horiz-adv-x="252" 
d="M192 0h-132v700h132v-700zM75 947l165 -133l-63 -74l-166 132z" />
    <glyph glyph-name="Iacute" unicode="&#xcd;" horiz-adv-x="252" 
d="M192 0h-132v700h132v-700zM176 947l64 -75l-166 -132l-63 74z" />
    <glyph glyph-name="Icircumflex" unicode="&#xce;" horiz-adv-x="252" 
d="M192 0h-132v700h132v-700zM268 740l-117 93q-16 12 -25 12q-11 0 -26 -12l-117 -93l-52 62l146 113q24 18 48 18q26 0 48 -18l147 -113z" />
    <glyph glyph-name="Idieresis" unicode="&#xcf;" horiz-adv-x="264" 
d="M198 0h-132v700h132v-700zM294 760h-116v110h116v-110zM86 760h-116v110h116v-110z" />
    <glyph glyph-name="Eth" unicode="&#xd0;" horiz-adv-x="769" 
d="M471 0h-289q-102 0 -102 105v196h-80v93h80v201q0 105 102 105h271q69 0 120 -20.5t80.5 -53t47 -80.5t23 -93.5t5.5 -102.5q0 -56 -5.5 -102t-22 -94t-44 -80.5t-75 -53t-111.5 -20.5zM407 595h-145q-30 0 -40 -10t-10 -40v-151h146v-93h-146v-146q0 -30 10 -40t40 -10
h145q58 0 96 17.5t57 53.5t26 76t7 98t-7 98t-26 76t-57 53.5t-96 17.5z" />
    <glyph glyph-name="Ntilde" unicode="&#xd1;" horiz-adv-x="790" 
d="M730 700v-609q0 -50 -29 -74.5t-75 -24.5q-76 0 -113 59l-295 466q-12 17 -16 17q-14 0 -14 -20v-514h-128v613q0 45 28.5 70t78.5 25q77 0 111 -55l297 -469q1 -2 3 -5.5t3.5 -5.5t4 -4t5.5 -2q11 0 11 17v516h128zM249 755l-61 36q43 83 126 83q31 0 65 -18l40 -20
q41 -19 56 -19t28 8.5t19.5 18t17.5 27.5l61 -33q-46 -89 -126 -89q-40 0 -72 17l-34 18q-36 19 -55 19q-33 0 -65 -48z" />
    <glyph glyph-name="Ograve" unicode="&#xd2;" horiz-adv-x="799" 
d="M399 708q102 0 167 -16t110 -57t64 -109.5t19 -175.5t-19 -175.5t-64 -109.5t-110 -57t-167 -16q-101 0 -166 16t-110 57t-64 109.5t-19 175.5t19 175.5t64 109.5t110 57t166 16zM222 551q-46 -52 -46 -201t46.5 -201t176.5 -52t177 52t47 201t-47 201t-177 52t-177 -52z
M349 947l165 -133l-63 -74l-166 132z" />
    <glyph glyph-name="Oacute" unicode="&#xd3;" horiz-adv-x="799" 
d="M399 708q102 0 167 -16t110 -57t64 -109.5t19 -175.5t-19 -175.5t-64 -109.5t-110 -57t-167 -16q-101 0 -166 16t-110 57t-64 109.5t-19 175.5t19 175.5t64 109.5t110 57t166 16zM222 551q-46 -52 -46 -201t46.5 -201t176.5 -52t177 52t47 201t-47 201t-177 52t-177 -52z
M450 947l64 -75l-166 -132l-63 74z" />
    <glyph glyph-name="Ocircumflex" unicode="&#xd4;" horiz-adv-x="799" 
d="M399 708q102 0 167 -16t110 -57t64 -109.5t19 -175.5t-19 -175.5t-64 -109.5t-110 -57t-167 -16q-101 0 -166 16t-110 57t-64 109.5t-19 175.5t19 175.5t64 109.5t110 57t166 16zM222 551q-46 -52 -46 -201t46.5 -201t176.5 -52t177 52t47 201t-47 201t-177 52t-177 -52z
M542 740l-117 93q-16 12 -25 12q-11 0 -26 -12l-117 -93l-52 62l146 113q24 18 48 18q26 0 48 -18l147 -113z" />
    <glyph glyph-name="Otilde" unicode="&#xd5;" horiz-adv-x="799" 
d="M399 708q102 0 167 -16t110 -57t64 -109.5t19 -175.5t-19 -175.5t-64 -109.5t-110 -57t-167 -16q-101 0 -166 16t-110 57t-64 109.5t-19 175.5t19 175.5t64 109.5t110 57t166 16zM222 551q-46 -52 -46 -201t46.5 -201t176.5 -52t177 52t47 201t-47 201t-177 52t-177 -52z
M254 755l-51 36q19 37 49.5 60t66.5 23q31 0 65 -18l40 -20q41 -19 56 -19q23 0 37.5 13.5t27.5 40.5l51 -33q-20 -38 -50.5 -63.5t-65.5 -25.5q-40 0 -72 17l-34 18q-36 19 -55 19q-39 0 -65 -48z" />
    <glyph glyph-name="Odieresis" unicode="&#xd6;" horiz-adv-x="799" 
d="M399 708q102 0 167 -16t110 -57t64 -109.5t19 -175.5t-19 -175.5t-64 -109.5t-110 -57t-167 -16q-101 0 -166 16t-110 57t-64 109.5t-19 175.5t19 175.5t64 109.5t110 57t166 16zM222 551q-46 -52 -46 -201t46.5 -201t176.5 -52t177 52t47 201t-47 201t-177 52t-177 -52z
M570 760h-120v110h120v-110zM348 760h-120v110h120v-110z" />
    <glyph glyph-name="multiply" unicode="&#xd7;" horiz-adv-x="578" 
d="M492 193l-64 -64l-139 138l-140 -140l-64 65l140 140l-139 138l64 64l139 -138l140 140l65 -65l-141 -139z" />
    <glyph glyph-name="Oslash" unicode="&#xd8;" horiz-adv-x="800" 
d="M399 708q182 0 260 -58l67 66l39 -39l-67 -67q61 -80 61 -260q0 -107 -19 -175.5t-64 -109.5t-110 -57t-167 -16q-184 0 -260 59l-65 -65l-39 40l65 64q-60 79 -60 260q0 107 19 175.5t64 109.5t110 57t166 16zM623 350q0 107 -23 162l-370 -370q46 -45 169 -45
q130 0 177 52t47 201zM176 350q0 -110 22 -162l370 371q-48 44 -169 44q-130 0 -176.5 -52t-46.5 -201z" />
    <glyph glyph-name="Ugrave" unicode="&#xd9;" horiz-adv-x="728" 
d="M536 254v446h132v-446q0 -143 -76.5 -202.5t-227.5 -59.5t-227.5 59.5t-76.5 202.5v446h132v-446q0 -82 41 -119.5t131 -37.5t131 37.5t41 119.5zM303 947l165 -133l-63 -74l-166 132z" />
    <glyph glyph-name="Uacute" unicode="&#xda;" horiz-adv-x="728" 
d="M536 254v446h132v-446q0 -143 -76.5 -202.5t-227.5 -59.5t-227.5 59.5t-76.5 202.5v446h132v-446q0 -82 41 -119.5t131 -37.5t131 37.5t41 119.5zM414 947l64 -75l-166 -132l-63 74z" />
    <glyph glyph-name="Ucircumflex" unicode="&#xdb;" horiz-adv-x="728" 
d="M536 254v446h132v-446q0 -143 -76.5 -202.5t-227.5 -59.5t-227.5 59.5t-76.5 202.5v446h132v-446q0 -82 41 -119.5t131 -37.5t131 37.5t41 119.5zM506 740l-117 93q-16 12 -25 12q-11 0 -26 -12l-117 -93l-52 62l146 113q24 18 48 18q26 0 48 -18l147 -113z" />
    <glyph glyph-name="Udieresis" unicode="&#xdc;" horiz-adv-x="728" 
d="M536 254v446h132v-446q0 -143 -76.5 -202.5t-227.5 -59.5t-227.5 59.5t-76.5 202.5v446h132v-446q0 -82 41 -119.5t131 -37.5t131 37.5t41 119.5zM535 760h-120v110h120v-110zM313 760h-120v110h120v-110z" />
    <glyph glyph-name="Yacute" unicode="&#xdd;" horiz-adv-x="684" 
d="M342 333l220 367h142l-296 -486v-214h-132v214l-296 486h142zM402 947l64 -75l-166 -132l-63 74z" />
    <glyph glyph-name="Thorn" unicode="&#xde;" horiz-adv-x="728" 
d="M60 0v700h132v-115h328q98 0 133 -53.5t35 -161.5t-35 -162t-133 -54h-328v-154h-132zM192 259h260q63 0 81.5 26t18.5 85t-18.5 84.5t-81.5 25.5h-260v-221z" />
    <glyph glyph-name="germandbls" unicode="&#xdf;" horiz-adv-x="603" 
d="M60 0v439q0 128 62 197.5t205 69.5q101 0 151.5 -40.5t50.5 -134.5q0 -127 -94 -141v-4q128 -10 128 -183q0 -103 -40 -153t-140 -50h-102v89h53q59 0 83.5 29t24.5 97t-24 96t-84 28h-50v86h44q81 0 81 98q0 97 -92 97q-140 0 -140 -159v-461h-117z" />
    <glyph glyph-name="agrave" unicode="&#xe0;" horiz-adv-x="565" 
d="M69 530h301q73 0 111 -43t38 -113v-284q0 -90 -90 -90h-267q-132 0 -132 165q0 77 33 121t99 44h240v34q0 76 -74 76h-259v90zM402 240h-195q-56 0 -56 -75t56 -75h165q30 0 30 30v120zM231 767l165 -133l-63 -74l-166 132z" />
    <glyph glyph-name="aacute" unicode="&#xe1;" horiz-adv-x="565" 
d="M69 530h301q73 0 111 -43t38 -113v-284q0 -90 -90 -90h-267q-132 0 -132 165q0 77 33 121t99 44h240v34q0 76 -74 76h-259v90zM402 240h-195q-56 0 -56 -75t56 -75h165q30 0 30 30v120zM332 767l64 -75l-166 -132l-63 74z" />
    <glyph glyph-name="acircumflex" unicode="&#xe2;" horiz-adv-x="565" 
d="M69 530h301q73 0 111 -43t38 -113v-284q0 -90 -90 -90h-267q-132 0 -132 165q0 77 33 121t99 44h240v34q0 76 -74 76h-259v90zM402 240h-195q-56 0 -56 -75t56 -75h165q30 0 30 30v120zM424 560l-117 97q-13 10 -25 10q-13 0 -26 -10l-117 -97l-50 62l144 113
q23 18 48 18q23 0 48 -18l145 -113z" />
    <glyph glyph-name="atilde" unicode="&#xe3;" horiz-adv-x="565" 
d="M69 530h301q73 0 111 -43t38 -113v-284q0 -90 -90 -90h-267q-132 0 -132 165q0 77 33 121t99 44h240v34q0 76 -74 76h-259v90zM402 240h-195q-56 0 -56 -75t56 -75h165q30 0 30 30v120zM136 582l-51 36q19 37 49.5 60t66.5 23q31 0 65 -18l40 -20q41 -19 56 -19
q23 0 37.5 13.5t27.5 40.5l51 -33q-20 -38 -50.5 -63.5t-65.5 -25.5q-40 0 -72 17l-34 18q-36 19 -55 19q-39 0 -65 -48z" />
    <glyph glyph-name="adieresis" unicode="&#xe4;" horiz-adv-x="565" 
d="M69 530h301q73 0 111 -43t38 -113v-284q0 -90 -90 -90h-267q-132 0 -132 165q0 77 33 121t99 44h240v34q0 76 -74 76h-259v90zM402 240h-195q-56 0 -56 -75t56 -75h165q30 0 30 30v120zM335 600v108h108v-108h-108zM227 600h-108v108h108v-108z" />
    <glyph glyph-name="aring" unicode="&#xe5;" horiz-adv-x="565" 
d="M69 530h301q73 0 111 -43t38 -113v-284q0 -90 -90 -90h-267q-132 0 -132 165q0 77 33 121t99 44h240v34q0 76 -74 76h-259v90zM402 240h-195q-56 0 -56 -75t56 -75h165q30 0 30 30v120zM282 788q59 0 87 -28t28 -86t-28 -86t-87 -28q-116 0 -116 114t116 114zM282 615
q55 0 55 59t-55 59q-56 0 -56 -59t56 -59z" />
    <glyph glyph-name="ae" unicode="&#xe6;" horiz-adv-x="935" 
d="M892 0h-304q-75 0 -112 36q-19 -36 -71 -36h-247q-68 0 -100 39.5t-32 121.5q0 77 33 119t99 42h240v34q0 39 -19 61.5t-55 22.5h-259v90h291q70 0 114 -47q62 53 184 53q125 0 190 -43.5t65 -162.5q0 -98 -82 -98h-308q0 -70 22.5 -106t91.5 -36h259v-90zM398 232h-195
q-30 0 -43 -16.5t-13 -54.5t13 -54.5t43 -16.5h165q30 0 30 30v112zM519 322h243q26 0 26 29q0 49 -38 72t-96 23q-75 0 -105 -28t-30 -96z" />
    <glyph glyph-name="ccedilla" unicode="&#xe7;" horiz-adv-x="513" 
d="M236 -190v56h78q28 0 28 17q0 16 -26 16h-37q-33 0 -33 24q0 8 7 24l26 53h-26q-127 0 -177 67.5t-50 198.5q0 130 50 197t177 67h222v-90h-193q-36 0 -61 -9t-39.5 -23t-22.5 -38t-10 -47t-2 -57q0 -43 4 -70.5t17 -54t41.5 -39t72.5 -12.5h205v-90h-148l-16 -32
q0 -1 -2 -4q-1 -3 -1 -4q0 -5 8 -5h13q33 0 53 -17t20 -53q0 -75 -82 -75h-96z" />
    <glyph glyph-name="egrave" unicode="&#xe8;" horiz-adv-x="571" 
d="M524 0h-294q-62 0 -102.5 17t-61.5 53.5t-28.5 81.5t-7.5 114q0 154 58.5 212t197.5 58q124 0 189.5 -45.5t65.5 -164.5q0 -100 -82 -100h-308q0 -69 22.5 -102.5t91.5 -33.5h259v-90zM151 316h243q26 0 26 31q0 49 -38.5 74t-95.5 25q-74 0 -104.5 -30.5t-30.5 -99.5z
M235 767l165 -133l-63 -74l-166 132z" />
    <glyph glyph-name="eacute" unicode="&#xe9;" horiz-adv-x="571" 
d="M524 0h-294q-62 0 -102.5 17t-61.5 53.5t-28.5 81.5t-7.5 114q0 154 58.5 212t197.5 58q124 0 189.5 -45.5t65.5 -164.5q0 -100 -82 -100h-308q0 -69 22.5 -102.5t91.5 -33.5h259v-90zM151 316h243q26 0 26 31q0 49 -38.5 74t-95.5 25q-74 0 -104.5 -30.5t-30.5 -99.5z
M336 767l64 -75l-166 -132l-63 74z" />
    <glyph glyph-name="ecircumflex" unicode="&#xea;" horiz-adv-x="571" 
d="M524 0h-294q-62 0 -102.5 17t-61.5 53.5t-28.5 81.5t-7.5 114q0 154 58.5 212t197.5 58q124 0 189.5 -45.5t65.5 -164.5q0 -100 -82 -100h-308q0 -69 22.5 -102.5t91.5 -33.5h259v-90zM151 316h243q26 0 26 31q0 49 -38.5 74t-95.5 25q-74 0 -104.5 -30.5t-30.5 -99.5z
M428 560l-117 97q-13 10 -25 10q-13 0 -26 -10l-117 -97l-50 62l144 113q23 18 48 18q23 0 48 -18l145 -113z" />
    <glyph glyph-name="edieresis" unicode="&#xeb;" horiz-adv-x="571" 
d="M524 0h-294q-62 0 -102.5 17t-61.5 53.5t-28.5 81.5t-7.5 114q0 154 58.5 212t197.5 58q124 0 189.5 -45.5t65.5 -164.5q0 -100 -82 -100h-308q0 -69 22.5 -102.5t91.5 -33.5h259v-90zM151 316h243q26 0 26 31q0 49 -38.5 74t-95.5 25q-74 0 -104.5 -30.5t-30.5 -99.5z
M339 600v108h108v-108h-108zM231 600h-108v108h108v-108z" />
    <glyph glyph-name="igrave" unicode="&#xec;" horiz-adv-x="197" 
d="M40 0v530h117v-530h-117zM48 767l165 -133l-63 -74l-166 132z" />
    <glyph glyph-name="iacute" unicode="&#xed;" horiz-adv-x="197" 
d="M40 0v530h117v-530h-117zM149 767l64 -75l-166 -132l-63 74z" />
    <glyph glyph-name="icircumflex" unicode="&#xee;" horiz-adv-x="197" 
d="M40 0v530h117v-530h-117zM241 560l-117 97q-13 10 -25 10q-13 0 -26 -10l-117 -97l-50 62l144 113q23 18 48 18q23 0 48 -18l145 -113z" />
    <glyph glyph-name="idieresis" unicode="&#xef;" horiz-adv-x="213" 
d="M48 0v530h117v-530h-117zM133 600v108h94v-108h-94zM80 600h-94v108h94v-108z" />
    <glyph glyph-name="eth" unicode="&#xf0;" horiz-adv-x="562" 
d="M492 730l32 -52l-57 -29q65 -74 65 -190v-369q0 -90 -90 -90h-185q-120 0 -168.5 68t-48.5 198t48 197t169 67h158q-1 51 -27 79l-82 -42l-30 53l67 34q-31 20 -76 24l12 63q74 -6 139 -49zM415 440h-129q-41 0 -67 -12t-38 -38t-16 -53.5t-4 -70.5t4 -70.5t16 -54
t38 -39t67 -12.5h99q30 0 30 30v320z" />
    <glyph glyph-name="ntilde" unicode="&#xf1;" horiz-adv-x="574" 
d="M46 0v440q0 90 90 90h186q98 0 152 -41t54 -140v-349h-117v318q0 62 -26 92t-85 30h-107q-30 0 -30 -30v-410h-117zM141 582l-51 36q19 37 49.5 60t66.5 23q31 0 65 -18l40 -20q41 -19 56 -19q23 0 37.5 13.5t27.5 40.5l51 -33q-20 -38 -50.5 -63.5t-65.5 -25.5
q-40 0 -72 17l-34 18q-36 19 -55 19q-39 0 -65 -48z" />
    <glyph glyph-name="ograve" unicode="&#xf2;" horiz-adv-x="624" 
d="M594 266q0 -154 -66.5 -213t-215.5 -59t-215.5 59t-66.5 213q0 152 67 211t215 59t215 -59t67 -211zM151 266q0 -99 36 -140.5t125 -41.5t125 41.5t36 140.5q0 98 -36 139t-125 41t-125 -41t-36 -139zM261 767l165 -133l-63 -74l-166 132z" />
    <glyph glyph-name="oacute" unicode="&#xf3;" horiz-adv-x="624" 
d="M594 266q0 -154 -66.5 -213t-215.5 -59t-215.5 59t-66.5 213q0 152 67 211t215 59t215 -59t67 -211zM151 266q0 -99 36 -140.5t125 -41.5t125 41.5t36 140.5q0 98 -36 139t-125 41t-125 -41t-36 -139zM362 767l64 -75l-166 -132l-63 74z" />
    <glyph glyph-name="ocircumflex" unicode="&#xf4;" horiz-adv-x="624" 
d="M594 266q0 -154 -66.5 -213t-215.5 -59t-215.5 59t-66.5 213q0 152 67 211t215 59t215 -59t67 -211zM151 266q0 -99 36 -140.5t125 -41.5t125 41.5t36 140.5q0 98 -36 139t-125 41t-125 -41t-36 -139zM454 560l-117 97q-13 10 -25 10q-13 0 -26 -10l-117 -97l-50 62
l144 113q23 18 48 18q23 0 48 -18l145 -113z" />
    <glyph glyph-name="otilde" unicode="&#xf5;" horiz-adv-x="624" 
d="M594 266q0 -154 -66.5 -213t-215.5 -59t-215.5 59t-66.5 213q0 152 67 211t215 59t215 -59t67 -211zM151 266q0 -99 36 -140.5t125 -41.5t125 41.5t36 140.5q0 98 -36 139t-125 41t-125 -41t-36 -139zM166 582l-51 36q19 37 49.5 60t66.5 23q31 0 65 -18l40 -20
q41 -19 56 -19q23 0 37.5 13.5t27.5 40.5l51 -33q-20 -38 -50.5 -63.5t-65.5 -25.5q-40 0 -72 17l-34 18q-36 19 -55 19q-39 0 -65 -48z" />
    <glyph glyph-name="odieresis" unicode="&#xf6;" horiz-adv-x="624" 
d="M594 266q0 -154 -66.5 -213t-215.5 -59t-215.5 59t-66.5 213q0 152 67 211t215 59t215 -59t67 -211zM151 266q0 -99 36 -140.5t125 -41.5t125 41.5t36 140.5q0 98 -36 139t-125 41t-125 -41t-36 -139zM366 600v108h108v-108h-108zM258 600h-108v108h108v-108z" />
    <glyph glyph-name="divide" unicode="&#xf7;" horiz-adv-x="580" 
d="M520 274h-460v85h460v-85zM351 449h-122v126h122v-126zM351 58h-122v126h122v-126z" />
    <glyph glyph-name="oslash" unicode="&#xf8;" horiz-adv-x="612" 
d="M308 536q130 0 194 -43l54 53l36 -38l-51 -50q49 -62 49 -192q0 -154 -66.5 -213t-215.5 -59q-132 0 -197 44l-54 -53l-37 37l53 52q-47 62 -47 192q0 152 67 211t215 59zM469 266q0 67 -16 106l-261 -255q36 -33 116 -33q89 0 125 41.5t36 140.5zM147 266q0 -68 15 -105
l260 254q-37 31 -114 31q-89 0 -125 -41t-36 -139z" />
    <glyph glyph-name="ugrave" unicode="&#xf9;" horiz-adv-x="582" 
d="M536 530v-440q0 -90 -90 -90h-194q-98 0 -152 41t-54 140v349h117v-318q0 -62 26 -92t85 -30h115q30 0 30 30v410h117zM230 767l165 -133l-63 -74l-166 132z" />
    <glyph glyph-name="uacute" unicode="&#xfa;" horiz-adv-x="582" 
d="M536 530v-440q0 -90 -90 -90h-194q-98 0 -152 41t-54 140v349h117v-318q0 -62 26 -92t85 -30h115q30 0 30 30v410h117zM351 767l64 -75l-166 -132l-63 74z" />
    <glyph glyph-name="ucircumflex" unicode="&#xfb;" horiz-adv-x="582" 
d="M536 530v-440q0 -90 -90 -90h-194q-98 0 -152 41t-54 140v349h117v-318q0 -62 26 -92t85 -30h115q30 0 30 30v410h117zM433 560l-117 97q-13 10 -25 10q-13 0 -26 -10l-117 -97l-50 62l144 113q23 18 48 18q23 0 48 -18l145 -113z" />
    <glyph glyph-name="udieresis" unicode="&#xfc;" horiz-adv-x="582" 
d="M536 530v-440q0 -90 -90 -90h-194q-98 0 -152 41t-54 140v349h117v-318q0 -62 26 -92t85 -30h115q30 0 30 30v410h117zM345 600v108h108v-108h-108zM237 600h-108v108h108v-108z" />
    <glyph glyph-name="yacute" unicode="&#xfd;" horiz-adv-x="570" 
d="M580 530l-316 -701h-119l81 173l-236 528h121l170 -407l180 407h119zM345 767l64 -75l-166 -132l-63 74z" />
    <glyph glyph-name="thorn" unicode="&#xfe;" horiz-adv-x="592" 
d="M60 -170v870h117v-170h158q121 0 169 -67t48 -197t-48.5 -198t-168.5 -68h-158v-170h-117zM177 440v-350h129q77 0 101 44t24 132q0 43 -4 70.5t-16 53.5t-38 38t-67 12h-129z" />
    <glyph glyph-name="ydieresis" unicode="&#xff;" horiz-adv-x="570" 
d="M580 530l-316 -701h-119l81 173l-236 528h121l170 -407l180 407h119zM339 600v108h108v-108h-108zM231 600h-108v108h108v-108z" />
    <glyph glyph-name="Amacron" unicode="&#x100;" horiz-adv-x="726" 
d="M-16 0l264 629q19 45 43.5 62t71.5 17q45 0 70.5 -17.5t44.5 -61.5l264 -629h-139l-72 177h-337l-71 -177h-139zM343 556l-115 -285h269l-114 285q-11 29 -20 29t-20 -29zM533 760h-340v94h340v-94z" />
    <glyph glyph-name="amacron" unicode="&#x101;" horiz-adv-x="565" 
d="M69 530h301q73 0 111 -43t38 -113v-284q0 -90 -90 -90h-267q-132 0 -132 165q0 77 33 121t99 44h240v34q0 76 -74 76h-259v90zM402 240h-195q-56 0 -56 -75t56 -75h165q30 0 30 30v120zM451 600h-340v84h340v-84z" />
    <glyph glyph-name="Abreve" unicode="&#x102;" horiz-adv-x="726" 
d="M-16 0l264 629q19 45 43.5 62t71.5 17q45 0 70.5 -17.5t44.5 -61.5l264 -629h-139l-72 177h-337l-71 -177h-139zM343 556l-115 -285h269l-114 285q-11 29 -20 29t-20 -29zM458 880h90q-19 -73 -64 -106.5t-121 -33.5q-150 0 -184 140h90q21 -67 94 -67t95 67z" />
    <glyph glyph-name="abreve" unicode="&#x103;" horiz-adv-x="565" 
d="M69 530h301q73 0 111 -43t38 -113v-284q0 -90 -90 -90h-267q-132 0 -132 165q0 77 33 121t99 44h240v34q0 76 -74 76h-259v90zM402 240h-195q-56 0 -56 -75t56 -75h165q30 0 30 30v120zM376 693h90q-19 -73 -64 -106.5t-121 -33.5q-150 0 -184 140h90q21 -67 94 -67
t95 67z" />
    <glyph glyph-name="Aogonek" unicode="&#x104;" horiz-adv-x="698" 
d="M738 -180h-87q-25 0 -41.5 13.5t-16.5 41.5q0 20 10 37l46 88h-60l-72 177h-337l-71 -177h-139l264 629q19 45 43.5 62t71.5 17q45 0 70.5 -17.5t44.5 -61.5l265 -629l-48 -88q-8 -15 -8 -19q0 -13 23 -13h42v-60zM329 556l-115 -285h269l-114 285q-11 29 -20 29t-20 -29
z" />
    <glyph glyph-name="aogonek" unicode="&#x105;" horiz-adv-x="555" 
d="M435 -180h-87q-25 0 -41.5 13.5t-16.5 41.5q0 20 10 37l46 88h-188q-132 0 -132 165q0 77 33 121t99 44h240v34q0 76 -74 76h-259v90h301q73 0 111 -43t38 -113v-284q0 -90 -89 -90l-48 -88q-8 -15 -8 -19q0 -13 23 -13h42v-60zM398 240h-195q-56 0 -56 -75t56 -75h165
q30 0 30 30v120z" />
    <glyph glyph-name="Cacute" unicode="&#x106;" horiz-adv-x="659" 
d="M629 0h-292q-87 0 -147 25.5t-92 75t-45 109.5t-13 140t13 140t45 109.5t92 75t147 25.5h281v-105h-219q-128 0 -175.5 -51.5t-47.5 -193.5t47.5 -193.5t175.5 -51.5h230v-105zM450 947l64 -75l-166 -132l-63 74z" />
    <glyph glyph-name="cacute" unicode="&#x107;" horiz-adv-x="515" 
d="M479 440h-193q-36 0 -61 -9t-39.5 -23t-22.5 -38t-10 -47t-2 -57q0 -43 4 -70.5t17 -54t41.5 -39t72.5 -12.5h205v-90h-234q-127 0 -177 67.5t-50 198.5q0 130 50 197t177 67h222v-90zM331 767l64 -75l-166 -132l-63 74z" />
    <glyph glyph-name="Ccircumflex" unicode="&#x108;" horiz-adv-x="659" 
d="M629 0h-292q-87 0 -147 25.5t-92 75t-45 109.5t-13 140t13 140t45 109.5t92 75t147 25.5h281v-105h-219q-128 0 -175.5 -51.5t-47.5 -193.5t47.5 -193.5t175.5 -51.5h230v-105zM502 740l-117 93q-16 12 -25 12q-11 0 -26 -12l-117 -93l-52 62l146 113q24 18 48 18
q26 0 48 -18l147 -113z" />
    <glyph glyph-name="ccircumflex" unicode="&#x109;" horiz-adv-x="515" 
d="M479 440h-193q-36 0 -61 -9t-39.5 -23t-22.5 -38t-10 -47t-2 -57q0 -43 4 -70.5t17 -54t41.5 -39t72.5 -12.5h205v-90h-234q-127 0 -177 67.5t-50 198.5q0 130 50 197t177 67h222v-90zM413 560l-117 97q-13 10 -25 10q-13 0 -26 -10l-117 -97l-50 62l144 113q23 18 48 18
q23 0 48 -18l145 -113z" />
    <glyph glyph-name="Cdotaccent" unicode="&#x10a;" horiz-adv-x="659" 
d="M629 0h-292q-87 0 -147 25.5t-92 75t-45 109.5t-13 140t13 140t45 109.5t92 75t147 25.5h281v-105h-219q-128 0 -175.5 -51.5t-47.5 -193.5t47.5 -193.5t175.5 -51.5h230v-105zM432 758h-132v116h132v-116z" />
    <glyph glyph-name="cdotaccent" unicode="&#x10b;" horiz-adv-x="515" 
d="M479 440h-193q-36 0 -61 -9t-39.5 -23t-22.5 -38t-10 -47t-2 -57q0 -43 4 -70.5t17 -54t41.5 -39t72.5 -12.5h205v-90h-234q-127 0 -177 67.5t-50 198.5q0 130 50 197t177 67h222v-90zM221 600v100h119v-100h-119z" />
    <glyph glyph-name="Ccaron" unicode="&#x10c;" horiz-adv-x="659" 
d="M629 0h-292q-87 0 -147 25.5t-92 75t-45 109.5t-13 140t13 140t45 109.5t92 75t147 25.5h281v-105h-219q-128 0 -175.5 -51.5t-47.5 -193.5t47.5 -193.5t175.5 -51.5h230v-105zM502 923l52 -62l-143 -111q-25 -20 -52 -20q-25 0 -52 20l-142 111l52 62l117 -93
q16 -12 26 -12t25 12z" />
    <glyph glyph-name="ccaron" unicode="&#x10d;" horiz-adv-x="515" 
d="M479 440h-193q-36 0 -61 -9t-39.5 -23t-22.5 -38t-10 -47t-2 -57q0 -43 4 -70.5t17 -54t41.5 -39t72.5 -12.5h205v-90h-234q-127 0 -177 67.5t-50 198.5q0 130 50 197t177 67h222v-90zM413 753l50 -62l-145 -113q-24 -18 -48 -18q-25 0 -48 18l-144 113l50 62l117 -95
q17 -12 26 -12t25 12z" />
    <glyph glyph-name="Dcaron" unicode="&#x10e;" horiz-adv-x="749" 
d="M451 0h-289q-102 0 -102 105v490q0 105 102 105h271q69 0 120 -20.5t80.5 -53t47 -80.5t23 -93.5t5.5 -102.5q0 -56 -5.5 -102t-22 -94t-44 -80.5t-75 -53t-111.5 -20.5zM387 595h-145q-30 0 -40 -10t-10 -40v-390q0 -30 10 -40t40 -10h145q58 0 96 17.5t57 53.5t26 76
t7 98t-7 98t-26 76t-57 53.5t-96 17.5zM497 923l52 -62l-143 -111q-25 -20 -52 -20q-25 0 -52 20l-142 111l52 62l117 -93q16 -12 26 -12t25 12z" />
    <glyph glyph-name="dcaron" unicode="&#x10f;" horiz-adv-x="738" 
d="M522 700v-610q0 -90 -90 -90h-185q-120 0 -168.5 68t-48.5 198t48 197t169 67h158v170h117zM405 440h-129q-41 0 -67 -12t-38 -38t-16 -53.5t-4 -70.5t4 -70.5t16 -54t38 -39t67 -12.5h99q30 0 30 30v320zM650 466l-96 37l85 222l103 -41z" />
    <glyph glyph-name="Dcroat" unicode="&#x110;" horiz-adv-x="769" 
d="M471 0h-289q-102 0 -102 105v196h-80v93h80v201q0 105 102 105h271q69 0 120 -20.5t80.5 -53t47 -80.5t23 -93.5t5.5 -102.5q0 -56 -5.5 -102t-22 -94t-44 -80.5t-75 -53t-111.5 -20.5zM407 595h-145q-30 0 -40 -10t-10 -40v-151h146v-93h-146v-146q0 -30 10 -40t40 -10
h145q58 0 96 17.5t57 53.5t26 76t7 98t-7 98t-26 76t-57 53.5t-96 17.5z" />
    <glyph glyph-name="dcroat" unicode="&#x111;" horiz-adv-x="581" 
d="M518 700v-46h73v-61h-73v-503q0 -90 -90 -90h-185q-120 0 -168.5 68t-48.5 198t48 197t169 67h158v63h-152v61h152v46h117zM401 440h-129q-41 0 -67 -12t-38 -38t-16 -53.5t-4 -70.5t4 -70.5t16 -54t38 -39t67 -12.5h99q30 0 30 30v320z" />
    <glyph glyph-name="Emacron" unicode="&#x112;" horiz-adv-x="651" 
d="M621 105v-105h-459q-102 0 -102 105v490q0 105 102 105h455v-105h-375q-30 0 -40 -10t-10 -40v-135h415v-105h-415v-150q0 -30 10 -40t40 -10h379zM521 760h-340v94h340v-94z" />
    <glyph glyph-name="emacron" unicode="&#x113;" horiz-adv-x="571" 
d="M524 0h-294q-62 0 -102.5 17t-61.5 53.5t-28.5 81.5t-7.5 114q0 154 58.5 212t197.5 58q124 0 189.5 -45.5t65.5 -164.5q0 -100 -82 -100h-308q0 -69 22.5 -102.5t91.5 -33.5h259v-90zM151 316h243q26 0 26 31q0 49 -38.5 74t-95.5 25q-74 0 -104.5 -30.5t-30.5 -99.5z
M455 600h-340v84h340v-84z" />
    <glyph glyph-name="Edotaccent" unicode="&#x116;" horiz-adv-x="651" 
d="M621 105v-105h-459q-102 0 -102 105v490q0 105 102 105h455v-105h-375q-30 0 -40 -10t-10 -40v-135h415v-105h-415v-150q0 -30 10 -40t40 -10h379zM418 758h-132v116h132v-116z" />
    <glyph glyph-name="edotaccent" unicode="&#x117;" horiz-adv-x="571" 
d="M524 0h-294q-62 0 -102.5 17t-61.5 53.5t-28.5 81.5t-7.5 114q0 154 58.5 212t197.5 58q124 0 189.5 -45.5t65.5 -164.5q0 -100 -82 -100h-308q0 -69 22.5 -102.5t91.5 -33.5h259v-90zM151 316h243q26 0 26 31q0 49 -38.5 74t-95.5 25q-74 0 -104.5 -30.5t-30.5 -99.5z
M226 600v100h119v-100h-119z" />
    <glyph glyph-name="Eogonek" unicode="&#x118;" horiz-adv-x="651" 
d="M630 -180h-87q-25 0 -41.5 13.5t-16.5 41.5q0 20 10 37l46 88h-379q-102 0 -102 105v490q0 105 102 105h455v-105h-375q-30 0 -40 -10t-10 -40v-135h415v-105h-415v-150q0 -30 10 -40t40 -10h379v-105l-48 -88q-8 -15 -8 -19q0 -13 23 -13h42v-60z" />
    <glyph glyph-name="eogonek" unicode="&#x119;" horiz-adv-x="563" 
d="M529 -180h-87q-25 0 -41.5 13.5t-16.5 41.5q0 20 10 37l46 88h-214q-62 0 -102.5 17t-61.5 53.5t-28.5 81.5t-7.5 114q0 154 58.5 212t197.5 58q124 0 189.5 -45.5t65.5 -164.5q0 -100 -82 -100h-308q0 -69 22.5 -102.5t91.5 -33.5h259v-90l-48 -88q-8 -15 -8 -19
q0 -13 23 -13h42v-60zM147 316h243q26 0 26 31q0 49 -38.5 74t-95.5 25q-74 0 -104.5 -30.5t-30.5 -99.5z" />
    <glyph glyph-name="Ecaron" unicode="&#x11a;" horiz-adv-x="651" 
d="M621 105v-105h-459q-102 0 -102 105v490q0 105 102 105h455v-105h-375q-30 0 -40 -10t-10 -40v-135h415v-105h-415v-150q0 -30 10 -40t40 -10h379zM496 923l52 -62l-143 -111q-25 -20 -52 -20q-25 0 -52 20l-142 111l52 62l117 -93q16 -12 26 -12t25 12z" />
    <glyph glyph-name="ecaron" unicode="&#x11b;" horiz-adv-x="571" 
d="M524 0h-294q-62 0 -102.5 17t-61.5 53.5t-28.5 81.5t-7.5 114q0 154 58.5 212t197.5 58q124 0 189.5 -45.5t65.5 -164.5q0 -100 -82 -100h-308q0 -69 22.5 -102.5t91.5 -33.5h259v-90zM151 316h243q26 0 26 31q0 49 -38.5 74t-95.5 25q-74 0 -104.5 -30.5t-30.5 -99.5z
M428 753l50 -62l-145 -113q-24 -18 -48 -18q-25 0 -48 18l-144 113l50 62l117 -95q17 -12 26 -12t25 12z" />
    <glyph glyph-name="Gcircumflex" unicode="&#x11c;" horiz-adv-x="727" 
d="M671 595h-272q-128 0 -175.5 -51.5t-47.5 -193.5t47.5 -193.5t175.5 -51.5h106q30 0 40 10t10 40v188h132v-238q0 -105 -102 -105h-248q-87 0 -147 25.5t-92 75t-45 109.5t-13 140t13 140t45 109.5t92 75t147 25.5h334v-105zM526 740l-117 93q-16 12 -25 12
q-11 0 -26 -12l-117 -93l-52 62l146 113q24 18 48 18q26 0 48 -18l147 -113z" />
    <glyph glyph-name="gcircumflex" unicode="&#x11d;" horiz-adv-x="580" 
d="M417 0h-170q-120 0 -168.5 68t-48.5 198t48 197t169 67h197q90 0 90 -90v-399q0 -113 -54.5 -164.5t-174.5 -51.5h-238v90h238q100 0 112 85zM387 440h-111q-41 0 -67 -12t-38 -38t-16 -53.5t-4 -70.5t4 -70.5t16 -54t38 -39t67 -12.5h141v320q0 30 -30 30zM431 560
l-117 97q-13 10 -25 10q-13 0 -26 -10l-117 -97l-50 62l144 113q23 18 48 18q23 0 48 -18l145 -113z" />
    <glyph glyph-name="Gbreve" unicode="&#x11e;" horiz-adv-x="727" 
d="M671 595h-272q-128 0 -175.5 -51.5t-47.5 -193.5t47.5 -193.5t175.5 -51.5h106q30 0 40 10t10 40v188h132v-238q0 -105 -102 -105h-248q-87 0 -147 25.5t-92 75t-45 109.5t-13 140t13 140t45 109.5t92 75t147 25.5h334v-105zM478 870h90q-19 -73 -64 -106.5t-121 -33.5
q-150 0 -184 140h90q21 -67 94 -67t95 67z" />
    <glyph glyph-name="gbreve" unicode="&#x11f;" horiz-adv-x="580" 
d="M417 0h-170q-120 0 -168.5 68t-48.5 198t48 197t169 67h197q90 0 90 -90v-399q0 -113 -54.5 -164.5t-174.5 -51.5h-238v90h238q100 0 112 85zM387 440h-111q-41 0 -67 -12t-38 -38t-16 -53.5t-4 -70.5t4 -70.5t16 -54t38 -39t67 -12.5h141v320q0 30 -30 30zM383 693h90
q-19 -73 -64 -106.5t-121 -33.5q-150 0 -184 140h90q21 -67 94 -67t95 67z" />
    <glyph glyph-name="Gdotaccent" unicode="&#x120;" horiz-adv-x="727" 
d="M671 595h-272q-128 0 -175.5 -51.5t-47.5 -193.5t47.5 -193.5t175.5 -51.5h106q30 0 40 10t10 40v188h132v-238q0 -105 -102 -105h-248q-87 0 -147 25.5t-92 75t-45 109.5t-13 140t13 140t45 109.5t92 75t147 25.5h334v-105zM488 758h-132v116h132v-116z" />
    <glyph glyph-name="gdotaccent" unicode="&#x121;" horiz-adv-x="580" 
d="M417 0h-170q-120 0 -168.5 68t-48.5 198t48 197t169 67h197q90 0 90 -90v-399q0 -113 -54.5 -164.5t-174.5 -51.5h-238v90h238q100 0 112 85zM387 440h-111q-41 0 -67 -12t-38 -38t-16 -53.5t-4 -70.5t4 -70.5t16 -54t38 -39t67 -12.5h141v320q0 30 -30 30zM246 600v100
h119v-100h-119z" />
    <glyph glyph-name="Gcommaaccent" unicode="&#x122;" horiz-adv-x="727" 
d="M671 595h-272q-128 0 -175.5 -51.5t-47.5 -193.5t47.5 -193.5t175.5 -51.5h106q30 0 40 10t10 40v188h132v-238q0 -105 -102 -105h-248q-87 0 -147 25.5t-92 75t-45 109.5t-13 140t13 140t45 109.5t92 75t147 25.5h334v-105zM385 -289l-96 37l85 222l103 -41z" />
    <glyph glyph-name="gcommaaccent" unicode="&#x123;" horiz-adv-x="580" 
d="M417 0h-170q-120 0 -168.5 68t-48.5 198t48 197t169 67h197q90 0 90 -90v-399q0 -113 -54.5 -164.5t-174.5 -51.5h-238v90h238q100 0 112 85zM387 440h-111q-41 0 -67 -12t-38 -38t-16 -53.5t-4 -70.5t4 -70.5t16 -54t38 -39t67 -12.5h141v320q0 30 -30 30zM308 819
l96 -37l-85 -222l-103 41z" />
    <glyph glyph-name="Hcircumflex" unicode="&#x124;" horiz-adv-x="748" 
d="M688 700v-700h-132v308h-364v-308h-132v700h132v-287h364v287h132zM517 740l-117 93q-16 12 -25 12q-11 0 -26 -12l-117 -93l-52 62l146 113q24 18 48 18q26 0 48 -18l147 -113z" />
    <glyph glyph-name="hcircumflex" unicode="&#x125;" horiz-adv-x="574" 
d="M46 0v700h117v-170h159q98 0 152 -41t54 -140v-349h-117v318q0 62 -26 92t-85 30h-137v-440h-117zM253 700l-117 97q-13 10 -25 10q-13 0 -26 -10l-117 -97l-50 62l144 113q23 18 48 18q23 0 48 -18l145 -113z" />
    <glyph glyph-name="Hbar" unicode="&#x126;" horiz-adv-x="808" 
d="M0 507v103h90v90h132v-90h364v90h132v-90h90v-103h-90v-507h-132v308h-364v-308h-132v507h-90zM222 413h364v94h-364v-94z" />
    <glyph glyph-name="hbar" unicode="&#x127;" horiz-adv-x="600" 
d="M78 0v590h-78v66h78v44h117v-44h155v-66h-155v-60h159q98 0 152 -41t54 -140v-349h-117v318q0 62 -26 92t-85 30h-137v-440h-117z" />
    <glyph glyph-name="Imacron" unicode="&#x12a;" horiz-adv-x="252" 
d="M192 0h-132v700h132v-700zM296 760h-340v94h340v-94z" />
    <glyph glyph-name="imacron" unicode="&#x12b;" horiz-adv-x="197" 
d="M40 0v530h117v-530h-117zM268 600h-340v84h340v-84z" />
    <glyph glyph-name="Iogonek" unicode="&#x12e;" horiz-adv-x="265" 
d="M196 700v-700l-48 -88q-8 -15 -8 -19q0 -13 23 -13h42v-60h-87q-23 0 -40.5 15t-17.5 40q0 20 10 37l46 88h-52v700h132z" />
    <glyph glyph-name="iogonek" unicode="&#x12f;" horiz-adv-x="225" 
d="M176 530v-530l-48 -88q-8 -15 -8 -19q0 -13 23 -13h42v-60h-87q-22 -4 -41 13t-17 42q0 20 10 37l46 88h-37v530h117zM176 607h-117v93h117v-93z" />
    <glyph glyph-name="Idotaccent" unicode="&#x130;" horiz-adv-x="252" 
d="M192 0h-132v700h132v-700zM192 758h-132v116h132v-116z" />
    <glyph glyph-name="dotlessi" unicode="&#x131;" horiz-adv-x="197" 
d="M40 0v530h117v-530h-117z" />
    <glyph glyph-name="Jcircumflex" unicode="&#x134;" horiz-adv-x="465" 
d="M0 0v105h115q83 0 120.5 39.5t37.5 125.5v430h132v-465q0 -106 -58 -170.5t-168 -64.5h-179zM475 740l-117 93q-16 12 -25 12q-11 0 -26 -12l-117 -93l-52 62l146 113q24 18 48 18q26 0 48 -18l147 -113z" />
    <glyph glyph-name="jcircumflex" unicode="&#x135;" horiz-adv-x="281" 
d="M-40 -178v90q8 -1 17 -1q70 0 105.5 27.5t35.5 98.5v493h117v-507q0 -113 -62.5 -157.5t-177.5 -44.5q-23 0 -35 1zM313 560l-117 97q-13 10 -25 10q-13 0 -26 -10l-117 -97l-50 62l144 113q23 18 48 18q23 0 48 -18l145 -113z" />
    <glyph glyph-name="Kcommaaccent" unicode="&#x136;" horiz-adv-x="710" 
d="M730 0h-170l-293 267q-36 32 -36 93q0 44 34 78l265 262h164l-303 -287q-2 -2 -9.5 -9t-9.5 -9.5t-6.5 -9t-6 -12t-1.5 -12.5q0 -29 41 -64zM60 0v700h132v-700h-132zM332 -289l-96 37l85 222l103 -41z" />
    <glyph glyph-name="kcommaaccent" unicode="&#x137;" horiz-adv-x="543" 
d="M557 0h-144l-178 190q-37 42 -37 84q0 41 37 80l160 176h136l-199 -214q-17 -17 -17 -38q0 -20 25 -47zM163 0h-117v700h117v-700zM248 -279l-96 37l85 222l103 -41z" />
    <glyph glyph-name="Lacute" unicode="&#x139;" horiz-adv-x="618" 
d="M618 0h-456q-102 0 -102 105v595h132v-545q0 -30 10 -40t40 -10h376v-105zM349 947l64 -75l-166 -132l-63 74z" />
    <glyph glyph-name="lacute" unicode="&#x13a;" horiz-adv-x="209" 
d="M46 0v700h117v-700h-117zM155 927l64 -75l-166 -132l-63 74z" />
    <glyph glyph-name="Lcommaaccent" unicode="&#x13b;" horiz-adv-x="618" 
d="M618 0h-456q-102 0 -102 105v595h132v-545q0 -30 10 -40t40 -10h376v-105zM356 -289l-96 37l85 222l103 -41z" />
    <glyph glyph-name="lcommaaccent" unicode="&#x13c;" horiz-adv-x="209" 
d="M46 0v700h117v-700h-117zM101 -279l-96 37l85 222l103 -41z" />
    <glyph glyph-name="Lcaron" unicode="&#x13d;" horiz-adv-x="618" 
d="M618 0h-456q-102 0 -102 105v595h132v-545q0 -30 10 -40t40 -10h376v-105zM416 464l-96 37l85 222l103 -41z" />
    <glyph glyph-name="lcaron" unicode="&#x13e;" horiz-adv-x="379" 
d="M46 0v700h117v-700h-117zM291 466l-96 37l85 222l103 -41z" />
    <glyph glyph-name="Ldot" unicode="&#x13f;" horiz-adv-x="618" 
d="M618 0h-456q-102 0 -102 105v595h132v-545q0 -30 10 -40t40 -10h376v-105zM492 344h-132v116h132v-116z" />
    <glyph glyph-name="ldot" unicode="&#x140;" horiz-adv-x="334" 
d="M46 0v700h117v-700h-117zM209 310v100h119v-100h-119z" />
    <glyph glyph-name="Lslash" unicode="&#x141;" horiz-adv-x="651" 
d="M651 0h-456q-102 0 -102 105v131l-66 -49l-37 49l103 78v386h132v-290l193 146l37 -49l-230 -174v-178q0 -30 10 -40t40 -10h376v-105z" />
    <glyph glyph-name="lslash" unicode="&#x142;" horiz-adv-x="338" 
d="M103 0v264l-64 -49l-39 51l103 80v354h117v-263l88 68l40 -51l-128 -99v-355h-117z" />
    <glyph glyph-name="Nacute" unicode="&#x143;" horiz-adv-x="790" 
d="M730 700v-609q0 -50 -29 -74.5t-75 -24.5q-76 0 -113 59l-295 466q-12 17 -16 17q-14 0 -14 -20v-514h-128v613q0 45 28.5 70t78.5 25q77 0 111 -55l297 -469q1 -2 3 -5.5t3.5 -5.5t4 -4t5.5 -2q11 0 11 17v516h128zM465 947l64 -75l-166 -132l-63 74z" />
    <glyph glyph-name="nacute" unicode="&#x144;" horiz-adv-x="574" 
d="M46 0v440q0 90 90 90h186q98 0 152 -41t54 -140v-349h-117v318q0 62 -26 92t-85 30h-107q-30 0 -30 -30v-410h-117zM337 767l64 -75l-166 -132l-63 74z" />
    <glyph glyph-name="Ncommaaccent" unicode="&#x145;" horiz-adv-x="790" 
d="M730 700v-609q0 -50 -29 -74.5t-75 -24.5q-76 0 -113 59l-295 466q-12 17 -16 17q-14 0 -14 -20v-514h-128v613q0 45 28.5 70t78.5 25q77 0 111 -55l297 -469q1 -2 3 -5.5t3.5 -5.5t4 -4t5.5 -2q11 0 11 17v516h128zM372 -289l-96 37l85 222l103 -41z" />
    <glyph glyph-name="ncommaaccent" unicode="&#x146;" horiz-adv-x="574" 
d="M46 0v440q0 90 90 90h186q98 0 152 -41t54 -140v-349h-117v318q0 62 -26 92t-85 30h-107q-30 0 -30 -30v-410h-117zM264 -279l-96 37l85 222l103 -41z" />
    <glyph glyph-name="Ncaron" unicode="&#x147;" horiz-adv-x="790" 
d="M730 700v-609q0 -50 -29 -74.5t-75 -24.5q-76 0 -113 59l-295 466q-12 17 -16 17q-14 0 -14 -20v-514h-128v613q0 45 28.5 70t78.5 25q77 0 111 -55l297 -469q1 -2 3 -5.5t3.5 -5.5t4 -4t5.5 -2q11 0 11 17v516h128zM537 923l52 -62l-143 -111q-25 -20 -52 -20
q-25 0 -52 20l-142 111l52 62l117 -93q16 -12 26 -12t25 12z" />
    <glyph glyph-name="ncaron" unicode="&#x148;" horiz-adv-x="574" 
d="M46 0v440q0 90 90 90h186q98 0 152 -41t54 -140v-349h-117v318q0 62 -26 92t-85 30h-107q-30 0 -30 -30v-410h-117zM429 753l50 -62l-145 -113q-24 -18 -48 -18q-26 0 -48 18l-144 113l50 62l117 -95q17 -12 26 -12t25 12z" />
    <glyph glyph-name="Omacron" unicode="&#x14c;" horiz-adv-x="799" 
d="M399 708q102 0 167 -16t110 -57t64 -109.5t19 -175.5t-19 -175.5t-64 -109.5t-110 -57t-167 -16q-101 0 -166 16t-110 57t-64 109.5t-19 175.5t19 175.5t64 109.5t110 57t166 16zM222 551q-46 -52 -46 -201t46.5 -201t176.5 -52t177 52t47 201t-47 201t-177 52t-177 -52z
M569 760h-340v94h340v-94z" />
    <glyph glyph-name="omacron" unicode="&#x14d;" horiz-adv-x="624" 
d="M594 266q0 -154 -66.5 -213t-215.5 -59t-215.5 59t-66.5 213q0 152 67 211t215 59t215 -59t67 -211zM151 266q0 -99 36 -140.5t125 -41.5t125 41.5t36 140.5q0 98 -36 139t-125 41t-125 -41t-36 -139zM482 600h-340v84h340v-84z" />
    <glyph glyph-name="Obreve" unicode="&#x14e;" horiz-adv-x="799" 
d="M399 708q102 0 167 -16t110 -57t64 -109.5t19 -175.5t-19 -175.5t-64 -109.5t-110 -57t-167 -16q-101 0 -166 16t-110 57t-64 109.5t-19 175.5t19 175.5t64 109.5t110 57t166 16zM222 551q-46 -52 -46 -201t46.5 -201t176.5 -52t177 52t47 201t-47 201t-177 52t-177 -52z
M494 870h90q-19 -73 -64 -106.5t-121 -33.5q-150 0 -184 140h90q21 -67 94 -67t95 67z" />
    <glyph glyph-name="obreve" unicode="&#x14f;" horiz-adv-x="624" 
d="M594 266q0 -154 -66.5 -213t-215.5 -59t-215.5 59t-66.5 213q0 152 67 211t215 59t215 -59t67 -211zM151 266q0 -99 36 -140.5t125 -41.5t125 41.5t36 140.5q0 98 -36 139t-125 41t-125 -41t-36 -139zM406 693h90q-19 -73 -64 -106.5t-121 -33.5q-150 0 -184 140h90
q21 -67 94 -67t95 67z" />
    <glyph glyph-name="Ohungarumlaut" unicode="&#x150;" horiz-adv-x="799" 
d="M399 708q102 0 167 -16t110 -57t64 -109.5t19 -175.5t-19 -175.5t-64 -109.5t-110 -57t-167 -16q-101 0 -166 16t-110 57t-64 109.5t-19 175.5t19 175.5t64 109.5t110 57t166 16zM222 551q-46 -52 -46 -201t46.5 -201t176.5 -52t177 52t47 201t-47 201t-177 52t-177 -52z
M336 953l67 -66l-148 -147l-67 66zM548 953l67 -66l-148 -147l-66 66z" />
    <glyph glyph-name="ohungarumlaut" unicode="&#x151;" horiz-adv-x="624" 
d="M594 266q0 -154 -66.5 -213t-215.5 -59t-215.5 59t-66.5 213q0 152 67 211t215 59t215 -59t67 -211zM151 266q0 -99 36 -140.5t125 -41.5t125 41.5t36 140.5q0 98 -36 139t-125 41t-125 -41t-36 -139zM248 773l63 -62l-148 -147l-63 62zM460 773l63 -62l-148 -147l-62 62
z" />
    <glyph glyph-name="OE" unicode="&#x152;" horiz-adv-x="1218" 
d="M1188 105v-105h-449q-37 0 -57 14t-26 47q-65 -69 -257 -69q-101 0 -166 16t-110 57t-64 109.5t-19 175.5t19 175.5t64 109.5t110 57t166 16q191 0 257 -70q6 34 26 48t57 14h445v-105h-375q-30 0 -40 -10t-10 -40v-135h415v-105h-415v-150q0 -30 10 -40t40 -10h379z
M222 551q-46 -52 -46 -201t46.5 -201t176.5 -52t177 52t47 201t-47 201t-177 52t-177 -52z" />
    <glyph glyph-name="oe" unicode="&#x153;" horiz-adv-x="1006" 
d="M963 0h-294q-106 0 -146 69q-59 -75 -215 -75q-149 0 -215.5 59t-66.5 213q0 152 67 211t215 59q157 0 215 -83q50 83 202 83q124 0 189.5 -45.5t65.5 -164.5q0 -100 -82 -100h-308q0 -69 22.5 -102.5t91.5 -33.5h259v-90zM147 266q0 -99 36 -140.5t125 -41.5t125 41.5
t36 140.5q0 98 -36 139t-125 41t-125 -41t-36 -139zM590 316h243q26 0 26 31q0 49 -38.5 74t-95.5 25q-74 0 -104.5 -30.5t-30.5 -99.5z" />
    <glyph glyph-name="Racute" unicode="&#x154;" horiz-adv-x="734" 
d="M192 0h-132v595q0 105 102 105h353q94 0 134.5 -55.5t40.5 -165.5q0 -234 -162 -234h-70v-5l246 -240h-170l-226 227q-33 35 -33 59v16q0 22 15.5 35t43.5 13h136q51 0 67.5 31t16.5 98q0 64 -19.5 90t-79.5 26h-213q-30 0 -40 -10t-10 -40v-545zM417 947l64 -75
l-166 -132l-63 74z" />
    <glyph glyph-name="racute" unicode="&#x155;" horiz-adv-x="339" 
d="M46 0v330q0 105 53 152.5t161 47.5h79v-90h-49q-69 0 -98 -34t-29 -107v-299h-117zM233 767l64 -75l-166 -132l-63 74z" />
    <glyph glyph-name="Rcommaaccent" unicode="&#x156;" horiz-adv-x="734" 
d="M192 0h-132v595q0 105 102 105h353q94 0 134.5 -55.5t40.5 -165.5q0 -234 -162 -234h-70v-5l246 -240h-170l-226 227q-33 35 -33 59v16q0 22 15.5 35t43.5 13h136q51 0 67.5 31t16.5 98q0 64 -19.5 90t-79.5 26h-213q-30 0 -40 -10t-10 -40v-545zM344 -289l-96 37l85 222
l103 -41z" />
    <glyph glyph-name="rcommaaccent" unicode="&#x157;" horiz-adv-x="339" 
d="M46 0v330q0 105 53 152.5t161 47.5h79v-90h-49q-69 0 -98 -34t-29 -107v-299h-117zM166 -279l-96 37l85 222l103 -41z" />
    <glyph glyph-name="Rcaron" unicode="&#x158;" horiz-adv-x="734" 
d="M192 0h-132v595q0 105 102 105h353q94 0 134.5 -55.5t40.5 -165.5q0 -234 -162 -234h-70v-5l246 -240h-170l-226 227q-33 35 -33 59v16q0 22 15.5 35t43.5 13h136q51 0 67.5 31t16.5 98q0 64 -19.5 90t-79.5 26h-213q-30 0 -40 -10t-10 -40v-545zM509 923l52 -62
l-143 -111q-25 -20 -52 -20q-25 0 -52 20l-142 111l52 62l117 -93q16 -12 26 -12t25 12z" />
    <glyph glyph-name="rcaron" unicode="&#x159;" horiz-adv-x="339" 
d="M46 0v330q0 105 53 152.5t161 47.5h79v-90h-49q-69 0 -98 -34t-29 -107v-299h-117zM315 753l50 -62l-145 -113q-24 -18 -48 -18q-26 0 -48 18l-144 113l50 62l117 -95q17 -12 26 -12t25 12z" />
    <glyph glyph-name="Sacute" unicode="&#x15a;" horiz-adv-x="659" 
d="M39 0v105h388q66 0 66 76q0 58 -68 79l-276 87q-66 21 -92.5 64.5t-26.5 119.5q0 78 40 123.5t120 45.5h403v-105h-368q-27 0 -43 -17t-16 -53q0 -29 11.5 -48t49.5 -31l256 -81q79 -25 112.5 -65t33.5 -120q0 -82 -36.5 -131t-113.5 -49h-440zM380 947l64 -75l-166 -132
l-63 74z" />
    <glyph glyph-name="sacute" unicode="&#x15b;" horiz-adv-x="528" 
d="M33 0v90h298q20 0 34.5 12t14.5 36q0 16 -6 27.5t-20 19t-24 11t-32 9t-29 7.5l-102 28q-82 22 -111.5 57.5t-29.5 96.5q0 72 36 104t116 32h299v-90h-281q-30 0 -43 -10t-13 -38q0 -21 14.5 -35.5t28 -19.5t40.5 -13l114 -32q35 -10 54 -16.5t43.5 -19t37 -27.5
t21.5 -39t9 -55q0 -66 -29 -100.5t-101 -34.5h-339zM314 767l64 -75l-166 -132l-63 74z" />
    <glyph glyph-name="Scircumflex" unicode="&#x15c;" horiz-adv-x="659" 
d="M39 0v105h388q66 0 66 76q0 58 -68 79l-276 87q-66 21 -92.5 64.5t-26.5 119.5q0 78 40 123.5t120 45.5h403v-105h-368q-27 0 -43 -17t-16 -53q0 -29 11.5 -48t49.5 -31l256 -81q79 -25 112.5 -65t33.5 -120q0 -82 -36.5 -131t-113.5 -49h-440zM472 740l-117 93
q-16 12 -25 12q-11 0 -26 -12l-117 -93l-52 62l146 113q24 18 48 18q26 0 48 -18l147 -113z" />
    <glyph glyph-name="scircumflex" unicode="&#x15d;" horiz-adv-x="528" 
d="M33 0v90h298q20 0 34.5 12t14.5 36q0 16 -6 27.5t-20 19t-24 11t-32 9t-29 7.5l-102 28q-82 22 -111.5 57.5t-29.5 96.5q0 72 36 104t116 32h299v-90h-281q-30 0 -43 -10t-13 -38q0 -21 14.5 -35.5t28 -19.5t40.5 -13l114 -32q35 -10 54 -16.5t43.5 -19t37 -27.5
t21.5 -39t9 -55q0 -66 -29 -100.5t-101 -34.5h-339zM406 560l-117 97q-13 10 -25 10q-13 0 -26 -10l-117 -97l-50 62l144 113q23 18 48 18q23 0 48 -18l145 -113z" />
    <glyph glyph-name="Scedilla" unicode="&#x15e;" horiz-adv-x="659" 
d="M39 0v105h388q66 0 66 76q0 58 -68 79l-276 87q-66 21 -92.5 64.5t-26.5 119.5q0 78 40 123.5t120 45.5h403v-105h-368q-27 0 -43 -17t-16 -53q0 -29 11.5 -48t49.5 -31l256 -81q79 -25 112.5 -65t33.5 -120q0 -82 -36.5 -131t-113.5 -49h-116l-16 -32q0 -1 -2 -4
q-1 -3 -1 -4q0 -5 8 -5h13q33 0 53 -17t20 -53q0 -75 -82 -75h-96v56h78q28 0 28 17q0 16 -26 16h-37q-33 0 -33 24q0 8 7 24l26 53h-264z" />
    <glyph glyph-name="scedilla" unicode="&#x15f;" horiz-adv-x="528" 
d="M33 0v90h298q20 0 34.5 12t14.5 36q0 16 -6 27.5t-20 19t-24 11t-32 9t-29 7.5l-102 28q-82 22 -111.5 57.5t-29.5 96.5q0 72 36 104t116 32h299v-90h-281q-30 0 -43 -10t-13 -38q0 -21 14.5 -35.5t28 -19.5t40.5 -13l114 -32q35 -10 54 -16.5t43.5 -19t37 -27.5
t21.5 -39t9 -55q0 -66 -29 -100.5t-101 -34.5h-69l-16 -32q0 -1 -2 -4q-1 -3 -1 -4q0 -5 8 -5h13q33 0 53 -17t20 -53q0 -75 -82 -75h-96v56h78q28 0 28 17q0 16 -26 16h-37q-33 0 -33 24q0 8 7 24l26 53h-210z" />
    <glyph glyph-name="Scaron" unicode="&#x160;" horiz-adv-x="659" 
d="M39 0v105h388q66 0 66 76q0 58 -68 79l-276 87q-66 21 -92.5 64.5t-26.5 119.5q0 78 40 123.5t120 45.5h403v-105h-368q-27 0 -43 -17t-16 -53q0 -29 11.5 -48t49.5 -31l256 -81q79 -25 112.5 -65t33.5 -120q0 -82 -36.5 -131t-113.5 -49h-440zM472 923l52 -62l-143 -111
q-25 -20 -52 -20q-25 0 -52 20l-142 111l52 62l117 -93q16 -12 26 -12t25 12z" />
    <glyph glyph-name="scaron" unicode="&#x161;" horiz-adv-x="528" 
d="M33 0v90h298q20 0 34.5 12t14.5 36q0 16 -6 27.5t-20 19t-24 11t-32 9t-29 7.5l-102 28q-82 22 -111.5 57.5t-29.5 96.5q0 72 36 104t116 32h299v-90h-281q-30 0 -43 -10t-13 -38q0 -21 14.5 -35.5t28 -19.5t40.5 -13l114 -32q35 -10 54 -16.5t43.5 -19t37 -27.5
t21.5 -39t9 -55q0 -66 -29 -100.5t-101 -34.5h-339zM406 753l50 -62l-145 -113q-24 -18 -48 -18q-25 0 -48 18l-144 113l50 62l117 -95q17 -12 26 -12t25 12z" />
    <glyph glyph-name="Tcommaaccent" unicode="&#x162;" horiz-adv-x="679" 
d="M405 0h-132v595h-273v105h679v-105h-274v-595zM316 -289l-96 37l85 222l103 -41z" />
    <glyph glyph-name="tcommaaccent" unicode="&#x163;" horiz-adv-x="341" 
d="M341 0h-73q-95 0 -145 40t-50 133v267h-73v90h73v170h117v-170h151v-90h-151v-243q0 -58 30 -82.5t92 -24.5h29v-90zM167 -279l-96 37l85 222l103 -41z" />
    <glyph glyph-name="Tcaron" unicode="&#x164;" horiz-adv-x="679" 
d="M405 0h-132v595h-273v105h679v-105h-274v-595zM482 923l52 -62l-143 -111q-25 -20 -52 -20q-25 0 -52 20l-142 111l52 62l117 -93q16 -12 26 -12t25 12z" />
    <glyph glyph-name="tcaron" unicode="&#x165;" horiz-adv-x="357" 
d="M349 0h-73q-95 0 -145 40t-50 133v267h-73v90h73v170h117v-170h151v-90h-151v-243q0 -58 30 -82.5t92 -24.5h29v-90zM325 570l-96 37l85 222l103 -41z" />
    <glyph glyph-name="Umacron" unicode="&#x16a;" horiz-adv-x="728" 
d="M536 254v446h132v-446q0 -143 -76.5 -202.5t-227.5 -59.5t-227.5 59.5t-76.5 202.5v446h132v-446q0 -82 41 -119.5t131 -37.5t131 37.5t41 119.5zM534 760h-340v94h340v-94z" />
    <glyph glyph-name="umacron" unicode="&#x16b;" horiz-adv-x="582" 
d="M536 530v-440q0 -90 -90 -90h-194q-98 0 -152 41t-54 140v349h117v-318q0 -62 26 -92t85 -30h115q30 0 30 30v410h117zM461 600h-340v84h340v-84z" />
    <glyph glyph-name="Ubreve" unicode="&#x16c;" horiz-adv-x="728" 
d="M536 254v446h132v-446q0 -143 -76.5 -202.5t-227.5 -59.5t-227.5 59.5t-76.5 202.5v446h132v-446q0 -82 41 -119.5t131 -37.5t131 37.5t41 119.5zM459 870h90q-19 -73 -64 -106.5t-121 -33.5q-150 0 -184 140h90q21 -67 94 -67t95 67z" />
    <glyph glyph-name="ubreve" unicode="&#x16d;" horiz-adv-x="582" 
d="M536 530v-440q0 -90 -90 -90h-194q-98 0 -152 41t-54 140v349h117v-318q0 -62 26 -92t85 -30h115q30 0 30 30v410h117zM385 693h90q-19 -73 -64 -106.5t-121 -33.5q-150 0 -184 140h90q21 -67 94 -67t95 67z" />
    <glyph glyph-name="Uring" unicode="&#x16e;" horiz-adv-x="728" 
d="M536 254v446h132v-446q0 -143 -76.5 -202.5t-227.5 -59.5t-227.5 59.5t-76.5 202.5v446h132v-446q0 -82 41 -119.5t131 -37.5t131 37.5t41 119.5zM365 959q59 0 87 -28t28 -86t-28 -86t-87 -28q-116 0 -116 114t116 114zM365 786q55 0 55 59t-55 59q-56 0 -56 -59t56 -59
z" />
    <glyph glyph-name="uring" unicode="&#x16f;" horiz-adv-x="582" 
d="M536 530v-440q0 -90 -90 -90h-194q-98 0 -152 41t-54 140v349h117v-318q0 -62 26 -92t85 -30h115q30 0 30 30v410h117zM291 788q59 0 87 -28t28 -86t-28 -86t-87 -28q-116 0 -116 114t116 114zM291 615q55 0 55 59t-55 59q-56 0 -56 -59t56 -59z" />
    <glyph glyph-name="Uhungarumlaut" unicode="&#x170;" horiz-adv-x="728" 
d="M536 254v446h132v-446q0 -143 -76.5 -202.5t-227.5 -59.5t-227.5 59.5t-76.5 202.5v446h132v-446q0 -82 41 -119.5t131 -37.5t131 37.5t41 119.5zM318 953l67 -66l-148 -147l-67 66zM530 953l67 -66l-148 -147l-66 66z" />
    <glyph glyph-name="uhungarumlaut" unicode="&#x171;" horiz-adv-x="582" 
d="M536 530v-440q0 -90 -90 -90h-194q-98 0 -152 41t-54 140v349h117v-318q0 -62 26 -92t85 -30h115q30 0 30 30v410h117zM247 773l63 -62l-148 -147l-63 62zM459 773l63 -62l-148 -147l-62 62z" />
    <glyph glyph-name="Uogonek" unicode="&#x172;" horiz-adv-x="728" 
d="M479 -180h-87q-25 0 -41.5 13.5t-16.5 41.5q0 20 10 37l42 81q-7 -1 -22 -1q-151 0 -227.5 59.5t-76.5 202.5v446h132v-446q0 -82 41 -119.5t131 -37.5t131 37.5t41 119.5v446h132v-446q0 -116 -50 -176.5t-148 -77.5l-48 -88q-8 -15 -8 -19q0 -13 23 -13h42v-60z" />
    <glyph glyph-name="uogonek" unicode="&#x173;" horiz-adv-x="570" 
d="M449 -180h-87q-25 0 -41.5 13.5t-16.5 41.5q0 20 10 37l46 88h-114q-98 0 -152 41t-54 140v349h117v-318q0 -62 26 -92t85 -30h115q30 0 30 30v410h117v-440q0 -90 -90 -90l-48 -88q-8 -15 -8 -19q0 -13 23 -13h42v-60z" />
    <glyph glyph-name="Ydieresis" unicode="&#x178;" horiz-adv-x="684" 
d="M342 333l220 367h142l-296 -486v-214h-132v214l-296 486h142zM513 760h-120v110h120v-110zM291 760h-120v110h120v-110z" />
    <glyph glyph-name="Zacute" unicode="&#x179;" horiz-adv-x="629" 
d="M608 0h-502q-96 0 -96 72q0 49 43 94l382 395q12 12 12 21q0 13 -19 13h-391v105h503q79 0 79 -72q0 -21 -7 -38.5t-13 -25.5t-20 -22l-387 -408q-10 -10 -10 -18q0 -11 12 -11h414v-105zM375 947l64 -75l-166 -132l-63 74z" />
    <glyph glyph-name="zacute" unicode="&#x17a;" horiz-adv-x="477" 
d="M83 0q-75 0 -75 71q0 19 6 34t12 22.5t18 19.5l272 273q8 8 8 12q0 8 -10 8h-289v90h375q31 0 50 -17.5t19 -49.5q0 -41 -31 -72l-275 -283q-8 -8 -8 -13t9 -5h302v-90h-383zM299 767l64 -75l-166 -132l-63 74z" />
    <glyph glyph-name="Zdotaccent" unicode="&#x17b;" horiz-adv-x="629" 
d="M608 0h-502q-96 0 -96 72q0 49 43 94l382 395q12 12 12 21q0 13 -19 13h-391v105h503q79 0 79 -72q0 -21 -7 -38.5t-13 -25.5t-20 -22l-387 -408q-10 -10 -10 -18q0 -11 12 -11h414v-105zM397 758h-132v116h132v-116z" />
    <glyph glyph-name="zdotaccent" unicode="&#x17c;" horiz-adv-x="477" 
d="M83 0q-75 0 -75 71q0 19 6 34t12 22.5t18 19.5l272 273q8 8 8 12q0 8 -10 8h-289v90h375q31 0 50 -17.5t19 -49.5q0 -41 -31 -72l-275 -283q-8 -8 -8 -13t9 -5h302v-90h-383zM179 600v100h119v-100h-119z" />
    <glyph glyph-name="Zcaron" unicode="&#x17d;" horiz-adv-x="629" 
d="M608 0h-502q-96 0 -96 72q0 49 43 94l382 395q12 12 12 21q0 13 -19 13h-391v105h503q79 0 79 -72q0 -21 -7 -38.5t-13 -25.5t-20 -22l-387 -408q-10 -10 -10 -18q0 -11 12 -11h414v-105zM457 923l52 -62l-143 -111q-25 -20 -52 -20q-25 0 -52 20l-142 111l52 62l117 -93
q16 -12 26 -12t25 12z" />
    <glyph glyph-name="zcaron" unicode="&#x17e;" horiz-adv-x="477" 
d="M83 0q-75 0 -75 71q0 19 6 34t12 22.5t18 19.5l272 273q8 8 8 12q0 8 -10 8h-289v90h375q31 0 50 -17.5t19 -49.5q0 -41 -31 -72l-275 -283q-8 -8 -8 -13t9 -5h302v-90h-383zM381 753l50 -62l-145 -113q-24 -18 -48 -18q-26 0 -48 18l-144 113l50 62l117 -95
q17 -12 26 -12t25 12z" />
    <glyph glyph-name="uni018F" unicode="&#x18f;" horiz-adv-x="720" 
d="M383 0h-136q-101 0 -154 47t-53 153q0 93 44.5 150.5t142.5 57.5h315q-8 106 -57 146.5t-164 40.5h-260v105h322q87 0 147 -25.5t92 -75t45 -109.5t13 -140t-13 -140t-45 -109.5t-92 -75t-147 -25.5zM321 105q117 0 165.5 42.5t55.5 155.5h-269q-50 0 -74.5 -23
t-24.5 -75q0 -100 123 -100h24z" />
    <glyph glyph-name="florin" unicode="&#x192;" horiz-adv-x="352" 
d="M169 -170h-117l108 610h-74l15 89h74q12 49 32 82.5t42.5 52.5t60 28.5t70.5 12t89 2.5l-16 -86q-34 0 -50 -0.5t-39 -5t-33.5 -14t-21.5 -27t-17 -44.5h145l-15 -90h-145z" />
    <glyph glyph-name="uni01CF" unicode="&#x1cf;" horiz-adv-x="252" 
d="M192 0h-132v700h132v-700zM268 917l50 -62l-145 -113q-24 -18 -48 -18q-26 0 -48 18l-144 113l50 62l117 -95q17 -12 26 -12t25 12z" />
    <glyph glyph-name="uni01D0" unicode="&#x1d0;" horiz-adv-x="197" 
d="M40 0v530h117v-530h-117zM241 753l50 -62l-145 -113q-24 -18 -48 -18q-26 0 -48 18l-144 113l50 62l117 -95q17 -12 26 -12t25 12z" />
    <glyph glyph-name="uni01DD" unicode="&#x1dd;" horiz-adv-x="571" 
d="M47 530h294q62 0 102.5 -17t61.5 -53.5t28.5 -81.5t7.5 -114q0 -154 -58.5 -212t-197.5 -58q-124 0 -189.5 45.5t-65.5 164.5q0 100 82 100h308q0 69 -22.5 102.5t-91.5 33.5h-259v90zM420 214h-243q-26 0 -26 -31q0 -49 38.5 -74t95.5 -25q74 0 104.5 30.5t30.5 99.5z
" />
    <glyph glyph-name="Gcaron" unicode="&#x1e6;" horiz-adv-x="727" 
d="M671 595h-272q-128 0 -175.5 -51.5t-47.5 -193.5t47.5 -193.5t175.5 -51.5h106q30 0 40 10t10 40v188h132v-238q0 -105 -102 -105h-248q-87 0 -147 25.5t-92 75t-45 109.5t-13 140t13 140t45 109.5t92 75t147 25.5h334v-105zM526 923l52 -62l-143 -111q-25 -20 -52 -20
q-25 0 -52 20l-142 111l52 62l117 -93q16 -12 26 -12t25 12z" />
    <glyph glyph-name="gcaron" unicode="&#x1e7;" horiz-adv-x="580" 
d="M417 0h-170q-120 0 -168.5 68t-48.5 198t48 197t169 67h197q90 0 90 -90v-399q0 -113 -54.5 -164.5t-174.5 -51.5h-238v90h238q100 0 112 85zM387 440h-111q-41 0 -67 -12t-38 -38t-16 -53.5t-4 -70.5t4 -70.5t16 -54t38 -39t67 -12.5h141v320q0 30 -30 30zM441 753
l50 -62l-145 -113q-24 -18 -48 -18q-26 0 -48 18l-144 113l50 62l117 -95q17 -12 26 -12t25 12z" />
    <glyph glyph-name="AEacute" unicode="&#x1fc;" horiz-adv-x="1074" 
d="M1044 105v-105h-459q-102 0 -102 105v71h-254l-101 -176h-148l391 646q33 54 113 54h556v-105h-375q-30 0 -40 -10t-10 -40v-135h415v-105h-415v-150q0 -30 10 -40t40 -10h379zM455 566l-169 -291h197v320q-9 -2 -14 -7.5t-14 -21.5zM642 947l64 -75l-166 -132l-63 74z
" />
    <glyph glyph-name="aeacute" unicode="&#x1fd;" horiz-adv-x="935" 
d="M892 0h-304q-75 0 -112 36q-19 -36 -71 -36h-247q-68 0 -100 39.5t-32 121.5q0 77 33 119t99 42h240v34q0 39 -19 61.5t-55 22.5h-259v90h291q70 0 114 -47q62 53 184 53q125 0 190 -43.5t65 -162.5q0 -98 -82 -98h-308q0 -70 22.5 -106t91.5 -36h259v-90zM398 232h-195
q-30 0 -43 -16.5t-13 -54.5t13 -54.5t43 -16.5h165q30 0 30 30v112zM519 322h243q26 0 26 29q0 49 -38 72t-96 23q-75 0 -105 -28t-30 -96zM538 767l64 -75l-166 -132l-63 74z" />
    <glyph glyph-name="Scommaaccent" unicode="&#x218;" horiz-adv-x="659" 
d="M39 0v105h388q66 0 66 76q0 58 -68 79l-276 87q-66 21 -92.5 64.5t-26.5 119.5q0 78 40 123.5t120 45.5h403v-105h-368q-27 0 -43 -17t-16 -53q0 -29 11.5 -48t49.5 -31l256 -81q79 -25 112.5 -65t33.5 -120q0 -82 -36.5 -131t-113.5 -49h-440zM306 -289l-96 37l85 222
l103 -41z" />
    <glyph glyph-name="scommaaccent" unicode="&#x219;" horiz-adv-x="528" 
d="M33 0v90h298q20 0 34.5 12t14.5 36q0 16 -6 27.5t-20 19t-24 11t-32 9t-29 7.5l-102 28q-82 22 -111.5 57.5t-29.5 96.5q0 72 36 104t116 32h299v-90h-281q-30 0 -43 -10t-13 -38q0 -21 14.5 -35.5t28 -19.5t40.5 -13l114 -32q35 -10 54 -16.5t43.5 -19t37 -27.5
t21.5 -39t9 -55q0 -66 -29 -100.5t-101 -34.5h-339zM241 -279l-96 37l85 222l103 -41z" />
    <glyph glyph-name="uni021A" unicode="&#x21a;" horiz-adv-x="679" 
d="M405 0h-132v595h-273v105h679v-105h-274v-595zM316 -289l-96 37l85 222l103 -41z" />
    <glyph glyph-name="uni021B" unicode="&#x21b;" horiz-adv-x="341" 
d="M341 0h-73q-95 0 -145 40t-50 133v267h-73v90h73v170h117v-170h151v-90h-151v-243q0 -58 30 -82.5t92 -24.5h29v-90zM167 -279l-96 37l85 222l103 -41z" />
    <glyph glyph-name="uni0228" unicode="&#x228;" horiz-adv-x="651" 
d="M306 -190v56h78q28 0 28 17q0 16 -26 16h-37q-33 0 -33 24q0 8 7 24l26 53h-187q-102 0 -102 105v490q0 105 102 105h455v-105h-375q-30 0 -40 -10t-10 -40v-135h415v-105h-415v-150q0 -30 10 -40t40 -10h379v-105h-212l-16 -32q0 -1 -2 -4q-1 -3 -1 -4q0 -5 8 -5h13
q33 0 53 -17t20 -53q0 -75 -82 -75h-96z" />
    <glyph glyph-name="uni0229" unicode="&#x229;" horiz-adv-x="571" 
d="M224 -190v56h78q28 0 28 17q0 16 -26 16h-37q-33 0 -33 24q0 8 7 24l26 53h-37q-62 0 -102.5 17t-61.5 53.5t-28.5 81.5t-7.5 114q0 154 58.5 212t197.5 58q124 0 189.5 -45.5t65.5 -164.5q0 -100 -82 -100h-308q0 -69 22.5 -102.5t91.5 -33.5h259v-90h-197l-16 -32
q0 -1 -2 -4q-1 -3 -1 -4q0 -5 8 -5h13q33 0 53 -17t20 -53q0 -75 -82 -75h-96zM151 316h243q26 0 26 31q0 49 -38.5 74t-95.5 25q-74 0 -104.5 -30.5t-30.5 -99.5z" />
    <glyph glyph-name="uni0237" unicode="&#x237;" horiz-adv-x="281" 
d="M-40 -178v90q8 -1 17 -1q70 0 105.5 27.5t35.5 98.5v493h117v-507q0 -113 -62.5 -157.5t-177.5 -44.5q-23 0 -35 1z" />
    <glyph glyph-name="uni0259" unicode="&#x259;" horiz-adv-x="571" 
d="M47 530h294q62 0 102.5 -17t61.5 -53.5t28.5 -81.5t7.5 -114q0 -154 -58.5 -212t-197.5 -58q-124 0 -189.5 45.5t-65.5 164.5q0 100 82 100h308q0 69 -22.5 102.5t-91.5 33.5h-259v90zM420 214h-243q-26 0 -26 -31q0 -49 38.5 -74t95.5 -25q74 0 104.5 30.5t30.5 99.5z
" />
    <glyph glyph-name="afii57929" unicode="&#x2bc;" horiz-adv-x="263" 
d="M131 466l-96 37l85 222l103 -41z" />
    <glyph glyph-name="circumflex" unicode="&#x2c6;" horiz-adv-x="457" 
d="M371 560l-117 97q-13 10 -25 10q-13 0 -26 -10l-117 -97l-50 62l144 113q23 18 48 18q23 0 48 -18l145 -113z" />
    <glyph glyph-name="caron" unicode="&#x2c7;" horiz-adv-x="457" 
d="M371 753l50 -62l-145 -113q-24 -18 -48 -18q-26 0 -48 18l-144 113l50 62l117 -95q17 -12 26 -12t25 12z" />
    <glyph glyph-name="uni02C9" unicode="&#x2c9;" horiz-adv-x="420" 
d="M380 600h-340v84h340v-84z" />
    <glyph glyph-name="breve" unicode="&#x2d8;" horiz-adv-x="449" 
d="M319 693h90q-19 -73 -64 -106.5t-121 -33.5q-150 0 -184 140h90q21 -67 94 -67t95 67z" />
    <glyph glyph-name="dotaccent" unicode="&#x2d9;" horiz-adv-x="199" 
d="M40 600v100h119v-100h-119z" />
    <glyph glyph-name="ring" unicode="&#x2da;" horiz-adv-x="311" 
d="M156 788q59 0 87 -28t28 -86t-28 -86t-87 -28q-116 0 -116 114t116 114zM156 615q55 0 55 59t-55 59q-56 0 -56 -59t56 -59z" />
    <glyph glyph-name="ogonek" unicode="&#x2db;" horiz-adv-x="225" 
d="M185 -180h-87q-25 0 -41.5 13.5t-16.5 41.5q0 20 10 37l46 88h80l-48 -88q-8 -15 -8 -19q0 -13 23 -13h42v-60z" />
    <glyph glyph-name="tilde" unicode="&#x2dc;" horiz-adv-x="473" 
d="M91 582l-51 36q19 37 49.5 60t66.5 23q31 0 65 -18l40 -20q41 -19 56 -19q23 0 37.5 13.5t27.5 40.5l51 -33q-20 -38 -50.5 -63.5t-65.5 -25.5q-40 0 -72 17l-34 18q-36 19 -55 19q-39 0 -65 -48z" />
    <glyph glyph-name="hungarumlaut" unicode="&#x2dd;" horiz-adv-x="503" 
d="M188 773l63 -62l-148 -147l-63 62zM400 773l63 -62l-148 -147l-62 62z" />
    <glyph glyph-name="acutecomb" unicode="&#x301;" horiz-adv-x="2" 
d="M-222 767l64 -75l-166 -132l-63 74z" />
    <glyph glyph-name="uni037E" unicode="&#x37e;" horiz-adv-x="242" 
d="M182 404h-122v126h122v-126zM89 -116l-89 53l122 203l96 -57z" />
    <glyph glyph-name="uni0394" unicode="&#x394;" horiz-adv-x="680" 
d="M14 154l214 480q16 36 39.5 55t73.5 19q48 0 71.5 -18.5t39.5 -55.5l214 -480q24 -55 24 -84q0 -70 -77 -70h-546q-77 0 -77 71q0 28 24 83zM323 559l-179 -415q-10 -21 -10 -25q0 -14 21 -14h370q21 0 21 16q0 4 -4 11.5t-6 11.5l-180 415q-8 22 -16 22q-9 0 -17 -22z
" />
    <glyph glyph-name="uni03A9" unicode="&#x3a9;" horiz-adv-x="740" 
d="M209 106v14q-58 21 -96.5 65t-54.5 97.5t-16 116.5q0 155 87.5 238.5t240.5 83.5t240.5 -83.5t87.5 -238.5q0 -63 -16 -116.5t-54.5 -97.5t-96.5 -65v-14h151v-106h-166q-91 0 -91 88v73q0 31 32 48q18 9 30.5 18.5t32.5 31t31 58t11 84.5q0 93 -49 140.5t-143 47.5
t-143 -47.5t-49 -140.5q0 -48 11 -84.5t31 -58t32.5 -31t30.5 -18.5q32 -19 32 -48v-73q0 -88 -91 -88h-166v106h151z" />
    <glyph glyph-name="uni03BC" unicode="&#x3bc;" horiz-adv-x="608" 
d="M60 -178v708h117v-327q0 -57 35 -88.5t90 -31.5q50 0 89.5 31t39.5 86v330h117v-530h-113v72q-43 -78 -134 -78q-88 0 -129 71v-243h-112z" />
    <glyph glyph-name="pi" unicode="&#x3c0;" horiz-adv-x="644" 
d="M86 0v440h-13q-36 0 -67 -20v90q36 20 85 20h547v-90h-64v-297q0 -38 9.5 -49.5t29.5 -11.5q11 0 14 1v-83q-32 -5 -79 -5q-46 0 -68.5 25t-22.5 83v337h-254v-440h-117z" />
    <glyph glyph-name="afii10023" unicode="&#x401;" horiz-adv-x="651" 
d="M621 105v-105h-459q-102 0 -102 105v490q0 105 102 105h455v-105h-375q-30 0 -40 -10t-10 -40v-135h415v-105h-415v-150q0 -30 10 -40t40 -10h379zM520 760h-120v110h120v-110zM298 760h-120v110h120v-110z" />
    <glyph glyph-name="afii10051" unicode="&#x402;" horiz-adv-x="836" 
d="M171 0v595h-171v105h597v-105h-294v-181h333q91 0 125.5 -53t34.5 -153t-34 -154t-124 -54h-168v105h100q49 0 69.5 24.5t20.5 78.5t-19.5 77.5t-70.5 23.5h-267v-309h-132z" />
    <glyph glyph-name="afii10052" unicode="&#x403;" horiz-adv-x="616" 
d="M192 0h-132v595q0 105 102 105h454v-105h-374q-30 0 -40 -10t-10 -40v-545zM383 947l64 -75l-166 -132l-63 74z" />
    <glyph glyph-name="afii10053" unicode="&#x404;" horiz-adv-x="670" 
d="M630 0h-293q-87 0 -147 25.5t-92 75t-45 109.5t-13 140t13 140t45 109.5t92 75t147 25.5h282v-105h-220q-115 0 -164 -40.5t-57 -146.5h428v-105h-428q7 -113 55.5 -155.5t165.5 -42.5h231v-105z" />
    <glyph glyph-name="afii10054" unicode="&#x405;" horiz-adv-x="659" 
d="M39 0v105h388q66 0 66 76q0 58 -68 79l-276 87q-66 21 -92.5 64.5t-26.5 119.5q0 78 40 123.5t120 45.5h403v-105h-368q-27 0 -45 -17.5t-18 -52.5q0 -58 65 -79l256 -81q79 -25 112.5 -65t33.5 -120q0 -82 -36.5 -131t-113.5 -49h-440z" />
    <glyph glyph-name="afii10055" unicode="&#x406;" horiz-adv-x="252" 
d="M192 0h-132v700h132v-700z" />
    <glyph glyph-name="afii10056" unicode="&#x407;" horiz-adv-x="264" 
d="M198 0h-132v700h132v-700zM264 760h-110v110h110v-110zM110 760h-110v110h110v-110z" />
    <glyph glyph-name="afii10057" unicode="&#x408;" horiz-adv-x="465" 
d="M0 0v105h115q83 0 120.5 39.5t37.5 125.5v430h132v-465q0 -106 -58 -170.5t-168 -64.5h-179z" />
    <glyph glyph-name="afii10058" unicode="&#x409;" horiz-adv-x="1171" 
d="M-20 0l410 653q11 17 21 27t36 19t64 9q74 0 100.5 -25t26.5 -67v-202h333q91 0 125.5 -53t34.5 -153t-34 -154t-124 -54h-365q-102 0 -102 105v474q0 18 -14 18q-8 0 -16 -11l-347 -586h-149zM905 309h-267v-154q0 -30 10 -40t40 -10h217q49 0 69.5 24.5t20.5 78.5
t-19.5 77.5t-70.5 23.5z" />
    <glyph glyph-name="afii10059" unicode="&#x40a;" horiz-adv-x="1201" 
d="M546 700h132v-286h323q91 0 125.5 -53t34.5 -153t-34 -154t-124 -54h-355q-102 0 -102 105v204h-354v-309h-132v700h132v-286h354v286zM935 309h-257v-154q0 -30 10 -40t40 -10h207q49 0 69.5 24.5t20.5 78.5t-19.5 77.5t-70.5 23.5z" />
    <glyph glyph-name="afii10060" unicode="&#x40b;" horiz-adv-x="827" 
d="M0 700h597v-105h-294v-193h321q74 0 113.5 -44t39.5 -120v-238h-132v214q0 45 -19 64t-64 19h-259v-297h-132v595h-171v105z" />
    <glyph glyph-name="afii10061" unicode="&#x40c;" horiz-adv-x="710" 
d="M730 0h-170l-293 267q-36 32 -36 93q0 44 34 78l265 262h164l-303 -287q-2 -2 -9.5 -9t-9.5 -9.5t-6.5 -9t-6 -12t-1.5 -12.5q0 -29 41 -64zM60 0v700h132v-700h-132zM430 947l64 -75l-166 -132l-63 74z" />
    <glyph glyph-name="afii10062" unicode="&#x40e;" horiz-adv-x="684" 
d="M337 0h-143l85 155l-299 545h146l221 -424l213 424h144zM436 870h106q-19 -73 -68 -106.5t-133 -33.5q-166 0 -200 140h106q20 -63 94 -63t95 63z" />
    <glyph glyph-name="afii10145" unicode="&#x40f;" horiz-adv-x="743" 
d="M551 700h132v-595q0 -105 -102 -105h-144v-169h-131v169h-144q-102 0 -102 105v595h132v-545q0 -30 10 -40t40 -10h259q30 0 40 10t10 40v545z" />
    <glyph glyph-name="afii10017" unicode="&#x410;" horiz-adv-x="726" 
d="M-16 0l264 629q19 45 43.5 62t71.5 17q45 0 70.5 -17.5t44.5 -61.5l264 -629h-139l-72 177h-337l-71 -177h-139zM343 556l-115 -285h269l-114 285q-11 29 -20 29t-20 -29z" />
    <glyph glyph-name="afii10018" unicode="&#x411;" horiz-adv-x="725" 
d="M649 700v-105h-407q-30 0 -40 -10t-10 -40v-135h333q91 0 125.5 -52t34.5 -152t-34 -153t-124 -53h-365q-102 0 -102 105v490q0 105 102 105h487zM459 305h-267v-150q0 -30 10 -40t40 -10h217q49 0 69.5 24t20.5 77q0 54 -19.5 76.5t-70.5 22.5z" />
    <glyph glyph-name="afii10019" unicode="&#x412;" horiz-adv-x="732" 
d="M192 301v-146q0 -30 10 -40t40 -10h209q52 0 73.5 22t21.5 74t-20.5 76t-65.5 24h-268zM192 545v-139h266q44 0 60.5 21.5t16.5 74.5q0 47 -17.5 70t-60.5 23h-215q-30 0 -40 -10t-10 -40zM572 354q110 -9 110 -162q0 -91 -34.5 -141.5t-127.5 -50.5h-358
q-102 0 -102 105v490q0 105 102 105h358q151 0 151 -192q0 -136 -99 -150v-4z" />
    <glyph glyph-name="afii10020" unicode="&#x413;" horiz-adv-x="616" 
d="M192 0h-132v595q0 105 102 105h454v-105h-374q-30 0 -40 -10t-10 -40v-545z" />
    <glyph glyph-name="afii10021" unicode="&#x414;" horiz-adv-x="916" 
d="M110 105l236 529q19 42 43 58t69 16t69 -16t43 -58l235 -529h29q102 0 102 -105v-135h-132v85q0 28 -9 39t-33 11h-609q-24 0 -32.5 -11t-8.5 -39v-85h-132v135q0 105 102 105h28zM441 559l-196 -454h425l-196 454q-8 22 -16 22q-9 0 -17 -22z" />
    <glyph glyph-name="afii10022" unicode="&#x415;" horiz-adv-x="651" 
d="M621 105v-105h-459q-102 0 -102 105v490q0 105 102 105h455v-105h-375q-30 0 -40 -10t-10 -40v-135h415v-105h-415v-150q0 -30 10 -40t40 -10h379z" />
    <glyph glyph-name="afii10024" unicode="&#x416;" horiz-adv-x="1068" 
d="M146 0h-166l281 297q3 3 11 11.5t11.5 13t9 11.5t7.5 14t2 14t-3.5 14.5t-7 12t-11.5 13t-11 12.5l-253 287h160l219 -262q34 -40 34 -78q0 -54 -36 -93zM600 700v-700h-132v700h132zM1088 0h-166l-247 267q-36 39 -36 93q0 38 34 78l219 262h160l-253 -287
q-3 -4 -11 -12.5t-11.5 -13t-7 -12t-3.5 -14.5t2 -14t7.5 -14t9 -11.5t11.5 -13t11 -11.5z" />
    <glyph glyph-name="afii10025" unicode="&#x417;" horiz-adv-x="677" 
d="M513 354q114 -10 114 -162q0 -91 -38 -141.5t-138 -50.5h-401v105h332q59 0 84 22t25 74q0 53 -23.5 76.5t-76.5 23.5h-327v105h325q51 0 69 21t18 75q0 48 -19 70.5t-69 22.5h-334v105h397q161 0 161 -192q0 -136 -99 -150v-4z" />
    <glyph glyph-name="afii10026" unicode="&#x418;" horiz-adv-x="786" 
d="M726 0h-133l5 532q0 23 -10 23q-2 0 -4.5 -1.5t-5 -5t-4.5 -6.5l-6 -9t-6 -10l-288 -465q-14 -21 -22 -31.5t-32 -22.5t-57 -12q-35 0 -58 12t-31.5 34t-11 37t-2.5 37v588h133l-4 -522q0 -32 12 -32q2 0 4 1t4 3.5t3.5 5t3.5 6.5t4 6l282 462q27 44 53.5 61t63.5 17
q107 0 107 -126v-582z" />
    <glyph glyph-name="afii10027" unicode="&#x419;" horiz-adv-x="786" 
d="M726 0h-133l5 532q0 23 -10 23q-2 0 -4.5 -1.5t-5 -5t-4.5 -6.5l-6 -9t-6 -10l-288 -465q-14 -21 -22 -31.5t-32 -22.5t-57 -12q-35 0 -58 12t-31.5 34t-11 37t-2.5 37v588h133l-4 -522q0 -32 12 -32q2 0 4 1t4 3.5t3.5 5t3.5 6.5t4 6l282 462q27 44 53.5 61t63.5 17
q107 0 107 -126v-582zM487 870h106q-19 -73 -68 -106.5t-133 -33.5q-166 0 -200 140h106q20 -63 94 -63t95 63z" />
    <glyph glyph-name="afii10028" unicode="&#x41a;" horiz-adv-x="710" 
d="M730 0h-170l-293 267q-36 32 -36 93q0 44 34 78l265 262h164l-303 -287q-2 -2 -9.5 -9t-9.5 -9.5t-6.5 -9t-6 -12t-1.5 -12.5q0 -29 41 -64zM60 0v700h132v-700h-132z" />
    <glyph glyph-name="afii10029" unicode="&#x41b;" horiz-adv-x="723" 
d="M-16 0l271 642q12 31 34.5 48.5t72.5 17.5t72.5 -17.5t34.5 -48.5l270 -642h-140l-221 559q0 1 -1 4t-1.5 4t-1.5 3.5t-2 3.5l-2.5 2.5t-3.5 2t-4 0.5q-10 0 -17 -20l-221 -559h-140z" />
    <glyph glyph-name="afii10030" unicode="&#x41c;" horiz-adv-x="992" 
d="M775 543l-179 -467q-18 -45 -38 -64.5t-62 -19.5t-62 19.5t-38 64.5l-179 467q-9 23 -17 23q-11 0 -11 -21l3 -545h-132v616q0 92 113 92q54 0 80 -23t43 -67l181 -467q12 -26 19 -26t19 26l181 467q17 44 43 67t80 23q113 0 113 -92v-616h-132l4 545q0 21 -12 21
q-8 0 -17 -23z" />
    <glyph glyph-name="afii10031" unicode="&#x41d;" horiz-adv-x="748" 
d="M688 700v-700h-132v308h-364v-308h-132v700h132v-287h364v287h132z" />
    <glyph glyph-name="afii10032" unicode="&#x41e;" horiz-adv-x="799" 
d="M399 708q102 0 167 -16t110 -57t64 -109.5t19 -175.5t-19 -175.5t-64 -109.5t-110 -57t-167 -16q-101 0 -166 16t-110 57t-64 109.5t-19 175.5t19 175.5t64 109.5t110 57t166 16zM222 551q-46 -52 -46 -201t46.5 -201t176.5 -52t177 52t47 201t-47 201t-177 52t-177 -52z
" />
    <glyph glyph-name="afii10033" unicode="&#x41f;" horiz-adv-x="742" 
d="M192 0h-132v595q0 105 102 105h418q102 0 102 -105v-595h-132v545q0 30 -10 40t-40 10h-258q-30 0 -40 -10t-10 -40v-545z" />
    <glyph glyph-name="afii10034" unicode="&#x420;" horiz-adv-x="718" 
d="M60 0v595q0 105 102 105h348q54 0 90.5 -17.5t55 -51t25.5 -70t7 -86.5t-7 -87t-25.5 -70.5t-55 -51.5t-90.5 -18h-318v-248h-132zM192 353h253q64 0 85.5 28.5t21.5 93.5t-21.5 92.5t-85.5 27.5h-203q-30 0 -40 -10t-10 -40v-192z" />
    <glyph glyph-name="afii10035" unicode="&#x421;" horiz-adv-x="659" 
d="M629 0h-292q-87 0 -147 25.5t-92 75t-45 109.5t-13 140t13 140t45 109.5t92 75t147 25.5h281v-105h-219q-128 0 -175.5 -51.5t-47.5 -193.5t47.5 -193.5t175.5 -51.5h230v-105z" />
    <glyph glyph-name="afii10036" unicode="&#x422;" horiz-adv-x="679" 
d="M405 0h-132v595h-273v105h679v-105h-274v-595z" />
    <glyph glyph-name="afii10037" unicode="&#x423;" horiz-adv-x="684" 
d="M337 0h-143l85 155l-299 545h146l221 -424l213 424h144z" />
    <glyph glyph-name="afii10038" unicode="&#x424;" horiz-adv-x="932" 
d="M400 700h132v-57h119q73 0 121.5 -18.5t74 -58t35.5 -88.5t10 -121t-10 -121.5t-35.5 -89.5t-74 -59t-121.5 -19h-119v-68h-132v68h-120q-73 0 -121.5 19t-74 59t-35 89t-9.5 122t9.5 121.5t35 88t74 58t121.5 18.5h120v57zM400 172v366h-80q-87 0 -115.5 -39.5
t-28.5 -141.5q0 -103 28.5 -144t115.5 -41h80zM532 172h80q86 0 115 41t29 144q0 102 -28.5 141.5t-115.5 39.5h-80v-366z" />
    <glyph glyph-name="afii10039" unicode="&#x425;" horiz-adv-x="648" 
d="M668 0h-157l-187 262l-187 -262h-157l269 355l-261 345h157l179 -252l179 252h157l-261 -345z" />
    <glyph glyph-name="afii10040" unicode="&#x426;" horiz-adv-x="795" 
d="M192 700v-545q0 -30 10 -40t40 -10h309v595h132v-595h30q102 0 102 -105v-135h-132v85q0 30 -10 40t-40 10h-471q-102 0 -102 105v595h132z" />
    <glyph glyph-name="afii10041" unicode="&#x427;" horiz-adv-x="716" 
d="M656 0h-132v298h-321q-74 0 -113.5 44t-39.5 120v238h132v-214q0 -45 19 -64t64 -19h259v297h132v-700z" />
    <glyph glyph-name="afii10042" unicode="&#x428;" horiz-adv-x="1044" 
d="M852 700h132v-595q0 -105 -102 -105h-720q-102 0 -102 105v595h132v-545q0 -30 10 -40t40 -10h214v595h132v-595h214q30 0 40 10t10 40v545z" />
    <glyph glyph-name="afii10043" unicode="&#x429;" horiz-adv-x="1102" 
d="M940 0h-778q-102 0 -102 105v595h132v-545q0 -30 10 -40t40 -10h214v595h132v-595h270v595h132v-595h30q102 0 102 -105v-135h-132v85q0 30 -10 40t-40 10z" />
    <glyph glyph-name="afii10044" unicode="&#x42a;" horiz-adv-x="790" 
d="M0 595v105h165q102 0 102 -105v-175h333q91 0 125.5 -54.5t34.5 -154.5q0 -101 -34.5 -156t-123.5 -55h-365q-102 0 -102 105v440q0 30 -10 40t-40 10h-85zM534 315h-267v-160q0 -30 10 -40t40 -10h217q48 0 69 26t21 80q0 55 -19.5 79.5t-70.5 24.5z" />
    <glyph glyph-name="afii10045" unicode="&#x42b;" horiz-adv-x="945" 
d="M885 0h-132v700h132v-700zM60 700h132v-280h323q91 0 125.5 -54.5t34.5 -154.5q0 -101 -34.5 -156t-123.5 -55h-355q-102 0 -102 105v595zM449 315h-257v-160q0 -30 10 -40t40 -10h207q48 0 69 26t21 80q0 55 -19.5 79.5t-70.5 24.5z" />
    <glyph glyph-name="afii10046" unicode="&#x42c;" horiz-adv-x="715" 
d="M60 700h132v-280h333q91 0 125.5 -54.5t34.5 -154.5q0 -101 -34.5 -156t-123.5 -55h-365q-102 0 -102 105v595zM459 315h-267v-160q0 -30 10 -40t40 -10h217q48 0 69 26t21 80q0 55 -19.5 79.5t-70.5 24.5z" />
    <glyph glyph-name="afii10047" unicode="&#x42d;" horiz-adv-x="670" 
d="M333 0h-293v105h231q117 0 165.5 42.5t55.5 155.5h-428v105h428q-8 106 -57 146.5t-164 40.5h-220v105h282q87 0 147 -25.5t92 -75t45 -109.5t13 -140t-13 -140t-45 -109.5t-92 -75t-147 -25.5z" />
    <glyph glyph-name="afii10048" unicode="&#x42e;" horiz-adv-x="1028" 
d="M633 708q101 0 166 -16t109 -57t62 -109.5t18 -175.5t-18 -175.5t-62 -109.5t-109 -57t-166 -16q-95 0 -157.5 14t-106.5 50t-64.5 96t-24.5 153h-88v-305h-132v700h131v-290h89q10 171 89 234.5t264 63.5zM459 551q-44 -51 -44 -201t44.5 -201.5t173.5 -51.5t174 51.5
t45 201.5t-45 201.5t-174 51.5t-174 -52z" />
    <glyph glyph-name="afii10049" unicode="&#x42f;" horiz-adv-x="738" 
d="M678 0h-132v545q0 30 -10 40t-40 10h-213q-60 0 -79.5 -26t-19.5 -90q0 -67 16.5 -98t67.5 -31h136q29 0 44 -12.5t15 -34.5v-16q0 -24 -33 -59l-226 -228h-170l246 240v5h-70q-162 0 -162 234q0 110 40.5 165.5t134.5 55.5h353q102 0 102 -105v-595z" />
    <glyph glyph-name="afii10065" unicode="&#x430;" horiz-adv-x="565" 
d="M69 530h301q73 0 111 -43t38 -113v-284q0 -90 -90 -90h-267q-132 0 -132 165q0 77 33 121t99 44h240v34q0 76 -74 76h-259v90zM402 240h-195q-56 0 -56 -75t56 -75h165q30 0 30 30v120z" />
    <glyph glyph-name="afii10066" unicode="&#x431;" horiz-adv-x="584" 
d="M523 610h-231q-64 0 -96.5 -22.5t-32.5 -79.5h178q116 0 164.5 -59t48.5 -189q0 -75 -10.5 -122.5t-39 -81.5t-78.5 -48t-129 -14q-134 0 -192.5 44.5t-58.5 167.5v287q0 99 48 153t144 54h285v-90zM163 418v-212q0 -122 132 -122q84 0 111 42t27 134q0 72 -25 115
t-93 43h-152z" />
    <glyph glyph-name="afii10067" unicode="&#x432;" horiz-adv-x="567" 
d="M388 0h-252q-90 0 -90 90v350q0 90 90 90h245q73 0 110.5 -27.5t37.5 -98.5q0 -59 -18 -90.5t-69 -37.5v-4q52 -9 71.5 -37.5t19.5 -84.5q0 -78 -32.5 -114t-112.5 -36zM163 229v-109q0 -30 30 -30h151q37 0 52.5 16t15.5 54q0 69 -68 69h-181zM163 319h181q64 0 64 61
q0 60 -64 60h-151q-30 0 -30 -30v-91z" />
    <glyph glyph-name="afii10068" unicode="&#x433;" horiz-adv-x="489" 
d="M46 0v440q0 90 90 90h353v-90h-296q-30 0 -30 -30v-410h-117z" />
    <glyph glyph-name="afii10069" unicode="&#x434;" horiz-adv-x="721" 
d="M-14 -125v125q0 90 90 90h18l173 394q23 52 94 52q70 0 93 -52l174 -394h17q90 0 90 -90v-125h-117v95q0 30 -30 30h-459q-26 0 -26 -30v-95h-117zM346 413l-130 -323h290l-131 323q-8 20 -14 20q-7 0 -15 -20z" />
    <glyph glyph-name="afii10070" unicode="&#x435;" horiz-adv-x="571" 
d="M524 0h-294q-62 0 -102.5 17t-61.5 53.5t-28.5 81.5t-7.5 114q0 154 58.5 212t197.5 58q124 0 189.5 -45.5t65.5 -164.5q0 -100 -82 -100h-308q0 -69 22.5 -102.5t91.5 -33.5h259v-90zM151 316h243q26 0 26 31q0 49 -38.5 74t-95.5 25q-74 0 -104.5 -30.5t-30.5 -99.5z
" />
    <glyph glyph-name="afii10072" unicode="&#x436;" horiz-adv-x="817" 
d="M465 0h-113v530h113v-530zM831 0h-138l-173 210q-31 36 -31 60q0 27 37 72l150 188h136l-181 -217q-22 -25 -22 -39q0 -16 22 -41zM-14 0l200 233q22 28 22 41q0 14 -22 39l-182 217h136l151 -188q37 -45 37 -72q0 -24 -31 -60l-173 -210h-138z" />
    <glyph glyph-name="afii10073" unicode="&#x437;" horiz-adv-x="534" 
d="M355 0h-315v90h271q37 0 52.5 16t15.5 54q0 69 -68 69h-256v90h256q64 0 64 61q0 60 -64 60h-262v90h299q73 0 110.5 -27.5t37.5 -98.5q0 -59 -18 -90.5t-69 -37.5v-4q52 -9 71.5 -37.5t19.5 -84.5q0 -78 -32.5 -114t-112.5 -36z" />
    <glyph glyph-name="afii10074" unicode="&#x438;" horiz-adv-x="611" 
d="M565 0h-117l4 377q0 14 -6 14q-5 0 -14 -14l-233 -341q-15 -23 -31.5 -32.5t-44.5 -9.5q-77 0 -77 75v461h117l-5 -377q0 -14 8 -14q6 0 14 14l236 347q24 36 72 36q10 0 19.5 -2t24.5 -8.5t24 -25t9 -45.5v-455z" />
    <glyph glyph-name="afii10075" unicode="&#x439;" horiz-adv-x="611" 
d="M565 0h-117l4 377q0 14 -6 14q-5 0 -14 -14l-233 -341q-15 -23 -31.5 -32.5t-44.5 -9.5q-77 0 -77 75v461h117l-5 -377q0 -14 8 -14q6 0 14 14l236 347q24 36 72 36q10 0 19.5 -2t24.5 -8.5t24 -25t9 -45.5v-455zM390 693h100q-19 -73 -64 -106.5t-121 -33.5
q-150 0 -184 140h100q21 -67 84 -67t85 67z" />
    <glyph glyph-name="afii10076" unicode="&#x43a;" horiz-adv-x="536" 
d="M550 0h-141l-193 211q-30 33 -30 62q0 27 37 69l169 188h139l-201 -214q-25 -25 -25 -43t19 -37zM163 0h-117v530h117v-530z" />
    <glyph glyph-name="afii10077" unicode="&#x43b;" horiz-adv-x="566" 
d="M-10 0l209 492q18 44 84 44t84 -44l209 -492h-128l-155 409q-6 15 -10 15t-10 -15l-155 -409h-128z" />
    <glyph glyph-name="afii10078" unicode="&#x43c;" horiz-adv-x="752" 
d="M579 382l-135 -344q-17 -44 -68 -44t-68 44l-136 344q-4 11 -8 11q-6 0 -6 -9l5 -384h-117v460q0 37 26 56.5t65 19.5q67 0 90 -57l134 -337q13 -21 15 -21t15 21l134 337q23 57 90 57q39 0 65 -19.5t26 -56.5v-460h-117l5 384q0 10 -6 10z" />
    <glyph glyph-name="afii10079" unicode="&#x43d;" horiz-adv-x="579" 
d="M533 0h-117v228h-253v-228h-117v530h117v-212h253v212h117v-530z" />
    <glyph glyph-name="afii10080" unicode="&#x43e;" horiz-adv-x="624" 
d="M594 266q0 -154 -66.5 -213t-215.5 -59t-215.5 59t-66.5 213q0 152 67 211t215 59t215 -59t67 -211zM151 266q0 -99 36 -140.5t125 -41.5t125 41.5t36 140.5q0 98 -36 139t-125 41t-125 -41t-36 -139z" />
    <glyph glyph-name="afii10081" unicode="&#x43f;" horiz-adv-x="580" 
d="M46 0v440q0 90 90 90h308q90 0 90 -90v-440h-117v410q0 30 -30 30h-194q-30 0 -30 -30v-410h-117z" />
    <glyph glyph-name="afii10082" unicode="&#x440;" horiz-adv-x="568" 
d="M136 530h185q121 0 169 -67t48 -197t-48.5 -198t-168.5 -68h-158v-170h-117v610q0 90 90 90zM163 414v-324h129q77 0 101 44t24 132q0 43 -4 70.5t-16 53.5t-38 38t-67 12h-99q-30 0 -30 -26z" />
    <glyph glyph-name="afii10083" unicode="&#x441;" horiz-adv-x="515" 
d="M479 440h-193q-36 0 -61 -9t-39.5 -23t-22.5 -38t-10 -47t-2 -57q0 -43 4 -70.5t17 -54t41.5 -39t72.5 -12.5h205v-90h-234q-127 0 -177 67.5t-50 198.5q0 130 50 197t177 67h222v-90z" />
    <glyph glyph-name="afii10084" unicode="&#x442;" horiz-adv-x="515" 
d="M316 0h-117v440h-199v90h515v-90h-199v-440z" />
    <glyph glyph-name="afii10085" unicode="&#x443;" horiz-adv-x="570" 
d="M580 530l-316 -701h-119l81 173l-236 528h121l170 -407l180 407h119z" />
    <glyph glyph-name="afii10086" unicode="&#x444;" horiz-adv-x="814" 
d="M349 700h117v-170h110q117 0 162.5 -69t45.5 -195t-45.5 -196t-162.5 -70h-110v-170h-117v170h-110q-61 0 -103.5 20t-65 57.5t-31.5 83t-9 105.5t9 105t31.5 82.5t65 57t103.5 19.5h110v170zM349 90v350h-60q-84 0 -111 -41t-27 -133t27 -134t111 -42h60zM466 90h59
q84 0 111 42t27 134t-26.5 133t-110.5 41h-60v-350z" />
    <glyph glyph-name="afii10087" unicode="&#x445;" horiz-adv-x="513" 
d="M527 0h-137l-134 196l-133 -196h-137l203 272l-190 258h133l124 -182l124 182h133l-189 -258z" />
    <glyph glyph-name="afii10088" unicode="&#x446;" horiz-adv-x="635" 
d="M46 90v440h117v-410q0 -30 30 -30h222v440h117v-440h27q90 0 90 -90v-125h-117v95q0 28 -26 30h-370q-90 0 -90 90z" />
    <glyph glyph-name="afii10089" unicode="&#x447;" horiz-adv-x="561" 
d="M515 0h-117v222h-234q-73 0 -103.5 36.5t-30.5 113.5v158h117v-133q0 -47 15.5 -66t58.5 -19h177v218h117v-530z" />
    <glyph glyph-name="afii10090" unicode="&#x448;" horiz-adv-x="831" 
d="M785 530v-440q0 -90 -90 -90h-559q-90 0 -90 90v440h117v-410q0 -30 30 -30h164v440h117v-440h164q30 0 30 30v410h117z" />
    <glyph glyph-name="afii10091" unicode="&#x449;" horiz-adv-x="888" 
d="M759 0h-623q-90 0 -90 90v440h117v-410q0 -30 30 -30h164v440h117v-440h194v440h117v-440h27q90 0 90 -90v-125h-117v95q0 28 -26 30z" />
    <glyph glyph-name="afii10092" unicode="&#x44a;" horiz-adv-x="664" 
d="M0 440v90h175q90 0 90 -90v-111h239q74 0 104 -41.5t30 -122.5t-30 -123t-104 -42h-266q-90 0 -90 90v320q0 30 -30 30h-118zM265 239v-119q0 -30 30 -30h160q36 0 49 17.5t13 57.5t-13 57t-49 17h-190z" />
    <glyph glyph-name="afii10093" unicode="&#x44b;" horiz-adv-x="752" 
d="M589 0v530h117v-530h-117zM392 0h-256q-90 0 -90 90v440h117v-201h229q74 0 104 -41.5t30 -122.5t-30 -123t-104 -42zM163 239v-119q0 -30 30 -30h150q36 0 49 17.5t13 57.5t-13 57t-49 17h-180z" />
    <glyph glyph-name="afii10094" unicode="&#x44c;" horiz-adv-x="562" 
d="M402 0h-266q-90 0 -90 90v440h117v-201h239q74 0 104 -41.5t30 -122.5t-30 -123t-104 -42zM163 239v-119q0 -30 30 -30h160q36 0 49 17.5t13 57.5t-13 57t-49 17h-190z" />
    <glyph glyph-name="afii10095" unicode="&#x44d;" horiz-adv-x="530" 
d="M246 440h-204v90h231q127 0 177 -67t50 -197q0 -131 -50 -198.5t-177 -67.5h-243v90h216q75 0 103 36t31 106h-331v90h330q-6 58 -35 88t-98 30z" />
    <glyph glyph-name="afii10096" unicode="&#x44e;" horiz-adv-x="824" 
d="M517 536q148 0 212.5 -58.5t64.5 -211.5q0 -154 -64.5 -213t-212.5 -59q-138 0 -203 51t-73 183h-78v-228h-117v530h117v-212h79q11 122 75.5 170t199.5 48zM361 266q0 -100 34 -141t122 -41t122 41t34 141q0 99 -33.5 139.5t-122.5 40.5t-122.5 -40.5t-33.5 -139.5z" />
    <glyph glyph-name="afii10097" unicode="&#x44f;" horiz-adv-x="578" 
d="M24 0l170 183q7 8 7 12q0 6 -10 6h-20q-130 0 -130 165q0 164 130 164h271q90 0 90 -90v-440h-117v410q0 30 -30 30h-165q-31 0 -44.5 -17.5t-13.5 -56.5q0 -79 58 -79h75q51 0 51 -45q0 -37 -24 -64l-155 -178h-143z" />
    <glyph glyph-name="afii10071" unicode="&#x451;" horiz-adv-x="571" 
d="M524 0h-294q-62 0 -102.5 17t-61.5 53.5t-28.5 81.5t-7.5 114q0 154 58.5 212t197.5 58q124 0 189.5 -45.5t65.5 -164.5q0 -100 -82 -100h-308q0 -69 22.5 -102.5t91.5 -33.5h259v-90zM151 316h243q26 0 26 31q0 49 -38.5 74t-95.5 25q-74 0 -104.5 -30.5t-30.5 -99.5z
M339 600v108h108v-108h-108zM231 600h-108v108h108v-108z" />
    <glyph glyph-name="afii10099" unicode="&#x452;" horiz-adv-x="580" 
d="M58 0v590h-78v66h78v44h117v-44h155v-66h-155v-60h159q98 0 152 -41t54 -140v-200q0 -166 -117 -319h-130q62 81 96 157.5t34 166.5v164q0 62 -26 92t-85 30h-137v-440h-117z" />
    <glyph glyph-name="afii10100" unicode="&#x453;" horiz-adv-x="489" 
d="M46 0v440q0 90 90 90h353v-90h-296q-30 0 -30 -30v-410h-117zM288 767l64 -75l-166 -132l-63 74z" />
    <glyph glyph-name="afii10101" unicode="&#x454;" horiz-adv-x="530" 
d="M488 440h-204q-69 0 -98 -30t-35 -88h330v-90h-331q3 -70 31 -106t103 -36h216v-90h-243q-127 0 -177 67.5t-50 198.5q0 130 50 197t177 67h231v-90z" />
    <glyph glyph-name="afii10102" unicode="&#x455;" horiz-adv-x="528" 
d="M33 0v90h298q20 0 34.5 12t14.5 36q0 16 -6 27.5t-20 19t-24 11t-32 9t-29 7.5l-102 28q-82 22 -111.5 57.5t-29.5 96.5q0 72 36 104t116 32h299v-90h-281q-30 0 -43 -10t-13 -38q0 -21 14.5 -35.5t28 -19.5t40.5 -13l114 -32q35 -10 54 -16.5t43.5 -19t37 -27.5
t21.5 -39t9 -55q0 -66 -29 -100.5t-101 -34.5h-339z" />
    <glyph glyph-name="afii10103" unicode="&#x456;" horiz-adv-x="209" 
d="M46 0v530h117v-530h-117zM163 600h-117v108h117v-108z" />
    <glyph glyph-name="afii10104" unicode="&#x457;" horiz-adv-x="213" 
d="M48 0v530h117v-530h-117zM123 600v108h94v-108h-94zM90 600h-94v108h94v-108z" />
    <glyph glyph-name="afii10105" unicode="&#x458;" horiz-adv-x="275" 
d="M-40 -178v90q8 -1 17 -1q70 0 105.5 27.5t35.5 98.5v493h117v-507q0 -113 -62.5 -157.5t-177.5 -44.5q-23 0 -35 1zM235 607h-117v93h117v-93z" />
    <glyph glyph-name="afii10106" unicode="&#x459;" horiz-adv-x="894" 
d="M734 0h-256q-90 0 -90 90v332q0 25 -15 25q-11 0 -18 -14l-234 -433h-135l281 484q14 24 39.5 38t77.5 14q67 0 94 -18.5t27 -59.5v-129h229q74 0 104 -41.5t30 -122.5t-30 -123t-104 -42zM505 239v-119q0 -30 30 -30h150q36 0 49 17.5t13 57.5t-13 57t-49 17h-180z" />
    <glyph glyph-name="afii10107" unicode="&#x45a;" horiz-adv-x="906" 
d="M746 0h-256q-90 0 -90 90v141h-243v-231h-117v530h117v-209h243v209h117v-209h229q74 0 104 -40t30 -120t-30 -120.5t-104 -40.5zM517 231v-111q0 -30 30 -30h150q36 0 49 16t13 55t-13 54.5t-49 15.5h-180z" />
    <glyph glyph-name="afii10108" unicode="&#x45b;" horiz-adv-x="580" 
d="M58 0v590h-78v66h78v44h117v-44h155v-66h-155v-60h159q98 0 152 -41t54 -140v-349h-117v318q0 62 -26 92t-85 30h-137v-440h-117z" />
    <glyph glyph-name="afii10109" unicode="&#x45c;" horiz-adv-x="536" 
d="M550 0h-141l-193 211q-30 33 -30 62q0 27 37 69l169 188h139l-201 -214q-25 -25 -25 -43t19 -37zM163 0h-117v530h117v-530zM313 767l64 -75l-166 -132l-63 74z" />
    <glyph glyph-name="afii10110" unicode="&#x45e;" horiz-adv-x="570" 
d="M580 530l-316 -701h-119l81 173l-236 528h121l170 -407l180 407h119zM369 693h100q-19 -73 -64 -106.5t-121 -33.5q-150 0 -184 140h100q21 -67 84 -67t85 67z" />
    <glyph glyph-name="afii10193" unicode="&#x45f;" horiz-adv-x="580" 
d="M534 530v-440q0 -90 -90 -90h-94v-176h-120v176h-94q-90 0 -90 90v440h117v-410q0 -30 30 -30h194q30 0 30 30v410h117z" />
    <glyph glyph-name="afii10146" unicode="&#x462;" horiz-adv-x="917" 
d="M262 700h132v-84h285v-105h-284v-91h332q91 0 125.5 -54.5t34.5 -154.5q0 -101 -34.5 -156t-123.5 -55h-365q-102 0 -102 105v406h-262v105h262v84zM395 315l-1 -160q0 -30 10 -40t40 -10h217q48 0 69 26t21 80q0 55 -19.5 79.5t-70.5 24.5h-266z" />
    <glyph glyph-name="afii10194" unicode="&#x463;" horiz-adv-x="704" 
d="M544 0h-266q-90 0 -90 90v350h-188v90h188v170h117v-170h210v-90h-210v-111h239q74 0 104 -41.5t30 -122.5t-30 -123t-104 -42zM305 120q0 -30 30 -30h160q36 0 49 17.5t13 57.5t-13 57t-49 17h-190v-119z" />
    <glyph glyph-name="afii10147" unicode="&#x472;" horiz-adv-x="799" 
d="M399 708q102 0 167 -16t110 -57t64 -109.5t19 -175.5t-19 -175.5t-64 -109.5t-110 -57t-167 -16q-101 0 -166 16t-110 57t-64 109.5t-19 175.5t19 175.5t64 109.5t110 57t166 16zM178 291q7 -112 55.5 -153t165.5 -41q125 0 172.5 47.5t50.5 180.5q-55 -36 -126 -36
q-39 0 -100.5 24t-93.5 24q-85 0 -124 -46zM399 603q-121 0 -169 -44t-53 -166q58 33 124 33q36 0 98 -24.5t97 -24.5q37 0 71 14.5t52 38.5q-10 99 -59 136t-161 37z" />
    <glyph glyph-name="afii10195" unicode="&#x473;" horiz-adv-x="624" 
d="M594 266q0 -154 -66.5 -213t-215.5 -59t-215.5 59t-66.5 213q0 152 67 211t215 59t215 -59t67 -211zM154 212q8 -68 45 -98t113 -30q85 0 121 37.5t39 125.5q-36 -31 -79 -31q-35 0 -86 17t-75 17q-43 0 -78 -38zM312 446q-83 0 -119.5 -35t-41.5 -117q37 27 81 27
q31 0 83 -18.5t78 -18.5q38 0 76 42q-10 64 -46.5 92t-110.5 28z" />
    <glyph glyph-name="afii10148" unicode="&#x474;" horiz-adv-x="694" 
d="M625 478l-165 -410q-30 -76 -113 -76t-113 76l-254 632h143l209 -565q0 -1 2 -4.5t3.5 -5t4 -3.5t5.5 -2t5.5 2t4 3.5t3.5 5t2 4.5l126 342q19 52 30 79.5t26.5 59t27.5 45t30 27t38 17.5t48 4h59v-105h-5q-46 0 -65 -22t-52 -104z" />
    <glyph glyph-name="afii10196" unicode="&#x475;" horiz-adv-x="576" 
d="M482 358l-131 -317q-9 -22 -24 -33t-26 -12.5t-31 -1.5t-31 1.5t-26.5 12.5t-24.5 33l-202 489h121l149 -393q8 -21 14 -21t14 21l84 221q38 101 78 139.5t111 38.5q11 0 19 -1v-86q-3 1 -9 1q-26 0 -44.5 -19.5t-40.5 -72.5z" />
    <glyph glyph-name="afii10050" unicode="&#x490;" horiz-adv-x="620" 
d="M488 825h132v-125q0 -105 -102 -105h-276q-30 0 -40 -10t-10 -40v-545h-132v595q0 105 102 105h276q30 0 40 10t10 40v75z" />
    <glyph glyph-name="afii10098" unicode="&#x491;" horiz-adv-x="478" 
d="M478 658v-128q0 -90 -90 -90h-201q-30 0 -30 -30v-410h-117v440q0 90 90 90h201q30 0 30 30v98h117z" />
    <glyph glyph-name="uni04D0" unicode="&#x4d0;" horiz-adv-x="726" 
d="M-16 0l264 629q19 45 43.5 62t71.5 17q45 0 70.5 -17.5t44.5 -61.5l264 -629h-139l-72 177h-337l-71 -177h-139zM343 556l-115 -285h269l-114 285q-11 29 -20 29t-20 -29zM457 870h106q-19 -73 -68 -106.5t-133 -33.5q-166 0 -200 140h106q20 -63 94 -63t95 63z" />
    <glyph glyph-name="uni04D1" unicode="&#x4d1;" horiz-adv-x="565" 
d="M69 530h301q73 0 111 -43t38 -113v-284q0 -90 -90 -90h-267q-132 0 -132 165q0 77 33 121t99 44h240v34q0 76 -74 76h-259v90zM402 240h-195q-56 0 -56 -75t56 -75h165q30 0 30 30v120zM366 693h100q-19 -73 -64 -106.5t-121 -33.5q-150 0 -184 140h100q21 -67 84 -67
t85 67z" />
    <glyph glyph-name="uni04D2" unicode="&#x4d2;" horiz-adv-x="726" 
d="M-16 0l264 629q19 45 43.5 62t71.5 17q45 0 70.5 -17.5t44.5 -61.5l264 -629h-139l-72 177h-337l-71 -177h-139zM343 556l-115 -285h269l-114 285q-11 29 -20 29t-20 -29zM534 760h-120v110h120v-110zM312 760h-120v110h120v-110z" />
    <glyph glyph-name="uni04D3" unicode="&#x4d3;" horiz-adv-x="565" 
d="M69 530h301q73 0 111 -43t38 -113v-284q0 -90 -90 -90h-267q-132 0 -132 165q0 77 33 121t99 44h240v34q0 76 -74 76h-259v90zM402 240h-195q-56 0 -56 -75t56 -75h165q30 0 30 30v120zM335 600v108h108v-108h-108zM227 600h-108v108h108v-108z" />
    <glyph glyph-name="uni04D4" unicode="&#x4d4;" horiz-adv-x="1074" 
d="M1044 105v-105h-459q-102 0 -102 105v71h-254l-101 -176h-148l391 646q33 54 113 54h556v-105h-375q-30 0 -40 -10t-10 -40v-135h415v-105h-415v-150q0 -30 10 -40t40 -10h379zM455 566l-169 -291h197v320q-9 -2 -14 -7.5t-14 -21.5z" />
    <glyph glyph-name="uni04D5" unicode="&#x4d5;" horiz-adv-x="935" 
d="M892 0h-304q-75 0 -112 36q-19 -36 -71 -36h-247q-68 0 -100 39.5t-32 121.5q0 77 33 119t99 42h240v34q0 39 -19 61.5t-55 22.5h-259v90h291q70 0 114 -47q62 53 184 53q125 0 190 -43.5t65 -162.5q0 -98 -82 -98h-308q0 -70 22.5 -106t91.5 -36h259v-90zM398 232h-195
q-30 0 -43 -16.5t-13 -54.5t13 -54.5t43 -16.5h165q30 0 30 30v112zM519 322h243q26 0 26 29q0 49 -38 72t-96 23q-75 0 -105 -28t-30 -96z" />
    <glyph glyph-name="uni04D6" unicode="&#x4d6;" horiz-adv-x="651" 
d="M621 105v-105h-459q-102 0 -102 105v490q0 105 102 105h455v-105h-375q-30 0 -40 -10t-10 -40v-135h415v-105h-415v-150q0 -30 10 -40t40 -10h379zM446 870h106q-19 -73 -68 -106.5t-133 -33.5q-166 0 -200 140h106q20 -63 94 -63t95 63z" />
    <glyph glyph-name="uni04D7" unicode="&#x4d7;" horiz-adv-x="571" 
d="M524 0h-294q-62 0 -102.5 17t-61.5 53.5t-28.5 81.5t-7.5 114q0 154 58.5 212t197.5 58q124 0 189.5 -45.5t65.5 -164.5q0 -100 -82 -100h-308q0 -69 22.5 -102.5t91.5 -33.5h259v-90zM151 316h243q26 0 26 31q0 49 -38.5 74t-95.5 25q-74 0 -104.5 -30.5t-30.5 -99.5z
M370 693h100q-19 -73 -64 -106.5t-121 -33.5q-150 0 -184 140h100q21 -67 84 -67t85 67z" />
    <glyph glyph-name="uni04D8" unicode="&#x4d8;" horiz-adv-x="720" 
d="M383 0h-136q-101 0 -154 47t-53 153q0 93 44.5 150.5t142.5 57.5h315q-8 106 -57 146.5t-164 40.5h-260v105h322q87 0 147 -25.5t92 -75t45 -109.5t13 -140t-13 -140t-45 -109.5t-92 -75t-147 -25.5zM321 105q117 0 165.5 42.5t55.5 155.5h-269q-50 0 -74.5 -23
t-24.5 -75q0 -100 123 -100h24z" />
    <glyph glyph-name="uni04D9" unicode="&#x4d9;" horiz-adv-x="571" 
d="M47 530h294q62 0 102.5 -17t61.5 -53.5t28.5 -81.5t7.5 -114q0 -154 -58.5 -212t-197.5 -58q-124 0 -189.5 45.5t-65.5 164.5q0 100 82 100h308q0 69 -22.5 102.5t-91.5 33.5h-259v90zM420 214h-243q-26 0 -26 -31q0 -49 38.5 -74t95.5 -25q74 0 104.5 30.5t30.5 99.5z
" />
    <glyph glyph-name="uni04DA" unicode="&#x4da;" horiz-adv-x="720" 
d="M383 0h-136q-101 0 -154 47t-53 153q0 93 44.5 150.5t142.5 57.5h315q-8 106 -57 146.5t-164 40.5h-260v105h322q87 0 147 -25.5t92 -75t45 -109.5t13 -140t-13 -140t-45 -109.5t-92 -75t-147 -25.5zM321 105q117 0 165.5 42.5t55.5 155.5h-269q-50 0 -74.5 -23
t-24.5 -75q0 -100 123 -100h24zM512 760h-120v110h120v-110zM290 760h-120v110h120v-110z" />
    <glyph glyph-name="uni04DB" unicode="&#x4db;" horiz-adv-x="571" 
d="M47 530h294q62 0 102.5 -17t61.5 -53.5t28.5 -81.5t7.5 -114q0 -154 -58.5 -212t-197.5 -58q-124 0 -189.5 45.5t-65.5 164.5q0 100 82 100h308q0 69 -22.5 102.5t-91.5 33.5h-259v90zM420 214h-243q-26 0 -26 -31q0 -49 38.5 -74t95.5 -25q74 0 104.5 30.5t30.5 99.5z
M336 600v108h108v-108h-108zM228 600h-108v108h108v-108z" />
    <glyph glyph-name="uni04DC" unicode="&#x4dc;" horiz-adv-x="1068" 
d="M146 0h-166l281 297q3 3 11 11.5t11.5 13t9 11.5t7.5 14t2 14t-3.5 14.5t-7 12t-11.5 13t-11 12.5l-253 287h160l219 -262q34 -40 34 -78q0 -54 -36 -93zM600 700v-700h-132v700h132zM1088 0h-166l-247 267q-36 39 -36 93q0 38 34 78l219 262h160l-253 -287
q-3 -4 -11 -12.5t-11.5 -13t-7 -12t-3.5 -14.5t2 -14t7.5 -14t9 -11.5t11.5 -13t11 -11.5zM705 760h-120v110h120v-110zM483 760h-120v110h120v-110z" />
    <glyph glyph-name="uni04DD" unicode="&#x4dd;" horiz-adv-x="817" 
d="M465 0h-113v530h113v-530zM831 0h-138l-173 210q-31 36 -31 60q0 27 37 72l150 188h136l-181 -217q-22 -25 -22 -39q0 -16 22 -41zM-14 0l200 233q22 28 22 41q0 14 -22 39l-182 217h136l151 -188q37 -45 37 -72q0 -24 -31 -60l-173 -210h-138zM462 600v108h108v-108
h-108zM354 600h-108v108h108v-108z" />
    <glyph glyph-name="uni04DE" unicode="&#x4de;" horiz-adv-x="677" 
d="M513 354q114 -10 114 -162q0 -91 -38 -141.5t-138 -50.5h-401v105h332q59 0 84 22t25 74q0 53 -23.5 76.5t-76.5 23.5h-327v105h325q51 0 69 21t18 75q0 48 -19 70.5t-69 22.5h-334v105h397q161 0 161 -192q0 -136 -99 -150v-4zM509 760h-120v110h120v-110zM287 760h-120
v110h120v-110z" />
    <glyph glyph-name="uni04DF" unicode="&#x4df;" horiz-adv-x="534" 
d="M355 0h-315v90h271q37 0 52.5 16t15.5 54q0 69 -68 69h-256v90h256q64 0 64 61q0 60 -64 60h-262v90h299q73 0 110.5 -27.5t37.5 -98.5q0 -59 -18 -90.5t-69 -37.5v-4q52 -9 71.5 -37.5t19.5 -84.5q0 -78 -32.5 -114t-112.5 -36zM319 600v108h108v-108h-108zM211 600
h-108v108h108v-108z" />
    <glyph glyph-name="uni04E2" unicode="&#x4e2;" horiz-adv-x="786" 
d="M726 0h-133l5 532q0 23 -10 23q-2 0 -4.5 -1.5t-5 -5t-4.5 -6.5l-6 -9t-6 -10l-288 -465q-14 -21 -22 -31.5t-32 -22.5t-57 -12q-35 0 -58 12t-31.5 34t-11 37t-2.5 37v588h133l-4 -522q0 -32 12 -32q2 0 4 1t4 3.5t3.5 5t3.5 6.5t4 6l282 462q27 44 53.5 61t63.5 17
q107 0 107 -126v-582zM563 760h-340v94h340v-94z" />
    <glyph glyph-name="uni04E3" unicode="&#x4e3;" horiz-adv-x="611" 
d="M565 0h-117l4 377q0 14 -6 14q-5 0 -14 -14l-233 -341q-15 -23 -31.5 -32.5t-44.5 -9.5q-77 0 -77 75v461h117l-5 -377q0 -14 8 -14q6 0 14 14l236 347q24 36 72 36q10 0 19.5 -2t24.5 -8.5t24 -25t9 -45.5v-455zM475 600h-340v84h340v-84z" />
    <glyph glyph-name="uni04E4" unicode="&#x4e4;" horiz-adv-x="786" 
d="M726 0h-133l5 532q0 23 -10 23q-2 0 -4.5 -1.5t-5 -5t-4.5 -6.5l-6 -9t-6 -10l-288 -465q-14 -21 -22 -31.5t-32 -22.5t-57 -12q-35 0 -58 12t-31.5 34t-11 37t-2.5 37v588h133l-4 -522q0 -32 12 -32q2 0 4 1t4 3.5t3.5 5t3.5 6.5t4 6l282 462q27 44 53.5 61t63.5 17
q107 0 107 -126v-582zM564 760h-120v110h120v-110zM342 760h-120v110h120v-110z" />
    <glyph glyph-name="uni04E5" unicode="&#x4e5;" horiz-adv-x="611" 
d="M565 0h-117l4 377q0 14 -6 14q-5 0 -14 -14l-233 -341q-15 -23 -31.5 -32.5t-44.5 -9.5q-77 0 -77 75v461h117l-5 -377q0 -14 8 -14q6 0 14 14l236 347q24 36 72 36q10 0 19.5 -2t24.5 -8.5t24 -25t9 -45.5v-455zM359 600v108h108v-108h-108zM251 600h-108v108h108v-108z
" />
    <glyph glyph-name="uni04E6" unicode="&#x4e6;" horiz-adv-x="799" 
d="M399 708q102 0 167 -16t110 -57t64 -109.5t19 -175.5t-19 -175.5t-64 -109.5t-110 -57t-167 -16q-101 0 -166 16t-110 57t-64 109.5t-19 175.5t19 175.5t64 109.5t110 57t166 16zM222 551q-46 -52 -46 -201t46.5 -201t176.5 -52t177 52t47 201t-47 201t-177 52t-177 -52z
M570 760h-120v110h120v-110zM348 760h-120v110h120v-110z" />
    <glyph glyph-name="uni04E7" unicode="&#x4e7;" horiz-adv-x="624" 
d="M594 266q0 -154 -66.5 -213t-215.5 -59t-215.5 59t-66.5 213q0 152 67 211t215 59t215 -59t67 -211zM151 266q0 -99 36 -140.5t125 -41.5t125 41.5t36 140.5q0 98 -36 139t-125 41t-125 -41t-36 -139zM366 600v108h108v-108h-108zM258 600h-108v108h108v-108z" />
    <glyph glyph-name="uni04EE" unicode="&#x4ee;" horiz-adv-x="684" 
d="M337 0h-143l85 155l-299 545h146l221 -424l213 424h144zM512 760h-340v94h340v-94z" />
    <glyph glyph-name="uni04EF" unicode="&#x4ef;" horiz-adv-x="570" 
d="M580 530l-316 -701h-119l81 173l-236 528h121l170 -407l180 407h119zM455 600h-340v84h340v-84z" />
    <glyph glyph-name="uni04F0" unicode="&#x4f0;" horiz-adv-x="684" 
d="M337 0h-143l85 155l-299 545h146l221 -424l213 424h144zM513 760h-120v110h120v-110zM291 760h-120v110h120v-110z" />
    <glyph glyph-name="uni04F1" unicode="&#x4f1;" horiz-adv-x="570" 
d="M580 530l-316 -701h-119l81 173l-236 528h121l170 -407l180 407h119zM339 600v108h108v-108h-108zM231 600h-108v108h108v-108z" />
    <glyph glyph-name="uni04F2" unicode="&#x4f2;" horiz-adv-x="684" 
d="M337 0h-143l85 155l-299 545h146l221 -424l213 424h144zM288 953l67 -66l-148 -147l-67 66zM500 953l67 -66l-148 -147l-66 66z" />
    <glyph glyph-name="uni04F3" unicode="&#x4f3;" horiz-adv-x="570" 
d="M580 530l-316 -701h-119l81 173l-236 528h121l170 -407l180 407h119zM221 773l63 -62l-148 -147l-63 62zM433 773l63 -62l-148 -147l-62 62z" />
    <glyph glyph-name="uni04F4" unicode="&#x4f4;" horiz-adv-x="716" 
d="M656 0h-132v298h-321q-74 0 -113.5 44t-39.5 120v238h132v-214q0 -45 19 -64t64 -19h259v297h132v-700zM529 760h-120v110h120v-110zM307 760h-120v110h120v-110z" />
    <glyph glyph-name="uni04F5" unicode="&#x4f5;" horiz-adv-x="561" 
d="M515 0h-117v222h-234q-73 0 -103.5 36.5t-30.5 113.5v158h117v-133q0 -47 15.5 -66t58.5 -19h177v218h117v-530zM331 600v108h108v-108h-108zM223 600h-108v108h108v-108z" />
    <glyph glyph-name="uni04F8" unicode="&#x4f8;" horiz-adv-x="945" 
d="M885 0h-132v700h132v-700zM60 700h132v-280h323q91 0 125.5 -54.5t34.5 -154.5q0 -101 -34.5 -156t-123.5 -55h-355q-102 0 -102 105v595zM449 315h-257v-160q0 -30 10 -40t40 -10h207q48 0 69 26t21 80q0 55 -19.5 79.5t-70.5 24.5zM643 760h-120v110h120v-110zM421 760
h-120v110h120v-110z" />
    <glyph glyph-name="uni04F9" unicode="&#x4f9;" horiz-adv-x="752" 
d="M589 0v530h117v-530h-117zM392 0h-256q-90 0 -90 90v440h117v-201h229q74 0 104 -41.5t30 -122.5t-30 -123t-104 -42zM163 239v-119q0 -30 30 -30h150q36 0 49 17.5t13 57.5t-13 57t-49 17h-180zM430 600v108h108v-108h-108zM322 600h-108v108h108v-108z" />
    <glyph glyph-name="uni2010" unicode="&#x2010;" horiz-adv-x="437" 
d="M40 218v103h357v-103h-357z" />
    <glyph glyph-name="uni2011" unicode="&#x2011;" horiz-adv-x="437" 
d="M40 218v103h357v-103h-357z" />
    <glyph glyph-name="figuredash" unicode="&#x2012;" horiz-adv-x="572" 
d="M40 302v103h492v-103h-492z" />
    <glyph glyph-name="endash" unicode="&#x2013;" horiz-adv-x="572" 
d="M40 218v103h492v-103h-492z" />
    <glyph glyph-name="emdash" unicode="&#x2014;" horiz-adv-x="1047" 
d="M40 218v103h967v-103h-967z" />
    <glyph glyph-name="afii00208" unicode="&#x2015;" horiz-adv-x="1047" 
d="M40 218v103h967v-103h-967z" />
    <glyph glyph-name="quoteleft" unicode="&#x2018;" horiz-adv-x="291" 
d="M281 542l-95 -58l-126 201l87 53z" />
    <glyph glyph-name="quoteright" unicode="&#x2019;" horiz-adv-x="261" 
d="M87 484l-87 53l126 201l95 -58z" />
    <glyph glyph-name="quotesinglbase" unicode="&#x201a;" horiz-adv-x="281" 
d="M87 -116l-87 53l127 201l94 -58z" />
    <glyph glyph-name="quotedblleft" unicode="&#x201c;" horiz-adv-x="495" 
d="M97 738l133 -196l-94 -58l-126 201zM301 738l134 -196l-94 -58l-127 201z" />
    <glyph glyph-name="quotedblright" unicode="&#x201d;" horiz-adv-x="495" 
d="M10 537l127 201l94 -58l-134 -196zM215 537l126 201l94 -58l-134 -196z" />
    <glyph glyph-name="quotedblbase" unicode="&#x201e;" horiz-adv-x="485" 
d="M0 -63l126 201l94 -58l-133 -196zM204 -63l127 201l94 -58l-134 -196z" />
    <glyph glyph-name="dagger" unicode="&#x2020;" horiz-adv-x="493" 
d="M305 -170h-117v581h-148v90h148v199h117v-199h148v-90h-148v-581z" />
    <glyph glyph-name="daggerdbl" unicode="&#x2021;" horiz-adv-x="493" 
d="M305 -170h-117v193h-148v90h148v298h-148v90h148v199h117v-199h148v-90h-148v-298h148v-90h-148v-193z" />
    <glyph glyph-name="bullet" unicode="&#x2022;" horiz-adv-x="493" 
d="M60 349q0 77 54.5 131.5t132.5 54.5q77 0 131.5 -54.5t54.5 -131.5q0 -76 -55 -131.5t-131 -55.5q-77 0 -132 55.5t-55 131.5z" />
    <glyph glyph-name="ellipsis" unicode="&#x2026;" horiz-adv-x="664" 
d="M182 0h-122v129h122v-129zM393 0h-122v129h122v-129zM604 0h-122v129h122v-129z" />
    <glyph glyph-name="perthousand" unicode="&#x2030;" horiz-adv-x="1186" 
d="M188 0l357 700h88l-357 -700h-88zM380 538q0 -88 -35.5 -128t-129.5 -40t-129.5 40t-35.5 128q0 87 36 127.5t129 40.5t129 -40.5t36 -127.5zM157 607q-15 -21 -15 -69t15 -69.5t58 -21.5t58 21.5t15 69.5t-15 69.5t-58 21.5t-58 -22zM767 162q0 -88 -35.5 -128
t-129.5 -40t-129.5 40t-35.5 128q0 87 36 127.5t129 40.5t129 -40.5t36 -127.5zM544 231q-15 -21 -15 -69t15 -69.5t58 -21.5t58 21.5t15 69.5t-15 69.5t-58 21.5t-58 -22zM1136 162q0 -88 -35.5 -128t-129.5 -40t-129.5 40t-35.5 128q0 87 36 127.5t129 40.5t129 -40.5
t36 -127.5zM913 231q-15 -21 -15 -69t15 -69.5t58 -21.5t58 21.5t15 69.5t-15 69.5t-58 21.5t-58 -22z" />
    <glyph glyph-name="guilsinglleft" unicode="&#x2039;" horiz-adv-x="358" 
d="M298 473l-113 -162q-12 -21 -12 -30q0 -16 12 -30l113 -162l-80 -59l-137 190q-21 30 -21 61t21 61l137 191z" />
    <glyph glyph-name="guilsinglright" unicode="&#x203a;" horiz-adv-x="358" 
d="M60 473l80 60l137 -191q21 -30 21 -61t-21 -61l-137 -190l-80 59l113 162q12 14 12 30q0 9 -12 30z" />
    <glyph glyph-name="fraction" unicode="&#x2044;" horiz-adv-x="507" 
d="M69 -166h-69l438 906h69z" />
    <glyph glyph-name="Euro" unicode="&#x20ac;" horiz-adv-x="702" 
d="M672 0h-292q-68 0 -116.5 15.5t-78 47t-45.5 69.5t-26 92h-74v89h65q-1 12 -1 37t1 38h-65v89h74q10 54 26.5 91.5t46 69t77.5 47t116 15.5h281v-105h-219q-94 0 -136.5 -26t-52.5 -92h334v-89h-346q-1 -12 -1 -38t1 -37h288v-89h-276q10 -67 52.5 -93t136.5 -26h230
v-105z" />
    <glyph glyph-name="uni20B4" unicode="&#x20b4;" horiz-adv-x="640" 
d="M571 105v-105h-351q-81 0 -115.5 27t-34.5 89q0 53 49 112h-109v89h620v-89h-367q-33 -37 -45 -56.5t-12 -38.5q0 -15 13 -21.5t53 -6.5h299zM630 392h-620v89h367q5 6 13 15t11.5 13t9 11t8.5 11t6.5 9t5 9t2.5 8t1 8q0 14 -9 21t-19 8t-31 1h-305v105h340
q85 0 122.5 -26.5t37.5 -92.5q0 -56 -37 -100h97v-89z" />
    <glyph glyph-name="uni20B6" unicode="&#x20b6;" 
d="M80 393v202q0 105 102 105h278q188 0 188 -205q0 -207 -188 -207h-248v-85h220v-105h-220v-98h-132v98h-80v105h80v85h-80v105h80zM212 393h193q59 0 83 24t24 78q0 53 -24 76.5t-83 23.5h-143q-30 0 -40 -10t-10 -40v-152z" />
    <glyph glyph-name="uni20B7" unicode="&#x20b7;" 
d="M80 393v202q0 105 102 105h278q188 0 188 -205q0 -207 -188 -207h-248v-85h220v-105h-220v-98h-132v98h-80v105h80v85h-80v105h80zM212 393h193q59 0 83 24t24 78q0 53 -24 76.5t-83 23.5h-143q-30 0 -40 -10t-10 -40v-152z" />
    <glyph glyph-name="uni20B8" unicode="&#x20b8;" 
d="M80 393v202q0 105 102 105h278q188 0 188 -205q0 -207 -188 -207h-248v-85h220v-105h-220v-98h-132v98h-80v105h80v85h-80v105h80zM212 393h193q59 0 83 24t24 78q0 53 -24 76.5t-83 23.5h-143q-30 0 -40 -10t-10 -40v-152z" />
    <glyph glyph-name="uni20B9" unicode="&#x20b9;" 
d="M80 393v202q0 105 102 105h278q188 0 188 -205q0 -207 -188 -207h-248v-85h220v-105h-220v-98h-132v98h-80v105h80v85h-80v105h80zM212 393h193q59 0 83 24t24 78q0 53 -24 76.5t-83 23.5h-143q-30 0 -40 -10t-10 -40v-152z" />
    <glyph glyph-name="uni20BA" unicode="&#x20ba;" 
d="M80 393v202q0 105 102 105h278q188 0 188 -205q0 -207 -188 -207h-248v-85h220v-105h-220v-98h-132v98h-80v105h80v85h-80v105h80zM212 393h193q59 0 83 24t24 78q0 53 -24 76.5t-83 23.5h-143q-30 0 -40 -10t-10 -40v-152z" />
    <glyph glyph-name="uni20BB" unicode="&#x20bb;" 
d="M80 393v202q0 105 102 105h278q188 0 188 -205q0 -207 -188 -207h-248v-85h220v-105h-220v-98h-132v98h-80v105h80v85h-80v105h80zM212 393h193q59 0 83 24t24 78q0 53 -24 76.5t-83 23.5h-143q-30 0 -40 -10t-10 -40v-152z" />
    <glyph glyph-name="uni20BC" unicode="&#x20bc;" 
d="M80 393v202q0 105 102 105h278q188 0 188 -205q0 -207 -188 -207h-248v-85h220v-105h-220v-98h-132v98h-80v105h80v85h-80v105h80zM212 393h193q59 0 83 24t24 78q0 53 -24 76.5t-83 23.5h-143q-30 0 -40 -10t-10 -40v-152z" />
    <glyph glyph-name="uni20BD" unicode="&#x20bd;" 
d="M80 393v202q0 105 102 105h278q188 0 188 -205q0 -207 -188 -207h-248v-85h220v-105h-220v-98h-132v98h-80v105h80v85h-80v105h80zM212 393h193q59 0 83 24t24 78q0 53 -24 76.5t-83 23.5h-143q-30 0 -40 -10t-10 -40v-152z" />
    <glyph glyph-name="uni20BE" unicode="&#x20be;" 
d="M80 393v202q0 105 102 105h278q188 0 188 -205q0 -207 -188 -207h-248v-85h220v-105h-220v-98h-132v98h-80v105h80v85h-80v105h80zM212 393h193q59 0 83 24t24 78q0 53 -24 76.5t-83 23.5h-143q-30 0 -40 -10t-10 -40v-152z" />
    <glyph glyph-name="uni20BF" unicode="&#x20bf;" 
d="M80 393v202q0 105 102 105h278q188 0 188 -205q0 -207 -188 -207h-248v-85h220v-105h-220v-98h-132v98h-80v105h80v85h-80v105h80zM212 393h193q59 0 83 24t24 78q0 53 -24 76.5t-83 23.5h-143q-30 0 -40 -10t-10 -40v-152z" />
    <glyph glyph-name="uni20C0" unicode="&#x20c0;" 
d="M80 393v202q0 105 102 105h278q188 0 188 -205q0 -207 -188 -207h-248v-85h220v-105h-220v-98h-132v98h-80v105h80v85h-80v105h80zM212 393h193q59 0 83 24t24 78q0 53 -24 76.5t-83 23.5h-143q-30 0 -40 -10t-10 -40v-152z" />
    <glyph glyph-name="uni20C1" unicode="&#x20c1;" 
d="M80 393v202q0 105 102 105h278q188 0 188 -205q0 -207 -188 -207h-248v-85h220v-105h-220v-98h-132v98h-80v105h80v85h-80v105h80zM212 393h193q59 0 83 24t24 78q0 53 -24 76.5t-83 23.5h-143q-30 0 -40 -10t-10 -40v-152z" />
    <glyph glyph-name="uni20C2" unicode="&#x20c2;" 
d="M80 393v202q0 105 102 105h278q188 0 188 -205q0 -207 -188 -207h-248v-85h220v-105h-220v-98h-132v98h-80v105h80v85h-80v105h80zM212 393h193q59 0 83 24t24 78q0 53 -24 76.5t-83 23.5h-143q-30 0 -40 -10t-10 -40v-152z" />
    <glyph glyph-name="uni20C3" unicode="&#x20c3;" 
d="M80 393v202q0 105 102 105h278q188 0 188 -205q0 -207 -188 -207h-248v-85h220v-105h-220v-98h-132v98h-80v105h80v85h-80v105h80zM212 393h193q59 0 83 24t24 78q0 53 -24 76.5t-83 23.5h-143q-30 0 -40 -10t-10 -40v-152z" />
    <glyph glyph-name="uni20C4" unicode="&#x20c4;" 
d="M80 393v202q0 105 102 105h278q188 0 188 -205q0 -207 -188 -207h-248v-85h220v-105h-220v-98h-132v98h-80v105h80v85h-80v105h80zM212 393h193q59 0 83 24t24 78q0 53 -24 76.5t-83 23.5h-143q-30 0 -40 -10t-10 -40v-152z" />
    <glyph glyph-name="uni20C5" unicode="&#x20c5;" 
d="M80 393v202q0 105 102 105h278q188 0 188 -205q0 -207 -188 -207h-248v-85h220v-105h-220v-98h-132v98h-80v105h80v85h-80v105h80zM212 393h193q59 0 83 24t24 78q0 53 -24 76.5t-83 23.5h-143q-30 0 -40 -10t-10 -40v-152z" />
    <glyph glyph-name="uni20C6" unicode="&#x20c6;" 
d="M80 393v202q0 105 102 105h278q188 0 188 -205q0 -207 -188 -207h-248v-85h220v-105h-220v-98h-132v98h-80v105h80v85h-80v105h80zM212 393h193q59 0 83 24t24 78q0 53 -24 76.5t-83 23.5h-143q-30 0 -40 -10t-10 -40v-152z" />
    <glyph glyph-name="uni20C7" unicode="&#x20c7;" 
d="M80 393v202q0 105 102 105h278q188 0 188 -205q0 -207 -188 -207h-248v-85h220v-105h-220v-98h-132v98h-80v105h80v85h-80v105h80zM212 393h193q59 0 83 24t24 78q0 53 -24 76.5t-83 23.5h-143q-30 0 -40 -10t-10 -40v-152z" />
    <glyph glyph-name="uni20C8" unicode="&#x20c8;" 
d="M80 393v202q0 105 102 105h278q188 0 188 -205q0 -207 -188 -207h-248v-85h220v-105h-220v-98h-132v98h-80v105h80v85h-80v105h80zM212 393h193q59 0 83 24t24 78q0 53 -24 76.5t-83 23.5h-143q-30 0 -40 -10t-10 -40v-152z" />
    <glyph glyph-name="uni20C9" unicode="&#x20c9;" 
d="M80 393v202q0 105 102 105h278q188 0 188 -205q0 -207 -188 -207h-248v-85h220v-105h-220v-98h-132v98h-80v105h80v85h-80v105h80zM212 393h193q59 0 83 24t24 78q0 53 -24 76.5t-83 23.5h-143q-30 0 -40 -10t-10 -40v-152z" />
    <glyph glyph-name="uni20CA" unicode="&#x20ca;" 
d="M80 393v202q0 105 102 105h278q188 0 188 -205q0 -207 -188 -207h-248v-85h220v-105h-220v-98h-132v98h-80v105h80v85h-80v105h80zM212 393h193q59 0 83 24t24 78q0 53 -24 76.5t-83 23.5h-143q-30 0 -40 -10t-10 -40v-152z" />
    <glyph glyph-name="uni20CB" unicode="&#x20cb;" 
d="M80 393v202q0 105 102 105h278q188 0 188 -205q0 -207 -188 -207h-248v-85h220v-105h-220v-98h-132v98h-80v105h80v85h-80v105h80zM212 393h193q59 0 83 24t24 78q0 53 -24 76.5t-83 23.5h-143q-30 0 -40 -10t-10 -40v-152z" />
    <glyph glyph-name="uni20CC" unicode="&#x20cc;" 
d="M80 393v202q0 105 102 105h278q188 0 188 -205q0 -207 -188 -207h-248v-85h220v-105h-220v-98h-132v98h-80v105h80v85h-80v105h80zM212 393h193q59 0 83 24t24 78q0 53 -24 76.5t-83 23.5h-143q-30 0 -40 -10t-10 -40v-152z" />
    <glyph glyph-name="uni20CD" unicode="&#x20cd;" 
d="M80 393v202q0 105 102 105h278q188 0 188 -205q0 -207 -188 -207h-248v-85h220v-105h-220v-98h-132v98h-80v105h80v85h-80v105h80zM212 393h193q59 0 83 24t24 78q0 53 -24 76.5t-83 23.5h-143q-30 0 -40 -10t-10 -40v-152z" />
    <glyph glyph-name="uni20CE" unicode="&#x20ce;" 
d="M80 393v202q0 105 102 105h278q188 0 188 -205q0 -207 -188 -207h-248v-85h220v-105h-220v-98h-132v98h-80v105h80v85h-80v105h80zM212 393h193q59 0 83 24t24 78q0 53 -24 76.5t-83 23.5h-143q-30 0 -40 -10t-10 -40v-152z" />
    <glyph glyph-name="uni20CF" unicode="&#x20cf;" 
d="M80 393v202q0 105 102 105h278q188 0 188 -205q0 -207 -188 -207h-248v-85h220v-105h-220v-98h-132v98h-80v105h80v85h-80v105h80zM212 393h193q59 0 83 24t24 78q0 53 -24 76.5t-83 23.5h-143q-30 0 -40 -10t-10 -40v-152z" />
    <glyph glyph-name="afii61352" unicode="&#x2116;" horiz-adv-x="1089" 
d="M665 700v-609q0 -33 -11 -55t-29.5 -30.5t-30.5 -11t-24 -2.5q-76 0 -109 59l-258 466q-7 17 -13 17q-10 0 -10 -22v-512h-120v613q0 10 1 18.5t6.5 23.5t15 26t29.5 19t47 8q73 0 104 -55l261 -469q9 -17 14 -17q7 0 7 19v514h120zM739 263v82h290v-82h-290zM1039 548
q0 -88 -30.5 -123t-124.5 -35t-124.5 35t-30.5 123q0 87 31 122.5t124 35.5t124 -35.5t31 -122.5zM822 582q-1 -12 -1 -34t1.5 -34t7.5 -24.5t19 -17.5t35 -5t35 5t19 17.5t7.5 24.5t1.5 34t-1.5 34t-7.5 24.5t-19 17.5t-35 5t-35 -5t-19 -17.5t-8 -24.5z" />
    <glyph glyph-name="trademark" unicode="&#x2122;" horiz-adv-x="1069" 
d="M281 298h-109v313h-142v90h393v-90h-142v-313zM885 597l-78 -258q-17 -45 -65 -45t-65 45l-77 258q-4 12 -11 12q-8 0 -8 -11v-300h-105v356q0 23 21 37.5t64 14.5q90 0 102 -42l69 -242q6 -13 10 -13t10 13l69 242q12 42 102 42q43 0 64.5 -14.5t21.5 -37.5v-356h-105
v300q0 11 -8 11q-7 0 -11 -12z" />
    <glyph glyph-name="Omega" unicode="&#x2126;" horiz-adv-x="740" 
d="M209 106v14q-58 21 -96.5 65t-54.5 97.5t-16 116.5q0 155 87.5 238.5t240.5 83.5t240.5 -83.5t87.5 -238.5q0 -63 -16 -116.5t-54.5 -97.5t-96.5 -65v-14h151v-106h-166q-91 0 -91 88v73q0 31 32 48q18 9 30.5 18.5t32.5 31t31 58t11 84.5q0 93 -49 140.5t-143 47.5
t-143 -47.5t-49 -140.5q0 -48 11 -84.5t31 -58t32.5 -31t30.5 -18.5q32 -19 32 -48v-73q0 -88 -91 -88h-166v106h151z" />
    <glyph glyph-name="partialdiff" unicode="&#x2202;" horiz-adv-x="573" 
d="M63 705h241q127 0 178 -53.5t51 -182.5v-379q0 -90 -90 -90h-225q-106 0 -149 67.5t-43 197.5q0 124 43.5 194.5t148.5 70.5h198q-14 85 -112 85h-241v90zM416 440h-153q-69 0 -92.5 -44.5t-23.5 -130.5t23.5 -130.5t92.5 -44.5h123q30 0 30 30v320z" />
    <glyph glyph-name="Delta" unicode="&#x2206;" horiz-adv-x="680" 
d="M14 154l214 480q16 36 39.5 55t73.5 19q48 0 71.5 -18.5t39.5 -55.5l214 -480q24 -55 24 -84q0 -70 -77 -70h-546q-77 0 -77 71q0 28 24 83zM323 559l-179 -415q-10 -21 -10 -25q0 -14 21 -14h370q21 0 21 16q0 4 -4 11.5t-6 11.5l-180 415q-8 22 -16 22q-9 0 -17 -22z
" />
    <glyph glyph-name="product" unicode="&#x220f;" horiz-adv-x="742" 
d="M192 0h-132v595q0 105 102 105h418q102 0 102 -105v-595h-132v545q0 30 -10 40t-40 10h-258q-30 0 -40 -10t-10 -40v-545z" />
    <glyph glyph-name="summation" unicode="&#x2211;" horiz-adv-x="622" 
d="M158 574l243 -125q24 -13 35.5 -20.5t21.5 -25t10 -43.5q0 -33 -13 -49.5t-52 -39.5l-245 -145q-17 -10 -17 -14q0 -7 15 -7h436v-105h-485q-77 0 -77 97q0 43 13.5 65t62.5 51l235 137q18 11 18 15t-19 15l-238 121q-46 23 -59 44.5t-13 58.5q0 96 73 96h485v-105h-432
q-17 0 -17 -9q0 -2 2 -3t7.5 -3.5t9.5 -5.5z" />
    <glyph glyph-name="minus" unicode="&#x2212;" horiz-adv-x="580" 
d="M520 274h-460v85h460v-85z" />
    <glyph glyph-name="uni2215" unicode="&#x2215;" horiz-adv-x="507" 
d="M69 -166h-69l438 906h69z" />
    <glyph glyph-name="uni2219" unicode="&#x2219;" horiz-adv-x="242" 
d="M182 250h-122v129h122v-129z" />
    <glyph glyph-name="radical" unicode="&#x221a;" horiz-adv-x="658" 
d="M376 827h282v-105h-185l-174 -722h-140l-61 279h-98v105h189l21 -91q10 -43 10 -71l5 -61v-12h11q14 155 49 297z" />
    <glyph glyph-name="infinity" unicode="&#x221e;" horiz-adv-x="842" 
d="M424 315q-34 -44 -84.5 -71.5t-107.5 -27.5q-83 0 -137.5 55t-54.5 141q0 84 54 140t135 56q49 0 101 -25t89 -75q36 48 87.5 74t104.5 26q82 0 136.5 -55.5t54.5 -139.5q0 -86 -54.5 -141.5t-136.5 -55.5q-112 0 -187 99zM581 503q-32 0 -62 -25.5t-48 -65.5
q15 -40 46 -65.5t67 -25.5q47 0 68 28.5t21 63.5q0 40 -27 65t-65 25zM259 321q37 0 67 25.5t45 65.5q-15 40 -46.5 65.5t-67.5 25.5q-40 0 -63.5 -25t-23.5 -67q0 -44 24.5 -67t64.5 -23z" />
    <glyph glyph-name="integral" unicode="&#x222b;" horiz-adv-x="423" 
d="M270 530v-522q0 -178 -221 -178q-29 0 -41 1v86q30 0 44 0.5t34.5 3t29.5 8t19.5 15.5t14 26t3.5 38v523q0 177 221 177q29 0 41 -1v-86q-30 0 -44 -0.5t-34.5 -3t-29.5 -8t-19.5 -15.5t-14 -26t-3.5 -38z" />
    <glyph glyph-name="approxequal" unicode="&#x2248;" horiz-adv-x="473" 
d="M91 332l-51 36q55 83 121 83q30 0 60 -16l41 -22q35 -19 57 -19t35.5 13.5t27.5 40.5l51 -33q-47 -89 -124 -89q-32 0 -64 17l-34 18q-36 19 -56 19q-37 0 -64 -48zM91 186l-51 36q55 83 121 83q32 0 60 -16l40 -22q33 -19 56 -19t37.5 13.5t27.5 40.5l51 -33
q-47 -89 -124 -89q-32 0 -64 17l-34 18q-36 19 -56 19q-37 0 -64 -48z" />
    <glyph glyph-name="notequal" unicode="&#x2260;" horiz-adv-x="580" 
d="M520 197h-251l-62 -113h-69l62 113h-140v85h187l37 66h-224v85h271l59 107h69l-59 -107h120v-85h-167l-37 -66h204v-85z" />
    <glyph glyph-name="lessequal" unicode="&#x2264;" horiz-adv-x="581" 
d="M520 67h-460v85h460v-85zM60 424l461 232v-104l-277 -128l277 -128v-104z" />
    <glyph glyph-name="greaterequal" unicode="&#x2265;" horiz-adv-x="581" 
d="M61 67v85h460v-85h-460zM521 424l-461 -232v104l277 128l-277 128v104z" />
    <glyph glyph-name="dotmath" unicode="&#x22c5;" horiz-adv-x="242" 
d="M182 250h-122v129h122v-129z" />
    <glyph glyph-name="lozenge" unicode="&#x25ca;" horiz-adv-x="440" 
d="M390 350l-170 -375l-170 375l170 375zM306 350l-86 189l-86 -189l86 -189z" />
    <glyph glyph-name="uniF400" unicode="&#xf400;" horiz-adv-x="2" 
d="M-221 767l60 -75l-162 -132l-59 74z" />
    <glyph glyph-name="uniF401" unicode="&#xf401;" horiz-adv-x="2" 
d="M-298 947l60 -75l-162 -132l-59 74z" />
    <glyph glyph-name="uniF406" unicode="&#xf406;" horiz-adv-x="489" 
d="M339 870h90q-19 -73 -64 -106.5t-121 -33.5q-150 0 -184 140h90q21 -67 94 -67t95 67z" />
    <glyph glyph-name="uniF407" unicode="&#xf407;" horiz-adv-x="258" 
d="M40 -190v56h78q28 0 28 17q0 16 -26 16h-37q-33 0 -33 24q0 8 7 24l26 53h60l-16 -32q0 -1 -2 -4l-1 -4q0 -5 8 -5h13q33 0 53 -17t20 -53q0 -75 -82 -75h-96z" />
    <glyph glyph-name="uniF408" unicode="&#xf408;" horiz-adv-x="457" 
d="M371 740l-117 93q-16 12 -25 12q-11 0 -26 -12l-117 -93l-52 62l146 113q24 18 48 18q26 0 48 -18l147 -113z" />
    <glyph glyph-name="uniF409" unicode="&#xf409;" horiz-adv-x="218" 
d="M86 -289l-96 37l85 222l103 -41z" />
    <glyph glyph-name="uniF40A" unicode="&#xf40a;" horiz-adv-x="218" 
d="M86 464l-96 37l85 222l103 -41z" />
    <glyph glyph-name="uniF40B" unicode="&#xf40b;" horiz-adv-x="252" 
d="M192 758h-132v116h132v-116z" />
    <glyph glyph-name="uniF40C" unicode="&#xf40c;" horiz-adv-x="311" 
d="M156 959q59 0 87 -28t28 -86t-28 -86t-87 -28q-116 0 -116 114t116 114zM156 786q55 0 55 59t-55 59q-56 0 -56 -59t56 -59z" />
    <glyph glyph-name="uniF40D" unicode="&#xf40d;" horiz-adv-x="473" 
d="M91 755l-61 36q43 83 126 83q31 0 65 -18l40 -20q41 -19 56 -19t28 8.5t19.5 18t17.5 27.5l61 -33q-46 -89 -126 -89q-40 0 -72 17l-34 18q-36 19 -55 19q-33 0 -65 -48z" />
    <glyph glyph-name="uniF40E" unicode="&#xf40e;" horiz-adv-x="225" 
d="M185 -180h-87q-25 0 -41.5 13.5t-16.5 41.5q0 20 10 37l46 88h80l-48 -88q-8 -15 -8 -19q0 -13 23 -13h42v-60z" />
    <glyph glyph-name="uniF43E" unicode="&#xf43e;" horiz-adv-x="679" 
d="M252 -190v56h78q28 0 28 17q0 16 -26 16h-37q-33 0 -33 24q0 8 7 24l26 53h-22v595h-273v105h679v-105h-274v-595h-50l-16 -32q0 -1 -2 -4q-1 -3 -1 -4q0 -5 8 -5h13q33 0 53 -17t20 -53q0 -75 -82 -75h-96z" />
    <glyph glyph-name="uniF43F" unicode="&#xf43f;" horiz-adv-x="341" 
d="M100 -190v56h78q28 0 28 17q0 16 -26 16h-37q-33 0 -33 24q0 8 7 24l37 73q-81 37 -81 153v267h-73v90h73v170h117v-170h151v-90h-151v-243q0 -58 30 -82.5t92 -24.5h29v-90h-73q-39 0 -63 5l-18 -37q0 -1 -2 -4q-1 -3 -1 -4q0 -5 8 -5h13q33 0 53 -17t20 -53
q0 -75 -82 -75h-96z" />
    <glyph glyph-name="uniF47E" unicode="&#xf47e;" horiz-adv-x="728" 
d="M536 254v446h132v-446q0 -143 -76.5 -202.5t-227.5 -59.5t-227.5 59.5t-76.5 202.5v446h132v-446q0 -82 41 -119.5t131 -37.5t131 37.5t41 119.5zM430 758h-132v116h132v-116z" />
    <glyph glyph-name="uniF47F" unicode="&#xf47f;" horiz-adv-x="582" 
d="M536 530v-440q0 -90 -90 -90h-194q-98 0 -152 41t-54 140v349h117v-318q0 -62 26 -92t85 -30h115q30 0 30 30v410h117zM231 600v100h119v-100h-119z" />
    <glyph glyph-name="uniF483" unicode="&#xf483;" horiz-adv-x="629" 
d="M608 0h-502q-96 0 -96 72q0 49 43 94l382 395q12 12 12 21q0 13 -19 13h-391v105h503q79 0 79 -72q0 -21 -7 -38.5t-13 -25.5t-20 -22l-387 -408q-10 -10 -10 -18q0 -11 12 -11h414v-105zM315 959q59 0 87 -28t28 -86t-28 -86t-87 -28q-116 0 -116 114t116 114zM315 786
q55 0 55 59t-55 59q-56 0 -56 -59t56 -59z" />
    <glyph glyph-name="uniF484" unicode="&#xf484;" horiz-adv-x="477" 
d="M83 0q-75 0 -75 71q0 19 6 34t12 22.5t18 19.5l272 273q8 8 8 12q0 8 -10 8h-289v90h375q31 0 50 -17.5t19 -49.5q0 -41 -31 -72l-275 -283q-8 -8 -8 -13t9 -5h302v-90h-383zM239 788q59 0 87 -28t28 -86t-28 -86t-87 -28q-116 0 -116 114t116 114zM239 615q55 0 55 59
t-55 59q-56 0 -56 -59t56 -59z" />
    <glyph glyph-name="uniF4C4" unicode="&#xf4c4;" horiz-adv-x="659" 
d="M669 595h-274v-595h-33l-16 -32q0 -1 -2 -4q-1 -3 -1 -4q0 -5 8 -5h13q32 0 50 -15q23 -18 23 -55q0 -42 -27 -61q-20 -14 -65 -14h-86v56h78q28 0 28 17q0 16 -26 16h-37q-15 0 -24 5q-9 6 -9 19q0 8 7 24l26 53h-39v595h-273v105h679v-105z" />
    <glyph glyph-name="uniF4C5" unicode="&#xf4c5;" horiz-adv-x="515" 
d="M515 530v-90h-199v-440h-25l-16 -32q0 -1 -2 -4q-1 -3 -1 -4q0 -5 8 -5h13q32 0 50 -15q23 -18 23 -55q0 -42 -27 -61q-20 -14 -65 -14h-86v56h78q28 0 28 17q0 16 -26 16h-37q-15 0 -24 5q-9 6 -9 19q0 8 7 24l26 53h-32v440h-199v90h515z" />
    <glyph glyph-name="uniF4C8" unicode="&#xf4c8;" horiz-adv-x="659" 
d="M332 -190v56h78q28 0 28 17q0 16 -26 16h-37q-33 0 -33 24q0 8 7 24l26 53h-38q-87 0 -147 25.5t-92 75t-45 109.5t-13 140t13 140t45 109.5t92 75t147 25.5h281v-105h-219q-128 0 -175.5 -51.5t-47.5 -193.5t47.5 -193.5t175.5 -51.5h230v-105h-194l-16 -32q0 -1 -2 -4
q-1 -3 -1 -4q0 -5 8 -5h13q33 0 53 -17t20 -53q0 -75 -82 -75h-96z" />
    <glyph glyph-name="uniF4C9" unicode="&#xf4c9;" horiz-adv-x="513" 
d="M236 -190v56h78q28 0 28 17q0 16 -26 16h-37q-33 0 -33 24q0 8 7 24l26 53h-26q-127 0 -177 67.5t-50 198.5q0 130 50 197t177 67h222v-90h-193q-36 0 -61 -9t-39.5 -23t-22.5 -38t-10 -47t-2 -57q0 -43 4 -70.5t17 -54t41.5 -39t72.5 -12.5h205v-90h-148l-16 -32
q0 -1 -2 -4q-1 -3 -1 -4q0 -5 8 -5h13q33 0 53 -17t20 -53q0 -75 -82 -75h-96z" />
    <glyph glyph-name="uniF4CC" unicode="&#xf4cc;" horiz-adv-x="684" 
d="M337 0h-143l85 155l-299 545h146l221 -424l213 424h144zM412 947l64 -75l-166 -132l-63 74z" />
    <glyph glyph-name="uniF4CD" unicode="&#xf4cd;" horiz-adv-x="570" 
d="M580 530l-316 -701h-119l81 173l-236 528h121l170 -407l180 407h119zM335 767l64 -75l-166 -132l-63 74z" />
    <glyph glyph-name="uniF6BA" unicode="&#xf6ba;" horiz-adv-x="437" 
d="M40 302v103h357v-103h-357z" />
    <glyph glyph-name="uniF6BB" unicode="&#xf6bb;" horiz-adv-x="572" 
d="M40 302v103h492v-103h-492z" />
    <glyph glyph-name="uniF6BC" unicode="&#xf6bc;" horiz-adv-x="1047" 
d="M40 302v103h967v-103h-967z" />
    <glyph glyph-name="uniF6C3" unicode="&#xf6c3;" horiz-adv-x="218" 
d="M86 -279l-96 37l85 222l103 -41z" />
    <glyph glyph-name="uniF6C9" unicode="&#xf6c9;" horiz-adv-x="301" 
d="M201 947l64 -75l-166 -132l-63 74z" />
    <glyph glyph-name="uniF6CA" unicode="&#xf6ca;" horiz-adv-x="457" 
d="M371 923l52 -62l-143 -111q-25 -20 -52 -20q-25 0 -52 20l-142 111l52 62l117 -93q16 -12 26 -12t25 12z" />
    <glyph glyph-name="uniF6CB" unicode="&#xf6cb;" horiz-adv-x="462" 
d="M402 760h-120v110h120v-110zM180 760h-120v110h120v-110z" />
    <glyph glyph-name="uniF6CE" unicode="&#xf6ce;" horiz-adv-x="301" 
d="M100 947l165 -133l-63 -74l-166 132z" />
    <glyph glyph-name="uniF6CF" unicode="&#xf6cf;" horiz-adv-x="507" 
d="M188 953l67 -66l-148 -147l-67 66zM400 953l67 -66l-148 -147l-66 66z" />
    <glyph glyph-name="uniF6D0" unicode="&#xf6d0;" horiz-adv-x="420" 
d="M380 760h-340v94h340v-94z" />
    <glyph glyph-name="uniF6D1" unicode="&#xf6d1;" horiz-adv-x="489" 
d="M339 870h106q-19 -73 -68 -106.5t-133 -33.5q-166 0 -200 140h106q20 -63 94 -63t95 63z" />
    <glyph glyph-name="uniF6D4" unicode="&#xf6d4;" horiz-adv-x="449" 
d="M309 693h100q-19 -73 -64 -106.5t-121 -33.5q-150 0 -184 140h100q21 -67 84 -67t85 67z" />
    <glyph glyph-name="uniF6DE" unicode="&#xf6de;" horiz-adv-x="815" 
d="M45 218v103h725v-103h-725z" />
    <glyph glyph-name="mu1" horiz-adv-x="608" 
d="M60 -178v708h117v-327q0 -48 32 -84q36 -36 93 -36q54 0 89 34q40 40 40 83v330h117v-530h-113v72q-43 -78 -134 -78q-88 0 -129 71v-243h-112z" />
    <glyph glyph-name="afii10091.alt.1" horiz-adv-x="855" 
d="M865 0h-729q-90 0 -90 90v440h117v-410q0 -30 30 -30h164v440h117v-440h194v440h117v-440h80v-90z" />
    <glyph glyph-name="afii10043.alt.1" horiz-adv-x="1076" 
d="M1090 0h-928q-102 0 -102 105v595h132v-545q0 -30 10 -40t40 -10h214v595h132v-595h270v595h132v-595h100v-105z" />
    <glyph glyph-name="afii10088.alt.1" horiz-adv-x="602" 
d="M46 90v440h117v-410q0 -30 30 -30h222v440h117v-440h80v-90h-476q-90 0 -90 90z" />
    <glyph glyph-name="afii10040.alt.1" horiz-adv-x="769" 
d="M192 700v-545q0 -30 10 -40t40 -10h309v595h132v-595h100v-105h-621q-102 0 -102 105v595h132z" />
    <glyph glyph-name="hyphenminus" horiz-adv-x="437" 
d="M40 218v103h357v-103h-357z" />
    <glyph glyph-name="dotlessi1" horiz-adv-x="197" 
d="M40 0v530h117v-530h-117z" />
    <glyph glyph-name="afii10069.alt.1" horiz-adv-x="622" 
d="M-6 0v90h50l173 394q23 52 94 52q70 0 93 -52l174 -394h50v-90h-634zM296 413l-130 -323h290l-131 323q-8 20 -14 20q-7 0 -15 -20z" />
    <glyph glyph-name="afii10021.alt.1" horiz-adv-x="794" 
d="M50 105l235 529q19 42 43 58t69 16t69 -16t43 -58l235 -529h60v-105h-814v105h60zM380 559l-195 -454h424l-196 454q-8 22 -16 22q-9 0 -17 -22z" />
    <glyph glyph-name="hookabovecomb" unicode="&#x309;" horiz-adv-x="302" 
d="M162 612h-76v28q0 15 2 25t7 17.5t12.5 13t18.5 11.5q3 2 13.5 7.5t19.5 11.5t12 12t-8 9h-111v74h114q40 -1 62 -24t22 -54q0 -22 -12 -43.5t-36 -35.5q-11 -5 -20 -11t-20 -11v-30z" />
    <glyph glyph-name="dotbelowcomb" unicode="&#x323;" horiz-adv-x="163" 
d="M21 -129v100h119v-100h-119z" />
    <glyph glyph-name="Utilde" unicode="&#x168;" horiz-adv-x="728" 
d="M536 254v446h132v-446q0 -143 -76.5 -202.5t-227.5 -59.5t-227.5 59.5t-76.5 202.5v446h132v-446q0 -82 41 -119.5t131 -37.5t131 37.5t41 119.5zM218 755l-51 36q19 37 49.5 60t66.5 23q31 0 65 -18l40 -20q41 -19 56 -19q23 0 37.5 13.5t27.5 40.5l51 -33
q-20 -38 -50.5 -63.5t-65.5 -25.5q-40 0 -72 17l-34 18q-36 19 -55 19q-39 0 -65 -48z" />
    <glyph glyph-name="utilde" unicode="&#x169;" horiz-adv-x="582" 
d="M536 530v-440q0 -90 -90 -90h-194q-98 0 -152 41t-54 140v349h117v-318q0 -62 26 -92t85 -30h115q30 0 30 30v410h117zM145 582l-51 36q19 37 49.5 60t66.5 23q31 0 65 -18l40 -20q41 -19 56 -19q23 0 37.5 13.5t27.5 40.5l51 -33q-20 -38 -50.5 -63.5t-65.5 -25.5
q-40 0 -72 17l-34 18q-36 19 -55 19q-39 0 -65 -48z" />
    <glyph glyph-name="Itilde" unicode="&#x128;" horiz-adv-x="252" 
d="M192 0h-132v700h132v-700zM-19 755l-51 36q19 37 49.5 60t66.5 23q31 0 65 -18l40 -20q41 -19 56 -19q23 0 37.5 13.5t27.5 40.5l51 -33q-20 -38 -50.5 -63.5t-65.5 -25.5q-40 0 -72 17l-34 18q-36 19 -55 19q-39 0 -65 -48z" />
    <glyph glyph-name="itilde" unicode="&#x129;" horiz-adv-x="197" 
d="M40 0v530h117v-530h-117zM-47 582l-51 36q19 37 49.5 60t66.5 23q31 0 65 -18l40 -20q41 -19 56 -19q23 0 37.5 13.5t27.5 40.5l51 -33q-20 -38 -50.5 -63.5t-65.5 -25.5q-40 0 -72 17l-34 18q-36 19 -55 19q-39 0 -65 -48z" />
    <glyph glyph-name="Uhorn" unicode="&#x1af;" horiz-adv-x="728" 
d="M554 698q48 0 72 29t24 98h77q0 -103 -45 -155.5t-128 -52.5v81zM536 254v446h132v-446q0 -143 -76.5 -202.5t-227.5 -59.5t-227.5 59.5t-76.5 202.5v446h132v-446q0 -82 41 -119.5t131 -37.5t131 37.5t41 119.5z" />
    <glyph glyph-name="uhorn" unicode="&#x1b0;" horiz-adv-x="582" 
d="M423 528q48 0 72 29t24 98h77q0 -103 -45 -155.5t-128 -52.5v81zM536 530v-440q0 -90 -90 -90h-194q-98 0 -152 41t-54 140v349h117v-318q0 -62 26 -92t85 -30h115q30 0 30 30v410h117z" />
    <glyph glyph-name="Ohorn" unicode="&#x1a0;" horiz-adv-x="799" 
d="M540 683q48 0 72 29t24 98h77q0 -103 -45 -155.5t-128 -52.5v81zM399 708q102 0 167 -16t110 -57t64 -109.5t19 -175.5t-19 -175.5t-64 -109.5t-110 -57t-167 -16q-101 0 -166 16t-110 57t-64 109.5t-19 175.5t19 175.5t64 109.5t110 57t166 16zM222 551
q-46 -52 -46 -201t46.5 -201t176.5 -52t177 52t47 201t-47 201t-177 52t-177 -52z" />
    <glyph glyph-name="ohorn" unicode="&#x1a1;" horiz-adv-x="624" 
d="M423 508q48 0 72 29t24 98h77q0 -103 -45 -155.5t-128 -52.5v81zM594 266q0 -154 -66.5 -213t-215.5 -59t-215.5 59t-66.5 213q0 152 67 211t215 59t215 -59t67 -211zM151 266q0 -99 36 -140.5t125 -41.5t125 41.5t36 140.5q0 98 -36 139t-125 41t-125 -41t-36 -139z" />
    <glyph glyph-name="uni1EA0" unicode="&#x1ea0;" horiz-adv-x="726" 
d="M-16 0l264 629q19 45 43.5 62t71.5 17q45 0 70.5 -17.5t44.5 -61.5l264 -629h-139l-72 177h-337l-71 -177h-139zM343 556l-115 -285h269l-114 285q-11 29 -20 29t-20 -29zM303 -129v100h119v-100h-119z" />
    <glyph glyph-name="uni1EA1" unicode="&#x1ea1;" horiz-adv-x="565" 
d="M69 530h301q73 0 111 -43t38 -113v-284q0 -90 -90 -90h-267q-132 0 -132 165q0 77 33 121t99 44h240v34q0 76 -74 76h-259v90zM402 240h-195q-56 0 -56 -75t56 -75h165q30 0 30 30v120zM223 -129v100h119v-100h-119z" />
    <glyph glyph-name="uni1EA2" unicode="&#x1ea2;" horiz-adv-x="726" 
d="M-16 0l264 629q19 45 43.5 62t71.5 17q45 0 70.5 -17.5t44.5 -61.5l264 -629h-139l-72 177h-337l-71 -177h-139zM343 556l-115 -285h269l-114 285q-11 29 -20 29t-20 -29zM397 740h-76v28q0 15 2 25t7 17.5t12.5 13t18.5 11.5q3 2 13.5 7.5t19.5 11.5t12 12t-8 9h-111v74
h114q40 -1 62 -24t22 -54q0 -22 -12 -43.5t-36 -35.5q-11 -5 -20 -11t-20 -11v-30z" />
    <glyph glyph-name="uni1EA3" unicode="&#x1ea3;" horiz-adv-x="565" 
d="M69 530h301q73 0 111 -43t38 -113v-284q0 -90 -90 -90h-267q-132 0 -132 165q0 77 33 121t99 44h240v34q0 76 -74 76h-259v90zM402 240h-195q-56 0 -56 -75t56 -75h165q30 0 30 30v120zM315 560h-76v28q0 15 2 25t7 17.5t12.5 13t18.5 11.5q3 2 13.5 7.5t19.5 11.5t12 12
t-8 9h-111v74h114q40 -1 62 -24t22 -54q0 -22 -12 -43.5t-36 -35.5q-11 -5 -20 -11t-20 -11v-30z" />
    <glyph glyph-name="uni1EA4" unicode="&#x1ea4;" horiz-adv-x="726" 
d="M-16 0l264 629q19 45 43.5 62t71.5 17q45 0 70.5 -17.5t44.5 -61.5l264 -629h-139l-72 177h-337l-71 -177h-139zM343 556l-115 -285h269l-114 285q-11 29 -20 29t-20 -29zM506 740l-117 93q-16 12 -25 12q-11 0 -26 -12l-117 -93l-52 62l146 113q24 18 48 18q26 0 48 -18
l147 -113zM627 1087l64 -75l-166 -132l-63 74z" />
    <glyph glyph-name="uni1EA5" unicode="&#x1ea5;" horiz-adv-x="565" 
d="M69 530h301q73 0 111 -43t38 -113v-284q0 -90 -90 -90h-267q-132 0 -132 165q0 77 33 121t99 44h240v34q0 76 -74 76h-259v90zM402 240h-195q-56 0 -56 -75t56 -75h165q30 0 30 30v120zM424 560l-117 97q-13 10 -25 10q-13 0 -26 -10l-117 -97l-50 62l144 113
q23 18 48 18q23 0 48 -18l145 -113zM551 917l64 -75l-166 -132l-63 74z" />
    <glyph glyph-name="uni1EA6" unicode="&#x1ea6;" horiz-adv-x="726" 
d="M-16 0l264 629q19 45 43.5 62t71.5 17q45 0 70.5 -17.5t44.5 -61.5l264 -629h-139l-72 177h-337l-71 -177h-139zM343 556l-115 -285h269l-114 285q-11 29 -20 29t-20 -29zM506 740l-117 93q-16 12 -25 12q-11 0 -26 -12l-117 -93l-52 62l146 113q24 18 48 18q26 0 48 -18
l147 -113zM457 1087l165 -133l-63 -74l-166 132z" />
    <glyph glyph-name="uni1EA7" unicode="&#x1ea7;" horiz-adv-x="565" 
d="M69 530h301q73 0 111 -43t38 -113v-284q0 -90 -90 -90h-267q-132 0 -132 165q0 77 33 121t99 44h240v34q0 76 -74 76h-259v90zM402 240h-195q-56 0 -56 -75t56 -75h165q30 0 30 30v120zM424 560l-117 97q-13 10 -25 10q-13 0 -26 -10l-117 -97l-50 62l144 113
q23 18 48 18q23 0 48 -18l145 -113zM376 917l165 -133l-63 -74l-166 132z" />
    <glyph glyph-name="uni1EA8" unicode="&#x1ea8;" horiz-adv-x="726" 
d="M-16 0l264 629q19 45 43.5 62t71.5 17q45 0 70.5 -17.5t44.5 -61.5l264 -629h-139l-72 177h-337l-71 -177h-139zM343 556l-115 -285h269l-114 285q-11 29 -20 29t-20 -29zM506 740l-117 93q-16 12 -25 12q-11 0 -26 -12l-117 -93l-52 62l146 113q24 18 48 18q26 0 48 -18
l147 -113zM582 902h-76v28q0 15 2 25t7 17.5t12.5 13t18.5 11.5q3 2 13.5 7.5t19.5 11.5t12 12t-8 9h-111v74h114q40 -1 62 -24t22 -54q0 -22 -12 -43.5t-36 -35.5q-11 -5 -20 -11t-20 -11v-30z" />
    <glyph glyph-name="uni1EA9" unicode="&#x1ea9;" horiz-adv-x="565" 
d="M69 530h301q73 0 111 -43t38 -113v-284q0 -90 -90 -90h-267q-132 0 -132 165q0 77 33 121t99 44h240v34q0 76 -74 76h-259v90zM402 240h-195q-56 0 -56 -75t56 -75h165q30 0 30 30v120zM424 560l-117 97q-13 10 -25 10q-13 0 -26 -10l-117 -97l-50 62l144 113
q23 18 48 18q23 0 48 -18l145 -113zM495 732h-76v28q0 15 2 25t7 17.5t12.5 13t18.5 11.5q3 2 13.5 7.5t19.5 11.5t12 12t-8 9h-111v74h114q40 -1 62 -24t22 -54q0 -22 -12 -43.5t-36 -35.5q-11 -5 -20 -11t-20 -11v-30z" />
    <glyph glyph-name="uni1EAA" unicode="&#x1eaa;" horiz-adv-x="726" 
d="M-16 0l264 629q19 45 43.5 62t71.5 17q45 0 70.5 -17.5t44.5 -61.5l264 -629h-139l-72 177h-337l-71 -177h-139zM343 556l-115 -285h269l-114 285q-11 29 -20 29t-20 -29zM506 740l-117 93q-16 12 -25 12q-11 0 -26 -12l-117 -93l-52 62l146 113q24 18 48 18q26 0 48 -18
l147 -113zM217 962l-51 36q19 37 49.5 60t66.5 23q31 0 65 -18l40 -20q41 -19 56 -19q23 0 37.5 13.5t27.5 40.5l51 -33q-20 -38 -50.5 -63.5t-65.5 -25.5q-40 0 -72 17l-34 18q-36 19 -55 19q-39 0 -65 -48z" />
    <glyph glyph-name="uni1EAB" unicode="&#x1eab;" horiz-adv-x="565" 
d="M69 530h301q73 0 111 -43t38 -113v-284q0 -90 -90 -90h-267q-132 0 -132 165q0 77 33 121t99 44h240v34q0 76 -74 76h-259v90zM402 240h-195q-56 0 -56 -75t56 -75h165q30 0 30 30v120zM424 560l-117 97q-13 10 -25 10q-13 0 -26 -10l-117 -97l-50 62l144 113
q23 18 48 18q23 0 48 -18l145 -113zM137 782l-51 36q19 37 49.5 60t66.5 23q31 0 65 -18l40 -20q41 -19 56 -19q23 0 37.5 13.5t27.5 40.5l51 -33q-20 -38 -50.5 -63.5t-65.5 -25.5q-40 0 -72 17l-34 18q-36 19 -55 19q-39 0 -65 -48z" />
    <glyph glyph-name="uni1EAC" unicode="&#x1eac;" horiz-adv-x="726" 
d="M303 -129v100h119v-100h-119zM-16 0l264 629q19 45 43.5 62t71.5 17q45 0 70.5 -17.5t44.5 -61.5l264 -629h-139l-72 177h-337l-71 -177h-139zM343 556l-115 -285h269l-114 285q-11 29 -20 29t-20 -29zM506 740l-117 93q-16 12 -25 12q-11 0 -26 -12l-117 -93l-52 62
l146 113q24 18 48 18q26 0 48 -18l147 -113z" />
    <glyph glyph-name="uni1EAD" unicode="&#x1ead;" horiz-adv-x="565" 
d="M223 -129v100h119v-100h-119zM69 530h301q73 0 111 -43t38 -113v-284q0 -90 -90 -90h-267q-132 0 -132 165q0 77 33 121t99 44h240v34q0 76 -74 76h-259v90zM402 240h-195q-56 0 -56 -75t56 -75h165q30 0 30 30v120zM424 560l-117 97q-13 10 -25 10q-13 0 -26 -10
l-117 -97l-50 62l144 113q23 18 48 18q23 0 48 -18l145 -113z" />
    <glyph glyph-name="uni1EAE" unicode="&#x1eae;" horiz-adv-x="726" 
d="M-16 0l264 629q19 45 43.5 62t71.5 17q45 0 70.5 -17.5t44.5 -61.5l264 -629h-139l-72 177h-337l-71 -177h-139zM343 556l-115 -285h269l-114 285q-11 29 -20 29t-20 -29zM458 880h90q-19 -73 -64 -106.5t-121 -33.5q-150 0 -184 140h90q21 -67 94 -67t95 67zM454 1087
l64 -75l-166 -132l-63 74z" />
    <glyph glyph-name="uni1EAF" unicode="&#x1eaf;" horiz-adv-x="565" 
d="M69 530h301q73 0 111 -43t38 -113v-284q0 -90 -90 -90h-267q-132 0 -132 165q0 77 33 121t99 44h240v34q0 76 -74 76h-259v90zM402 240h-195q-56 0 -56 -75t56 -75h165q30 0 30 30v120zM376 693h90q-19 -73 -64 -106.5t-121 -33.5q-150 0 -184 140h90q21 -67 94 -67
t95 67zM374 917l64 -75l-166 -132l-63 74z" />
    <glyph glyph-name="uni1EB0" unicode="&#x1eb0;" horiz-adv-x="726" 
d="M-16 0l264 629q19 45 43.5 62t71.5 17q45 0 70.5 -17.5t44.5 -61.5l264 -629h-139l-72 177h-337l-71 -177h-139zM343 556l-115 -285h269l-114 285q-11 29 -20 29t-20 -29zM458 880h90q-19 -73 -64 -106.5t-121 -33.5q-150 0 -184 140h90q21 -67 94 -67t95 67zM273 1087
l165 -133l-63 -74l-166 132z" />
    <glyph glyph-name="uni1EB1" unicode="&#x1eb1;" horiz-adv-x="565" 
d="M69 530h301q73 0 111 -43t38 -113v-284q0 -90 -90 -90h-267q-132 0 -132 165q0 77 33 121t99 44h240v34q0 76 -74 76h-259v90zM402 240h-195q-56 0 -56 -75t56 -75h165q30 0 30 30v120zM376 693h90q-19 -73 -64 -106.5t-121 -33.5q-150 0 -184 140h90q21 -67 94 -67
t95 67zM197 917l165 -133l-63 -74l-166 132z" />
    <glyph glyph-name="uni1EB2" unicode="&#x1eb2;" horiz-adv-x="726" 
d="M-16 0l264 629q19 45 43.5 62t71.5 17q45 0 70.5 -17.5t44.5 -61.5l264 -629h-139l-72 177h-337l-71 -177h-139zM343 556l-115 -285h269l-114 285q-11 29 -20 29t-20 -29zM458 880h90q-19 -73 -64 -106.5t-121 -33.5q-150 0 -184 140h90q21 -67 94 -67t95 67zM396 892
h-76v28q0 15 2 25t7 17.5t12.5 13t18.5 11.5q3 2 13.5 7.5t19.5 11.5t12 12t-8 9h-111v74h114q40 -1 62 -24t22 -54q0 -22 -12 -43.5t-36 -35.5q-11 -5 -20 -11t-20 -11v-30z" />
    <glyph glyph-name="uni1EB3" unicode="&#x1eb3;" horiz-adv-x="565" 
d="M69 530h301q73 0 111 -43t38 -113v-284q0 -90 -90 -90h-267q-132 0 -132 165q0 77 33 121t99 44h240v34q0 76 -74 76h-259v90zM402 240h-195q-56 0 -56 -75t56 -75h165q30 0 30 30v120zM376 693h90q-19 -73 -64 -106.5t-121 -33.5q-150 0 -184 140h90q21 -67 94 -67
t95 67zM315 712h-76v28q0 15 2 25t7 17.5t12.5 13t18.5 11.5q3 2 13.5 7.5t19.5 11.5t12 12t-8 9h-111v74h114q40 -1 62 -24t22 -54q0 -22 -12 -43.5t-36 -35.5q-11 -5 -20 -11t-20 -11v-30z" />
    <glyph glyph-name="uni1EB4" unicode="&#x1eb4;" horiz-adv-x="726" 
d="M-16 0l264 629q19 45 43.5 62t71.5 17q45 0 70.5 -17.5t44.5 -61.5l264 -629h-139l-72 177h-337l-71 -177h-139zM343 556l-115 -285h269l-114 285q-11 29 -20 29t-20 -29zM458 880h90q-19 -73 -64 -106.5t-121 -33.5q-150 0 -184 140h90q21 -67 94 -67t95 67zM217 962
l-51 36q19 37 49.5 60t66.5 23q31 0 65 -18l40 -20q41 -19 56 -19q23 0 37.5 13.5t27.5 40.5l51 -33q-20 -38 -50.5 -63.5t-65.5 -25.5q-40 0 -72 17l-34 18q-36 19 -55 19q-39 0 -65 -48z" />
    <glyph glyph-name="uni1EB5" unicode="&#x1eb5;" horiz-adv-x="565" 
d="M69 530h301q73 0 111 -43t38 -113v-284q0 -90 -90 -90h-267q-132 0 -132 165q0 77 33 121t99 44h240v34q0 76 -74 76h-259v90zM402 240h-195q-56 0 -56 -75t56 -75h165q30 0 30 30v120zM376 693h90q-19 -73 -64 -106.5t-121 -33.5q-150 0 -184 140h90q21 -67 94 -67
t95 67zM137 782l-51 36q19 37 49.5 60t66.5 23q31 0 65 -18l40 -20q41 -19 56 -19q23 0 37.5 13.5t27.5 40.5l51 -33q-20 -38 -50.5 -63.5t-65.5 -25.5q-40 0 -72 17l-34 18q-36 19 -55 19q-39 0 -65 -48z" />
    <glyph glyph-name="uni1EB6" unicode="&#x1eb6;" horiz-adv-x="726" 
d="M303 -129v100h119v-100h-119zM-16 0l264 629q19 45 43.5 62t71.5 17q45 0 70.5 -17.5t44.5 -61.5l264 -629h-139l-72 177h-337l-71 -177h-139zM343 556l-115 -285h269l-114 285q-11 29 -20 29t-20 -29zM458 880h90q-19 -73 -64 -106.5t-121 -33.5q-150 0 -184 140h90
q21 -67 94 -67t95 67z" />
    <glyph glyph-name="uni1EB7" unicode="&#x1eb7;" horiz-adv-x="565" 
d="M223 -129v100h119v-100h-119zM69 530h301q73 0 111 -43t38 -113v-284q0 -90 -90 -90h-267q-132 0 -132 165q0 77 33 121t99 44h240v34q0 76 -74 76h-259v90zM402 240h-195q-56 0 -56 -75t56 -75h165q30 0 30 30v120zM376 693h90q-19 -73 -64 -106.5t-121 -33.5
q-150 0 -184 140h90q21 -67 94 -67t95 67z" />
    <glyph glyph-name="uni1EB8" unicode="&#x1eb8;" horiz-adv-x="651" 
d="M621 105v-105h-459q-102 0 -102 105v490q0 105 102 105h455v-105h-375q-30 0 -40 -10t-10 -40v-135h415v-105h-415v-150q0 -30 10 -40t40 -10h379zM266 -129v100h119v-100h-119z" />
    <glyph glyph-name="uni1EB9" unicode="&#x1eb9;" horiz-adv-x="571" 
d="M524 0h-294q-62 0 -102.5 17t-61.5 53.5t-28.5 81.5t-7.5 114q0 154 58.5 212t197.5 58q124 0 189.5 -45.5t65.5 -164.5q0 -100 -82 -100h-308q0 -69 22.5 -102.5t91.5 -33.5h259v-90zM151 316h243q26 0 26 31q0 49 -38.5 74t-95.5 25q-74 0 -104.5 -30.5t-30.5 -99.5z
M226 -129v100h119v-100h-119z" />
    <glyph glyph-name="uni1EBA" unicode="&#x1eba;" horiz-adv-x="651" 
d="M621 105v-105h-459q-102 0 -102 105v490q0 105 102 105h455v-105h-375q-30 0 -40 -10t-10 -40v-135h415v-105h-415v-150q0 -30 10 -40t40 -10h379zM358 740h-76v28q0 15 2 25t7 17.5t12.5 13t18.5 11.5q3 2 13.5 7.5t19.5 11.5t12 12t-8 9h-111v74h114q40 -1 62 -24
t22 -54q0 -22 -12 -43.5t-36 -35.5q-11 -5 -20 -11t-20 -11v-30z" />
    <glyph glyph-name="uni1EBB" unicode="&#x1ebb;" horiz-adv-x="571" 
d="M524 0h-294q-62 0 -102.5 17t-61.5 53.5t-28.5 81.5t-7.5 114q0 154 58.5 212t197.5 58q124 0 189.5 -45.5t65.5 -164.5q0 -100 -82 -100h-308q0 -69 22.5 -102.5t91.5 -33.5h259v-90zM151 316h243q26 0 26 31q0 49 -38.5 74t-95.5 25q-74 0 -104.5 -30.5t-30.5 -99.5z
M318 560h-76v28q0 15 2 25t7 17.5t12.5 13t18.5 11.5q3 2 13.5 7.5t19.5 11.5t12 12t-8 9h-111v74h114q40 -1 62 -24t22 -54q0 -22 -12 -43.5t-36 -35.5q-11 -5 -20 -11t-20 -11v-30z" />
    <glyph glyph-name="uni1EBC" unicode="&#x1ebc;" horiz-adv-x="651" 
d="M621 105v-105h-459q-102 0 -102 105v490q0 105 102 105h455v-105h-375q-30 0 -40 -10t-10 -40v-135h415v-105h-415v-150q0 -30 10 -40t40 -10h379zM192 755l-51 36q19 37 49.5 60t66.5 23q31 0 65 -18l40 -20q41 -19 56 -19q23 0 37.5 13.5t27.5 40.5l51 -33
q-20 -38 -50.5 -63.5t-65.5 -25.5q-40 0 -72 17l-34 18q-36 19 -55 19q-39 0 -65 -48z" />
    <glyph glyph-name="uni1EBD" unicode="&#x1ebd;" horiz-adv-x="571" 
d="M524 0h-294q-62 0 -102.5 17t-61.5 53.5t-28.5 81.5t-7.5 114q0 154 58.5 212t197.5 58q124 0 189.5 -45.5t65.5 -164.5q0 -100 -82 -100h-308q0 -69 22.5 -102.5t91.5 -33.5h259v-90zM151 316h243q26 0 26 31q0 49 -38.5 74t-95.5 25q-74 0 -104.5 -30.5t-30.5 -99.5z
M140 582l-51 36q19 37 49.5 60t66.5 23q31 0 65 -18l40 -20q41 -19 56 -19q23 0 37.5 13.5t27.5 40.5l51 -33q-20 -38 -50.5 -63.5t-65.5 -25.5q-40 0 -72 17l-34 18q-36 19 -55 19q-39 0 -65 -48z" />
    <glyph glyph-name="uni1EBE" unicode="&#x1ebe;" horiz-adv-x="651" 
d="M621 105v-105h-459q-102 0 -102 105v490q0 105 102 105h455v-105h-375q-30 0 -40 -10t-10 -40v-135h415v-105h-415v-150q0 -30 10 -40t40 -10h379zM486 740l-117 93q-16 12 -25 12q-11 0 -26 -12l-117 -93l-52 62l146 113q24 18 48 18q26 0 48 -18l147 -113zM615 1087
l64 -75l-166 -132l-63 74z" />
    <glyph glyph-name="uni1EBF" unicode="&#x1ebf;" horiz-adv-x="571" 
d="M524 0h-294q-62 0 -102.5 17t-61.5 53.5t-28.5 81.5t-7.5 114q0 154 58.5 212t197.5 58q124 0 189.5 -45.5t65.5 -164.5q0 -100 -82 -100h-308q0 -69 22.5 -102.5t91.5 -33.5h259v-90zM151 316h243q26 0 26 31q0 49 -38.5 74t-95.5 25q-74 0 -104.5 -30.5t-30.5 -99.5z
M428 560l-117 97q-13 10 -25 10q-13 0 -26 -10l-117 -97l-50 62l144 113q23 18 48 18q23 0 48 -18l145 -113zM550 917l64 -75l-166 -132l-63 74z" />
    <glyph glyph-name="uni1EC0" unicode="&#x1ec0;" horiz-adv-x="651" 
d="M621 105v-105h-459q-102 0 -102 105v490q0 105 102 105h455v-105h-375q-30 0 -40 -10t-10 -40v-135h415v-105h-415v-150q0 -30 10 -40t40 -10h379zM486 740l-117 93q-16 12 -25 12q-11 0 -26 -12l-117 -93l-52 62l146 113q24 18 48 18q26 0 48 -18l147 -113zM448 1087
l165 -133l-63 -74l-166 132z" />
    <glyph glyph-name="uni1EC1" unicode="&#x1ec1;" horiz-adv-x="571" 
d="M524 0h-294q-62 0 -102.5 17t-61.5 53.5t-28.5 81.5t-7.5 114q0 154 58.5 212t197.5 58q124 0 189.5 -45.5t65.5 -164.5q0 -100 -82 -100h-308q0 -69 22.5 -102.5t91.5 -33.5h259v-90zM151 316h243q26 0 26 31q0 49 -38.5 74t-95.5 25q-74 0 -104.5 -30.5t-30.5 -99.5z
M428 560l-117 97q-13 10 -25 10q-13 0 -26 -10l-117 -97l-50 62l144 113q23 18 48 18q23 0 48 -18l145 -113zM381 917l165 -133l-63 -74l-166 132z" />
    <glyph glyph-name="uni1EC2" unicode="&#x1ec2;" horiz-adv-x="651" 
d="M621 105v-105h-459q-102 0 -102 105v490q0 105 102 105h455v-105h-375q-30 0 -40 -10t-10 -40v-135h415v-105h-415v-150q0 -30 10 -40t40 -10h379zM486 740l-117 93q-16 12 -25 12q-11 0 -26 -12l-117 -93l-52 62l146 113q24 18 48 18q26 0 48 -18l147 -113zM567 902h-76
v28q0 15 2 25t7 17.5t12.5 13t18.5 11.5q3 2 13.5 7.5t19.5 11.5t12 12t-8 9h-111v74h114q40 -1 62 -24t22 -54q0 -22 -12 -43.5t-36 -35.5q-11 -5 -20 -11t-20 -11v-30z" />
    <glyph glyph-name="uni1EC3" unicode="&#x1ec3;" horiz-adv-x="571" 
d="M524 0h-294q-62 0 -102.5 17t-61.5 53.5t-28.5 81.5t-7.5 114q0 154 58.5 212t197.5 58q124 0 189.5 -45.5t65.5 -164.5q0 -100 -82 -100h-308q0 -69 22.5 -102.5t91.5 -33.5h259v-90zM151 316h243q26 0 26 31q0 49 -38.5 74t-95.5 25q-74 0 -104.5 -30.5t-30.5 -99.5z
M428 560l-117 97q-13 10 -25 10q-13 0 -26 -10l-117 -97l-50 62l144 113q23 18 48 18q23 0 48 -18l145 -113zM496 732h-76v28q0 15 2 25t7 17.5t12.5 13t18.5 11.5q3 2 13.5 7.5t19.5 11.5t12 12t-8 9h-111v74h114q40 -1 62 -24t22 -54q0 -22 -12 -43.5t-36 -35.5
q-11 -5 -20 -11t-20 -11v-30z" />
    <glyph glyph-name="uni1EC4" unicode="&#x1ec4;" horiz-adv-x="651" 
d="M621 105v-105h-459q-102 0 -102 105v490q0 105 102 105h455v-105h-375q-30 0 -40 -10t-10 -40v-135h415v-105h-415v-150q0 -30 10 -40t40 -10h379zM486 740l-117 93q-16 12 -25 12q-11 0 -26 -12l-117 -93l-52 62l146 113q24 18 48 18q26 0 48 -18l147 -113zM198 962
l-51 36q19 37 49.5 60t66.5 23q31 0 65 -18l40 -20q41 -19 56 -19q23 0 37.5 13.5t27.5 40.5l51 -33q-20 -38 -50.5 -63.5t-65.5 -25.5q-40 0 -72 17l-34 18q-36 19 -55 19q-39 0 -65 -48z" />
    <glyph glyph-name="uni1EC5" unicode="&#x1ec5;" horiz-adv-x="571" 
d="M524 0h-294q-62 0 -102.5 17t-61.5 53.5t-28.5 81.5t-7.5 114q0 154 58.5 212t197.5 58q124 0 189.5 -45.5t65.5 -164.5q0 -100 -82 -100h-308q0 -69 22.5 -102.5t91.5 -33.5h259v-90zM151 316h243q26 0 26 31q0 49 -38.5 74t-95.5 25q-74 0 -104.5 -30.5t-30.5 -99.5z
M428 560l-117 97q-13 10 -25 10q-13 0 -26 -10l-117 -97l-50 62l144 113q23 18 48 18q23 0 48 -18l145 -113zM140 782l-51 36q19 37 49.5 60t66.5 23q31 0 65 -18l40 -20q41 -19 56 -19q23 0 37.5 13.5t27.5 40.5l51 -33q-20 -38 -50.5 -63.5t-65.5 -25.5q-40 0 -72 17
l-34 18q-36 19 -55 19q-39 0 -65 -48z" />
    <glyph glyph-name="uni1EC6" unicode="&#x1ec6;" horiz-adv-x="651" 
d="M266 -129v100h119v-100h-119zM621 105v-105h-459q-102 0 -102 105v490q0 105 102 105h455v-105h-375q-30 0 -40 -10t-10 -40v-135h415v-105h-415v-150q0 -30 10 -40t40 -10h379zM486 740l-117 93q-16 12 -25 12q-11 0 -26 -12l-117 -93l-52 62l146 113q24 18 48 18
q26 0 48 -18l147 -113z" />
    <glyph glyph-name="uni1EC7" unicode="&#x1ec7;" horiz-adv-x="571" 
d="M226 -129v100h119v-100h-119zM524 0h-294q-62 0 -102.5 17t-61.5 53.5t-28.5 81.5t-7.5 114q0 154 58.5 212t197.5 58q124 0 189.5 -45.5t65.5 -164.5q0 -100 -82 -100h-308q0 -69 22.5 -102.5t91.5 -33.5h259v-90zM151 316h243q26 0 26 31q0 49 -38.5 74t-95.5 25
q-74 0 -104.5 -30.5t-30.5 -99.5zM428 560l-117 97q-13 10 -25 10q-13 0 -26 -10l-117 -97l-50 62l144 113q23 18 48 18q23 0 48 -18l145 -113z" />
    <glyph glyph-name="uni1EC8" unicode="&#x1ec8;" horiz-adv-x="252" 
d="M192 0h-132v700h132v-700zM159 740h-76v28q0 15 2 25t7 17.5t12.5 13t18.5 11.5q3 2 13.5 7.5t19.5 11.5t12 12t-8 9h-111v74h114q40 -1 62 -24t22 -54q0 -22 -12 -43.5t-36 -35.5q-11 -5 -20 -11t-20 -11v-30z" />
    <glyph glyph-name="uni1EC9" unicode="&#x1ec9;" horiz-adv-x="197" 
d="M40 0v530h117v-530h-117zM132 560h-76v28q0 15 2 25t7 17.5t12.5 13t18.5 11.5q3 2 13.5 7.5t19.5 11.5t12 12t-8 9h-111v74h114q40 -1 62 -24t22 -54q0 -22 -12 -43.5t-36 -35.5q-11 -5 -20 -11t-20 -11v-30z" />
    <glyph glyph-name="uni1ECA" unicode="&#x1eca;" horiz-adv-x="252" 
d="M192 0h-132v700h132v-700zM66 -129v100h119v-100h-119z" />
    <glyph glyph-name="uni1ECB" unicode="&#x1ecb;" horiz-adv-x="209" 
d="M46 0v530h117v-530h-117zM163 600h-117v108h117v-108zM45 -129v100h119v-100h-119z" />
    <glyph glyph-name="uni1ECC" unicode="&#x1ecc;" horiz-adv-x="799" 
d="M399 708q102 0 167 -16t110 -57t64 -109.5t19 -175.5t-19 -175.5t-64 -109.5t-110 -57t-167 -16q-101 0 -166 16t-110 57t-64 109.5t-19 175.5t19 175.5t64 109.5t110 57t166 16zM222 551q-46 -52 -46 -201t46.5 -201t176.5 -52t177 52t47 201t-47 201t-177 52t-177 -52z
M340 -129v100h119v-100h-119z" />
    <glyph glyph-name="uni1ECD" unicode="&#x1ecd;" horiz-adv-x="624" 
d="M594 266q0 -154 -66.5 -213t-215.5 -59t-215.5 59t-66.5 213q0 152 67 211t215 59t215 -59t67 -211zM151 266q0 -99 36 -140.5t125 -41.5t125 41.5t36 140.5q0 98 -36 139t-125 41t-125 -41t-36 -139zM252 -129v100h119v-100h-119z" />
    <glyph glyph-name="uni1ECE" unicode="&#x1ece;" horiz-adv-x="799" 
d="M399 708q102 0 167 -16t110 -57t64 -109.5t19 -175.5t-19 -175.5t-64 -109.5t-110 -57t-167 -16q-101 0 -166 16t-110 57t-64 109.5t-19 175.5t19 175.5t64 109.5t110 57t166 16zM222 551q-46 -52 -46 -201t46.5 -201t176.5 -52t177 52t47 201t-47 201t-177 52t-177 -52z
M432 740h-76v28q0 15 2 25t7 17.5t12.5 13t18.5 11.5q3 2 13.5 7.5t19.5 11.5t12 12t-8 9h-111v74h114q40 -1 62 -24t22 -54q0 -22 -12 -43.5t-36 -35.5q-11 -5 -20 -11t-20 -11v-30z" />
    <glyph glyph-name="uni1ECF" unicode="&#x1ecf;" horiz-adv-x="624" 
d="M594 266q0 -154 -66.5 -213t-215.5 -59t-215.5 59t-66.5 213q0 152 67 211t215 59t215 -59t67 -211zM151 266q0 -99 36 -140.5t125 -41.5t125 41.5t36 140.5q0 98 -36 139t-125 41t-125 -41t-36 -139zM345 560h-76v28q0 15 2 25t7 17.5t12.5 13t18.5 11.5q3 2 13.5 7.5
t19.5 11.5t12 12t-8 9h-111v74h114q40 -1 62 -24t22 -54q0 -22 -12 -43.5t-36 -35.5q-11 -5 -20 -11t-20 -11v-30z" />
    <glyph glyph-name="uni1ED0" unicode="&#x1ed0;" horiz-adv-x="799" 
d="M399 708q102 0 167 -16t110 -57t64 -109.5t19 -175.5t-19 -175.5t-64 -109.5t-110 -57t-167 -16q-101 0 -166 16t-110 57t-64 109.5t-19 175.5t19 175.5t64 109.5t110 57t166 16zM222 551q-46 -52 -46 -201t46.5 -201t176.5 -52t177 52t47 201t-47 201t-177 52t-177 -52z
M542 740l-117 93q-16 12 -25 12q-11 0 -26 -12l-117 -93l-52 62l146 113q24 18 48 18q26 0 48 -18l147 -113zM664 1087l64 -75l-166 -132l-63 74z" />
    <glyph glyph-name="uni1ED1" unicode="&#x1ed1;" horiz-adv-x="624" 
d="M594 266q0 -154 -66.5 -213t-215.5 -59t-215.5 59t-66.5 213q0 152 67 211t215 59t215 -59t67 -211zM151 266q0 -99 36 -140.5t125 -41.5t125 41.5t36 140.5q0 98 -36 139t-125 41t-125 -41t-36 -139zM454 560l-117 97q-13 10 -25 10q-13 0 -26 -10l-117 -97l-50 62
l144 113q23 18 48 18q23 0 48 -18l145 -113zM579 917l64 -75l-166 -132l-63 74z" />
    <glyph glyph-name="uni1ED2" unicode="&#x1ed2;" horiz-adv-x="799" 
d="M399 708q102 0 167 -16t110 -57t64 -109.5t19 -175.5t-19 -175.5t-64 -109.5t-110 -57t-167 -16q-101 0 -166 16t-110 57t-64 109.5t-19 175.5t19 175.5t64 109.5t110 57t166 16zM222 551q-46 -52 -46 -201t46.5 -201t176.5 -52t177 52t47 201t-47 201t-177 52t-177 -52z
M542 740l-117 93q-16 12 -25 12q-11 0 -26 -12l-117 -93l-52 62l146 113q24 18 48 18q26 0 48 -18l147 -113zM497 1087l165 -133l-63 -74l-166 132z" />
    <glyph glyph-name="uni1ED3" unicode="&#x1ed3;" horiz-adv-x="624" 
d="M594 266q0 -154 -66.5 -213t-215.5 -59t-215.5 59t-66.5 213q0 152 67 211t215 59t215 -59t67 -211zM151 266q0 -99 36 -140.5t125 -41.5t125 41.5t36 140.5q0 98 -36 139t-125 41t-125 -41t-36 -139zM454 560l-117 97q-13 10 -25 10q-13 0 -26 -10l-117 -97l-50 62
l144 113q23 18 48 18q23 0 48 -18l145 -113zM400 917l165 -133l-63 -74l-166 132z" />
    <glyph glyph-name="uni1ED4" unicode="&#x1ed4;" horiz-adv-x="799" 
d="M399 708q102 0 167 -16t110 -57t64 -109.5t19 -175.5t-19 -175.5t-64 -109.5t-110 -57t-167 -16q-101 0 -166 16t-110 57t-64 109.5t-19 175.5t19 175.5t64 109.5t110 57t166 16zM222 551q-46 -52 -46 -201t46.5 -201t176.5 -52t177 52t47 201t-47 201t-177 52t-177 -52z
M542 740l-117 93q-16 12 -25 12q-11 0 -26 -12l-117 -93l-52 62l146 113q24 18 48 18q26 0 48 -18l147 -113zM612 902h-76v28q0 15 2 25t7 17.5t12.5 13t18.5 11.5q3 2 13.5 7.5t19.5 11.5t12 12t-8 9h-111v74h114q40 -1 62 -24t22 -54q0 -22 -12 -43.5t-36 -35.5
q-11 -5 -20 -11t-20 -11v-30z" />
    <glyph glyph-name="uni1ED5" unicode="&#x1ed5;" horiz-adv-x="624" 
d="M594 266q0 -154 -66.5 -213t-215.5 -59t-215.5 59t-66.5 213q0 152 67 211t215 59t215 -59t67 -211zM151 266q0 -99 36 -140.5t125 -41.5t125 41.5t36 140.5q0 98 -36 139t-125 41t-125 -41t-36 -139zM454 560l-117 97q-13 10 -25 10q-13 0 -26 -10l-117 -97l-50 62
l144 113q23 18 48 18q23 0 48 -18l145 -113zM516 732h-76v28q0 15 2 25t7 17.5t12.5 13t18.5 11.5q3 2 13.5 7.5t19.5 11.5t12 12t-8 9h-111v74h114q40 -1 62 -24t22 -54q0 -22 -12 -43.5t-36 -35.5q-11 -5 -20 -11t-20 -11v-30z" />
    <glyph glyph-name="uni1ED6" unicode="&#x1ed6;" horiz-adv-x="799" 
d="M399 708q102 0 167 -16t110 -57t64 -109.5t19 -175.5t-19 -175.5t-64 -109.5t-110 -57t-167 -16q-101 0 -166 16t-110 57t-64 109.5t-19 175.5t19 175.5t64 109.5t110 57t166 16zM222 551q-46 -52 -46 -201t46.5 -201t176.5 -52t177 52t47 201t-47 201t-177 52t-177 -52z
M542 740l-117 93q-16 12 -25 12q-11 0 -26 -12l-117 -93l-52 62l146 113q24 18 48 18q26 0 48 -18l147 -113zM254 962l-51 36q19 37 49.5 60t66.5 23q31 0 65 -18l40 -20q41 -19 56 -19q23 0 37.5 13.5t27.5 40.5l51 -33q-20 -38 -50.5 -63.5t-65.5 -25.5q-40 0 -72 17
l-34 18q-36 19 -55 19q-39 0 -65 -48z" />
    <glyph glyph-name="uni1ED7" unicode="&#x1ed7;" horiz-adv-x="624" 
d="M594 266q0 -154 -66.5 -213t-215.5 -59t-215.5 59t-66.5 213q0 152 67 211t215 59t215 -59t67 -211zM151 266q0 -99 36 -140.5t125 -41.5t125 41.5t36 140.5q0 98 -36 139t-125 41t-125 -41t-36 -139zM454 560l-117 97q-13 10 -25 10q-13 0 -26 -10l-117 -97l-50 62
l144 113q23 18 48 18q23 0 48 -18l145 -113zM166 782l-51 36q19 37 49.5 60t66.5 23q31 0 65 -18l40 -20q41 -19 56 -19q23 0 37.5 13.5t27.5 40.5l51 -33q-20 -38 -50.5 -63.5t-65.5 -25.5q-40 0 -72 17l-34 18q-36 19 -55 19q-39 0 -65 -48z" />
    <glyph glyph-name="uni1ED8" unicode="&#x1ed8;" horiz-adv-x="799" 
d="M340 -129v100h119v-100h-119zM399 708q102 0 167 -16t110 -57t64 -109.5t19 -175.5t-19 -175.5t-64 -109.5t-110 -57t-167 -16q-101 0 -166 16t-110 57t-64 109.5t-19 175.5t19 175.5t64 109.5t110 57t166 16zM222 551q-46 -52 -46 -201t46.5 -201t176.5 -52t177 52
t47 201t-47 201t-177 52t-177 -52zM542 740l-117 93q-16 12 -25 12q-11 0 -26 -12l-117 -93l-52 62l146 113q24 18 48 18q26 0 48 -18l147 -113z" />
    <glyph glyph-name="uni1ED9" unicode="&#x1ed9;" horiz-adv-x="624" 
d="M252 -129v100h119v-100h-119zM594 266q0 -154 -66.5 -213t-215.5 -59t-215.5 59t-66.5 213q0 152 67 211t215 59t215 -59t67 -211zM151 266q0 -99 36 -140.5t125 -41.5t125 41.5t36 140.5q0 98 -36 139t-125 41t-125 -41t-36 -139zM454 560l-117 97q-13 10 -25 10
q-13 0 -26 -10l-117 -97l-50 62l144 113q23 18 48 18q23 0 48 -18l145 -113z" />
    <glyph glyph-name="uni1EDA" unicode="&#x1eda;" horiz-adv-x="799" 
d="M540 683q48 0 72 29t24 98h77q0 -103 -45 -155.5t-128 -52.5v81zM399 708q102 0 167 -16t110 -57t64 -109.5t19 -175.5t-19 -175.5t-64 -109.5t-110 -57t-167 -16q-101 0 -166 16t-110 57t-64 109.5t-19 175.5t19 175.5t64 109.5t110 57t166 16zM222 551
q-46 -52 -46 -201t46.5 -201t176.5 -52t177 52t47 201t-47 201t-177 52t-177 -52zM449 946l64 -75l-166 -132l-63 74z" />
    <glyph glyph-name="uni1EDB" unicode="&#x1edb;" horiz-adv-x="624" 
d="M423 508q48 0 72 29t24 98h77q0 -103 -45 -155.5t-128 -52.5v81zM594 266q0 -154 -66.5 -213t-215.5 -59t-215.5 59t-66.5 213q0 152 67 211t215 59t215 -59t67 -211zM151 266q0 -99 36 -140.5t125 -41.5t125 41.5t36 140.5q0 98 -36 139t-125 41t-125 -41t-36 -139z
M362 767l64 -75l-166 -132l-63 74z" />
    <glyph glyph-name="uni1EDC" unicode="&#x1edc;" horiz-adv-x="799" 
d="M540 683q48 0 72 29t24 98h77q0 -103 -45 -155.5t-128 -52.5v81zM399 708q102 0 167 -16t110 -57t64 -109.5t19 -175.5t-19 -175.5t-64 -109.5t-110 -57t-167 -16q-101 0 -166 16t-110 57t-64 109.5t-19 175.5t19 175.5t64 109.5t110 57t166 16zM222 551
q-46 -52 -46 -201t46.5 -201t176.5 -52t177 52t47 201t-47 201t-177 52t-177 -52zM349 947l165 -133l-63 -74l-166 132z" />
    <glyph glyph-name="uni1EDD" unicode="&#x1edd;" horiz-adv-x="624" 
d="M423 508q48 0 72 29t24 98h77q0 -103 -45 -155.5t-128 -52.5v81zM594 266q0 -154 -66.5 -213t-215.5 -59t-215.5 59t-66.5 213q0 152 67 211t215 59t215 -59t67 -211zM151 266q0 -99 36 -140.5t125 -41.5t125 41.5t36 140.5q0 98 -36 139t-125 41t-125 -41t-36 -139z
M261 767l165 -133l-63 -74l-166 132z" />
    <glyph glyph-name="uni1EDE" unicode="&#x1ede;" horiz-adv-x="799" 
d="M540 683q48 0 72 29t24 98h77q0 -103 -45 -155.5t-128 -52.5v81zM399 708q102 0 167 -16t110 -57t64 -109.5t19 -175.5t-19 -175.5t-64 -109.5t-110 -57t-167 -16q-101 0 -166 16t-110 57t-64 109.5t-19 175.5t19 175.5t64 109.5t110 57t166 16zM222 551
q-46 -52 -46 -201t46.5 -201t176.5 -52t177 52t47 201t-47 201t-177 52t-177 -52zM432 740h-76v28q0 15 2 25t7 17.5t12.5 13t18.5 11.5q3 2 13.5 7.5t19.5 11.5t12 12t-8 9h-111v74h114q40 -1 62 -24t22 -54q0 -22 -12 -43.5t-36 -35.5q-11 -5 -20 -11t-20 -11v-30z" />
    <glyph glyph-name="uni1EDF" unicode="&#x1edf;" horiz-adv-x="624" 
d="M423 508q48 0 72 29t24 98h77q0 -103 -45 -155.5t-128 -52.5v81zM594 266q0 -154 -66.5 -213t-215.5 -59t-215.5 59t-66.5 213q0 152 67 211t215 59t215 -59t67 -211zM151 266q0 -99 36 -140.5t125 -41.5t125 41.5t36 140.5q0 98 -36 139t-125 41t-125 -41t-36 -139z
M345 560h-76v28q0 15 2 25t7 17.5t12.5 13t18.5 11.5q3 2 13.5 7.5t19.5 11.5t12 12t-8 9h-111v74h114q40 -1 62 -24t22 -54q0 -22 -12 -43.5t-36 -35.5q-11 -5 -20 -11t-20 -11v-30z" />
    <glyph glyph-name="uni1EE0" unicode="&#x1ee0;" horiz-adv-x="799" 
d="M540 683q48 0 72 29t24 98h77q0 -103 -45 -155.5t-128 -52.5v81zM399 708q102 0 167 -16t110 -57t64 -109.5t19 -175.5t-19 -175.5t-64 -109.5t-110 -57t-167 -16q-101 0 -166 16t-110 57t-64 109.5t-19 175.5t19 175.5t64 109.5t110 57t166 16zM222 551
q-46 -52 -46 -201t46.5 -201t176.5 -52t177 52t47 201t-47 201t-177 52t-177 -52zM254 746l-51 36q19 37 49.5 60t66.5 23q31 0 65 -18l40 -20q41 -19 56 -19q23 0 37.5 13.5t27.5 40.5l51 -33q-20 -38 -50.5 -63.5t-65.5 -25.5q-40 0 -72 17l-34 18q-36 19 -55 19
q-39 0 -65 -48z" />
    <glyph glyph-name="uni1EE1" unicode="&#x1ee1;" horiz-adv-x="624" 
d="M423 508q48 0 72 29t24 98h77q0 -103 -45 -155.5t-128 -52.5v81zM594 266q0 -154 -66.5 -213t-215.5 -59t-215.5 59t-66.5 213q0 152 67 211t215 59t215 -59t67 -211zM151 266q0 -99 36 -140.5t125 -41.5t125 41.5t36 140.5q0 98 -36 139t-125 41t-125 -41t-36 -139z
M166 582l-51 36q19 37 49.5 60t66.5 23q31 0 65 -18l40 -20q41 -19 56 -19q23 0 37.5 13.5t27.5 40.5l51 -33q-20 -38 -50.5 -63.5t-65.5 -25.5q-40 0 -72 17l-34 18q-36 19 -55 19q-39 0 -65 -48z" />
    <glyph glyph-name="uni1EE2" unicode="&#x1ee2;" horiz-adv-x="799" 
d="M540 683q48 0 72 29t24 98h77q0 -103 -45 -155.5t-128 -52.5v81zM399 708q102 0 167 -16t110 -57t64 -109.5t19 -175.5t-19 -175.5t-64 -109.5t-110 -57t-167 -16q-101 0 -166 16t-110 57t-64 109.5t-19 175.5t19 175.5t64 109.5t110 57t166 16zM222 551
q-46 -52 -46 -201t46.5 -201t176.5 -52t177 52t47 201t-47 201t-177 52t-177 -52zM340 -129v100h119v-100h-119z" />
    <glyph glyph-name="uni1EE3" unicode="&#x1ee3;" horiz-adv-x="624" 
d="M423 508q48 0 72 29t24 98h77q0 -103 -45 -155.5t-128 -52.5v81zM594 266q0 -154 -66.5 -213t-215.5 -59t-215.5 59t-66.5 213q0 152 67 211t215 59t215 -59t67 -211zM151 266q0 -99 36 -140.5t125 -41.5t125 41.5t36 140.5q0 98 -36 139t-125 41t-125 -41t-36 -139z
M252 -129v100h119v-100h-119z" />
    <glyph glyph-name="uni1EE4" unicode="&#x1ee4;" horiz-adv-x="728" 
d="M536 254v446h132v-446q0 -143 -76.5 -202.5t-227.5 -59.5t-227.5 59.5t-76.5 202.5v446h132v-446q0 -82 41 -119.5t131 -37.5t131 37.5t41 119.5zM304 -129v100h119v-100h-119z" />
    <glyph glyph-name="uni1EE5" unicode="&#x1ee5;" horiz-adv-x="582" 
d="M536 530v-440q0 -90 -90 -90h-194q-98 0 -152 41t-54 140v349h117v-318q0 -62 26 -92t85 -30h115q30 0 30 30v410h117zM231 -129v100h119v-100h-119z" />
    <glyph glyph-name="uni1EE6" unicode="&#x1ee6;" horiz-adv-x="728" 
d="M536 254v446h132v-446q0 -143 -76.5 -202.5t-227.5 -59.5t-227.5 59.5t-76.5 202.5v446h132v-446q0 -82 41 -119.5t131 -37.5t131 37.5t41 119.5zM397 740h-76v28q0 15 2 25t7 17.5t12.5 13t18.5 11.5q3 2 13.5 7.5t19.5 11.5t12 12t-8 9h-111v74h114q40 -1 62 -24
t22 -54q0 -22 -12 -43.5t-36 -35.5q-11 -5 -20 -11t-20 -11v-30z" />
    <glyph glyph-name="uni1EE7" unicode="&#x1ee7;" horiz-adv-x="582" 
d="M536 530v-440q0 -90 -90 -90h-194q-98 0 -152 41t-54 140v349h117v-318q0 -62 26 -92t85 -30h115q30 0 30 30v410h117zM324 560h-76v28q0 15 2 25t7 17.5t12.5 13t18.5 11.5q3 2 13.5 7.5t19.5 11.5t12 12t-8 9h-111v74h114q40 -1 62 -24t22 -54q0 -22 -12 -43.5
t-36 -35.5q-11 -5 -20 -11t-20 -11v-30z" />
    <glyph glyph-name="uni1EE8" unicode="&#x1ee8;" horiz-adv-x="728" 
d="M554 698q48 0 72 29t24 98h77q0 -103 -45 -155.5t-128 -52.5v81zM536 254v446h132v-446q0 -143 -76.5 -202.5t-227.5 -59.5t-227.5 59.5t-76.5 202.5v446h132v-446q0 -82 41 -119.5t131 -37.5t131 37.5t41 119.5zM414 947l64 -75l-166 -132l-63 74z" />
    <glyph glyph-name="uni1EE9" unicode="&#x1ee9;" horiz-adv-x="582" 
d="M423 528q48 0 72 29t24 98h77q0 -103 -45 -155.5t-128 -52.5v81zM536 530v-440q0 -90 -90 -90h-194q-98 0 -152 41t-54 140v349h117v-318q0 -62 26 -92t85 -30h115q30 0 30 30v410h117zM351 767l64 -75l-166 -132l-63 74z" />
    <glyph glyph-name="uni1EEA" unicode="&#x1eea;" horiz-adv-x="728" 
d="M554 698q48 0 72 29t24 98h77q0 -103 -45 -155.5t-128 -52.5v81zM536 254v446h132v-446q0 -143 -76.5 -202.5t-227.5 -59.5t-227.5 59.5t-76.5 202.5v446h132v-446q0 -82 41 -119.5t131 -37.5t131 37.5t41 119.5zM303 947l165 -133l-63 -74l-166 132z" />
    <glyph glyph-name="uni1EEB" unicode="&#x1eeb;" horiz-adv-x="582" 
d="M423 528q48 0 72 29t24 98h77q0 -103 -45 -155.5t-128 -52.5v81zM536 530v-440q0 -90 -90 -90h-194q-98 0 -152 41t-54 140v349h117v-318q0 -62 26 -92t85 -30h115q30 0 30 30v410h117zM230 767l165 -133l-63 -74l-166 132z" />
    <glyph glyph-name="uni1EEC" unicode="&#x1eec;" horiz-adv-x="728" 
d="M554 698q48 0 72 29t24 98h77q0 -103 -45 -155.5t-128 -52.5v81zM536 254v446h132v-446q0 -143 -76.5 -202.5t-227.5 -59.5t-227.5 59.5t-76.5 202.5v446h132v-446q0 -82 41 -119.5t131 -37.5t131 37.5t41 119.5zM397 740h-76v28q0 15 2 25t7 17.5t12.5 13t18.5 11.5
q3 2 13.5 7.5t19.5 11.5t12 12t-8 9h-111v74h114q40 -1 62 -24t22 -54q0 -22 -12 -43.5t-36 -35.5q-11 -5 -20 -11t-20 -11v-30z" />
    <glyph glyph-name="uni1EED" unicode="&#x1eed;" horiz-adv-x="582" 
d="M423 528q48 0 72 29t24 98h77q0 -103 -45 -155.5t-128 -52.5v81zM536 530v-440q0 -90 -90 -90h-194q-98 0 -152 41t-54 140v349h117v-318q0 -62 26 -92t85 -30h115q30 0 30 30v410h117zM324 560h-76v28q0 15 2 25t7 17.5t12.5 13t18.5 11.5q3 2 13.5 7.5t19.5 11.5t12 12
t-8 9h-111v74h114q40 -1 62 -24t22 -54q0 -22 -12 -43.5t-36 -35.5q-11 -5 -20 -11t-20 -11v-30z" />
    <glyph glyph-name="uni1EEE" unicode="&#x1eee;" horiz-adv-x="728" 
d="M554 698q48 0 72 29t24 98h77q0 -103 -45 -155.5t-128 -52.5v81zM536 254v446h132v-446q0 -143 -76.5 -202.5t-227.5 -59.5t-227.5 59.5t-76.5 202.5v446h132v-446q0 -82 41 -119.5t131 -37.5t131 37.5t41 119.5zM218 755l-51 36q19 37 49.5 60t66.5 23q31 0 65 -18
l40 -20q41 -19 56 -19q23 0 37.5 13.5t27.5 40.5l51 -33q-20 -38 -50.5 -63.5t-65.5 -25.5q-40 0 -72 17l-34 18q-36 19 -55 19q-39 0 -65 -48z" />
    <glyph glyph-name="uni1EEF" unicode="&#x1eef;" horiz-adv-x="582" 
d="M423 528q48 0 72 29t24 98h77q0 -103 -45 -155.5t-128 -52.5v81zM536 530v-440q0 -90 -90 -90h-194q-98 0 -152 41t-54 140v349h117v-318q0 -62 26 -92t85 -30h115q30 0 30 30v410h117zM145 582l-51 36q19 37 49.5 60t66.5 23q31 0 65 -18l40 -20q41 -19 56 -19
q23 0 37.5 13.5t27.5 40.5l51 -33q-20 -38 -50.5 -63.5t-65.5 -25.5q-40 0 -72 17l-34 18q-36 19 -55 19q-39 0 -65 -48z" />
    <glyph glyph-name="uni1EF0" unicode="&#x1ef0;" horiz-adv-x="728" 
d="M554 698q48 0 72 29t24 98h77q0 -103 -45 -155.5t-128 -52.5v81zM536 254v446h132v-446q0 -143 -76.5 -202.5t-227.5 -59.5t-227.5 59.5t-76.5 202.5v446h132v-446q0 -82 41 -119.5t131 -37.5t131 37.5t41 119.5zM304 -129v100h119v-100h-119z" />
    <glyph glyph-name="uni1EF1" unicode="&#x1ef1;" horiz-adv-x="582" 
d="M423 528q48 0 72 29t24 98h77q0 -103 -45 -155.5t-128 -52.5v81zM536 530v-440q0 -90 -90 -90h-194q-98 0 -152 41t-54 140v349h117v-318q0 -62 26 -92t85 -30h115q30 0 30 30v410h117zM231 -129v100h119v-100h-119z" />
    <glyph glyph-name="Ygrave" unicode="&#x1ef2;" horiz-adv-x="684" 
d="M342 333l220 367h142l-296 -486v-214h-132v214l-296 486h142zM291 947l165 -133l-63 -74l-166 132z" />
    <glyph glyph-name="ygrave" unicode="&#x1ef3;" horiz-adv-x="570" 
d="M580 530l-316 -701h-119l81 173l-236 528h121l170 -407l180 407h119zM234 767l165 -133l-63 -74l-166 132z" />
    <glyph glyph-name="uni1EF4" unicode="&#x1ef4;" horiz-adv-x="684" 
d="M342 333l220 367h142l-296 -486v-214h-132v214l-296 486h142zM282 -129v100h119v-100h-119z" />
    <glyph glyph-name="uni1EF5" unicode="&#x1ef5;" horiz-adv-x="570" 
d="M580 530l-316 -701h-119l81 173l-236 528h121l170 -407l180 407h119zM425 -129v100h119v-100h-119z" />
    <glyph glyph-name="uni1EF6" unicode="&#x1ef6;" horiz-adv-x="684" 
d="M342 333l220 367h142l-296 -486v-214h-132v214l-296 486h142zM375 740h-76v28q0 15 2 25t7 17.5t12.5 13t18.5 11.5q3 2 13.5 7.5t19.5 11.5t12 12t-8 9h-111v74h114q40 -1 62 -24t22 -54q0 -22 -12 -43.5t-36 -35.5q-11 -5 -20 -11t-20 -11v-30z" />
    <glyph glyph-name="uni1EF7" unicode="&#x1ef7;" horiz-adv-x="570" 
d="M580 530l-316 -701h-119l81 173l-236 528h121l170 -407l180 407h119zM318 560h-76v28q0 15 2 25t7 17.5t12.5 13t18.5 11.5q3 2 13.5 7.5t19.5 11.5t12 12t-8 9h-111v74h114q40 -1 62 -24t22 -54q0 -22 -12 -43.5t-36 -35.5q-11 -5 -20 -11t-20 -11v-30z" />
    <glyph glyph-name="uni1EF8" unicode="&#x1ef8;" horiz-adv-x="684" 
d="M342 333l220 367h142l-296 -486v-214h-132v214l-296 486h142zM196 755l-51 36q19 37 49.5 60t66.5 23q31 0 65 -18l40 -20q41 -19 56 -19q23 0 37.5 13.5t27.5 40.5l51 -33q-20 -38 -50.5 -63.5t-65.5 -25.5q-40 0 -72 17l-34 18q-36 19 -55 19q-39 0 -65 -48z" />
    <glyph glyph-name="uni1EF9" unicode="&#x1ef9;" horiz-adv-x="570" 
d="M580 530l-316 -701h-119l81 173l-236 528h121l170 -407l180 407h119zM139 582l-51 36q19 37 49.5 60t66.5 23q31 0 65 -18l40 -20q41 -19 56 -19q23 0 37.5 13.5t27.5 40.5l51 -33q-20 -38 -50.5 -63.5t-65.5 -25.5q-40 0 -72 17l-34 18q-36 19 -55 19q-39 0 -65 -48z
" />
    <glyph glyph-name="uni1EFA" unicode="&#x1efa;" horiz-adv-x="1015" 
d="M243 586q-22 0 -56.5 -3.5t-65.5 -12.5t-53.5 -23.5t-22.5 -39.5q-17 24 -17 44q0 26 19 44.5t47.5 31.5t63 20t68.5 7q17 0 36.5 -2.5t34.5 -9.5t23.5 -20t8.5 -32q0 -3 -1 -11t-6 -9q-19 8 -36 12t-43 4zM997 680q15 -20 15 -36q0 -21 -18 -33.5t-47.5 -21.5t-62.5 -12
t-62 -3q-9 0 -18.5 1.5t-18.5 1.5q-1 -6 -3.5 -10t-4.5 -9q-4 -4 -9 -17t-11 -29.5t-10.5 -34.5t-4.5 -31t4.5 -20.5t16.5 -7.5q16 0 39 11q-3 -13 -9.5 -27t-15 -26t-21 -19.5t-28.5 -7.5q-27 0 -39 18t-12 45q0 24 6 49q-10 -13 -22.5 -21t-29.5 -8q-25 0 -35 9.5
t-10 25.5q0 24 11 47.5t21 46.5q-12 0 -25.5 -13.5t-25 -33t-22 -42.5t-12.5 -40q-7 0 -15.5 0.5t-16.5 4.5t-13.5 9t-5.5 13q0 11 8 30.5t20 44.5q-6 -2 -12 -3t-9 -3q-9 -21 -21.5 -38.5t-28.5 -30.5t-34 -21.5t-38 -8.5q-24 0 -43 16t-19 42q0 27 11 47.5t27 33.5
q0 2 -1 3.5t-1 2.5q0 14 7 29t19.5 25.5t30.5 18t44 7.5q25 0 42.5 -15t17.5 -47v-9t-2 -9q20 5 35 15q9 20 15.5 35t8.5 28q15 -1 31 -10t16 -23q0 -6 -1 -11.5t-5 -13.5q21 17 37.5 31.5t41.5 14.5q10 0 17 -7.5t7 -20.5t-7 -27t-16.5 -29.5t-17 -30.5t-7.5 -26q0 -9 9 -9
q6 0 14.5 3.5t16.5 8.5q8 28 17.5 52t17.5 40q-15 9 -15 27q0 8 6 18q9 -6 26 -10q8 16 15.5 33t15 32.5t11 28.5t3.5 21v4q3 1 8 1q21 0 37 -10.5t16 -24.5q0 -4 -14 -32t-32 -60q25 0 51.5 3.5t51 11t46.5 18t41 25.5zM380 486q8 0 20 10t20 25q-25 1 -47 11
q-8 -17 -8 -30q0 -7 3.5 -11.5t11.5 -4.5zM435 555q5 9 5 22q0 10 -9 17.5t-17 7.5q-10 0 -17.5 -7.5t-7.5 -14.5q0 -12 11.5 -18.5t28.5 -6.5h6zM221 285q0 -16 19 -24t43 -15t43.5 -19.5t19.5 -36.5q0 -18 -14.5 -36.5t-38.5 -33.5t-55 -23.5t-64 -8.5q-14 0 -32.5 2.5
t-34 8.5t-27.5 18.5t-12 31.5q0 16 8.5 31t22.5 23q12 -28 39.5 -39t57.5 -11q28 0 50.5 8t22.5 19q0 8 -10.5 11.5t-26 4.5t-32.5 4.5t-32.5 9.5t-25 17.5t-9.5 31.5q0 34 22.5 62.5t54.5 49t69.5 33t65.5 12.5q25 0 39.5 -9t14.5 -28q0 -13 -6 -25.5t-13.5 -25
t-14.5 -23.5t-7 -20q-44 0 -44 44v10t3 12q-14 -3 -31 -10t-31.5 -15.5t-24 -19t-9.5 -21.5zM881 401q36 0 36 -29q0 -13 -13 -31h-12q-46 0 -74 -11t-46.5 -28t-31 -38t-22.5 -41q-7 -19 -17 -40q-8 -18 -17.5 -40.5t-17.5 -46.5q-6 0 -15 1t-17 4.5t-13 9.5t-5 17
q0 9 8 28t18 43q-6 -2 -11.5 -3t-9.5 -3q-8 -21 -21 -38t-28 -31.5t-34 -22t-40 -7.5q-23 0 -41 16.5t-18 41.5q0 26 10 47.5t26 33.5v7q0 12 2 20q-14 0 -28 -2q-4 -8 -12 -27.5t-16.5 -44t-15 -49t-7.5 -41.5q-4 -28 21 -28q14 0 39 11q-3 -14 -9 -27.5t-16 -25t-22 -19.5
t-26 -8q-28 0 -41 18t-13 46q0 25 6 52t15 53t18.5 49t16.5 41q-7 4 -11 12t-4 16q0 13 5 17q8 0 17 1.5l15 2.5q27 52 42 97q15 -2 32 -12t17 -27q0 -13 -10 -26.5t-14 -27.5h7q19 0 26 -10q25 17 65 17q25 0 42.5 -14.5t17.5 -48.5v-7.5v-8.5q8 1 15.5 5t15.5 9
q8 21 13.5 39.5t5.5 29.5q0 7 -1 9q13 -2 23 -5q9 -5 17 -12t9 -18q31 48 71 76.5t78 28.5zM511 150q9 0 21 10.5t21 26.5q-27 1 -48 9q-2 -8 -4.5 -14.5t-2.5 -13.5q0 -18 13 -18zM568 221q4 9 4 19q0 12 -8 19.5t-15 7.5q-13 0 -20 -7.5t-7 -14.5q0 -12 11 -18.5t27 -6.5
q6 0 8 1zM821 207q11 0 19 11t8 21q0 13 -9 13q-7 0 -17 -7.5t-19.5 -19.5t-16.5 -26.5t-7 -29.5q0 -11 6.5 -17.5t18.5 -6.5q10 0 23 4t24 9t20.5 11.5t14.5 13.5q-2 -21 -13 -37t-27 -28t-36 -18t-40 -6q-25 0 -42 13t-17 40q0 25 13.5 53.5t34 53.5t45.5 42.5t49 17.5
q27 0 39 -13.5t12 -32.5q0 -25 -8.5 -43t-22 -30.5t-29 -19.5t-29.5 -7q-10 0 -16 5t-6 15q0 9 5.5 17t7.5 9q8 -7 15 -7zM92 279q-18 -3 -33.5 5.5t-27.5 21.5t-19.5 28t-9.5 25q21 -11 32 -13t24 2q11 2 19.5 16.5t15.5 36t11.5 46t7.5 46t4.5 38t1.5 20.5q1 3 3 3
q14 4 29 6.5t28 2.5q8 0 13 -4t5 -15q0 -13 -10 -38q13 0 23 1.5t33 1.5q24 0 40 -14t16 -37v-9t-6 -8q-10 4 -21.5 4.5t-23.5 0.5q-7 0 -21 -0.5t-28.5 -4.5t-26 -10t-12.5 -15q-2 -6 -7 -26.5t-13 -44.5t-20 -43t-27 -23z" />
    </font>
</defs>
</svg>
